<mxfile host="Electron" modified="2023-07-31T10:24:28.081Z" agent="Mozilla/5.0 (Windows NT 10.0; Win64; x64) AppleWebKit/537.36 (KHTML, like Gecko) draw.io/21.5.1 Chrome/112.0.5615.204 Electron/24.6.0 Safari/537.36" etag="EoFlUW0Dsl8AtodhRSz9" version="21.5.1" type="device">
  <diagram id="Ip6SylgBB0C6o74FARnR" name="Seite-1">
    <mxGraphModel dx="2183" dy="868" grid="1" gridSize="10" guides="1" tooltips="1" connect="1" arrows="1" fold="1" page="1" pageScale="1" pageWidth="827" pageHeight="1169" math="0" shadow="0">
      <root>
        <mxCell id="0" />
        <mxCell id="1" parent="0" />
        <mxCell id="a38BfnecuPuGl3UTYQXL-4" style="shape=rect;verticalAlign=top;align=left;fontSize=12;fontFamily=Helvetica;shadow=1;strokeWidth=2;fillColor=#FFFFFF;strokeColor=#000000;opacity=100.0;gliffyId=211;" parent="1" vertex="1">
          <mxGeometry x="1110" y="213" width="190" height="80" as="geometry" />
        </mxCell>
        <mxCell id="a38BfnecuPuGl3UTYQXL-5" value="&lt;div style=&quot;width: 187.0px;height:auto;word-break: break-word;&quot;&gt;&lt;div align=&quot;center&quot;&gt;&lt;span style=&quot;font-family: Arial; font-size: 12px; line-height: 14px;&quot;&gt;DVPD_PIPELINE_DV_TABLE&lt;/span&gt;&lt;span style=&quot;line-height: normal; line-height: normal;&quot;&gt;_DRIVING_KEY_RAW&lt;/span&gt;&lt;/div&gt;&lt;/div&gt;" style="shape=rect;shadow=0;strokeWidth=2;fillColor=#FFFFFF;strokeColor=#000000;opacity=100.0;html=1;nl2Br=0;verticalAlign=middle;align=center;spacingLeft=2.2;spacingRight=0;spacingTop=1.0;spacingBottom=8;whiteSpace=wrap;gliffyId=212;" parent="a38BfnecuPuGl3UTYQXL-4" vertex="1">
          <mxGeometry width="190" height="40" as="geometry" />
        </mxCell>
        <mxCell id="a38BfnecuPuGl3UTYQXL-6" value="&lt;div style=&quot;width: 187.0px;height:auto;word-break: break-word;&quot;&gt;&lt;div align=&quot;left&quot;&gt;&lt;/div&gt;&lt;div align=&quot;left&quot;&gt;&lt;span style=&quot;line-height: normal; line-height: normal;&quot;&gt;pipeline_name(P)&lt;/span&gt;&lt;/div&gt;&lt;div align=&quot;left&quot;&gt;...&lt;/div&gt;&lt;/div&gt;" style="shape=rect;shadow=0;strokeWidth=2;fillColor=#FFFFFF;strokeColor=#000000;opacity=100.0;html=1;nl2Br=0;verticalAlign=middle;align=center;spacingLeft=2.2;spacingRight=0;spacingTop=-5.0;spacingBottom=2;whiteSpace=wrap;gliffyId=214;" parent="a38BfnecuPuGl3UTYQXL-4" vertex="1">
          <mxGeometry y="40" width="190" height="40" as="geometry" />
        </mxCell>
        <mxCell id="a38BfnecuPuGl3UTYQXL-7" style="shape=rect;verticalAlign=top;align=left;fontSize=12;fontFamily=Helvetica;shadow=0;strokeWidth=2;fillColor=#FFFFFF;strokeColor=#990000;opacity=100.0;gliffyId=288;" parent="1" vertex="1">
          <mxGeometry x="1654" y="1660" width="190" height="188" as="geometry" />
        </mxCell>
        <mxCell id="a38BfnecuPuGl3UTYQXL-8" value="&lt;div style=&#39;width: 187.0px;height:auto;word-break: break-word;&#39;&gt;&lt;div align=&quot;center&quot;&gt;&lt;span style=&quot;font-family: Arial; font-size: 12px; line-height: 14px;&quot;&gt;DVPD_PIPELINE_LOAD_DELETION&lt;/span&gt;&lt;span style=&quot;line-height: normal; line-height: normal;&quot;&gt;_PLAN&lt;/span&gt;&lt;/div&gt;&lt;/div&gt;" style="shape=rect;shadow=0;strokeWidth=2;fillColor=#FFFFFF;strokeColor=#990000;opacity=100.0;html=1;nl2Br=0;verticalAlign=top;align=center;spacingLeft=6.0;spacingRight=6;spacingTop=1.0;spacingBottom=8;whiteSpace=wrap;gliffyId=289;" parent="a38BfnecuPuGl3UTYQXL-7" vertex="1">
          <mxGeometry width="190" height="44" as="geometry" />
        </mxCell>
        <mxCell id="a38BfnecuPuGl3UTYQXL-9" value="&lt;div style=&#39;width: 187.0px;height:auto;word-break: break-word;&#39;&gt;&lt;div align=&quot;left&quot;&gt;&lt;/div&gt;&lt;div align=&quot;left&quot;&gt;&lt;span style=&quot;line-height: normal; line-height: normal;&quot;&gt;pipeline_name(P)&lt;/span&gt;&lt;/div&gt;&lt;div align=&quot;left&quot;&gt;&lt;span style=&quot;line-height: normal; line-height: normal;&quot;&gt;table_name(P)&lt;/span&gt;&lt;/div&gt;&lt;div align=&quot;left&quot;&gt;&lt;span style=&quot;line-height: normal; line-height: normal;&quot;&gt;process_block&lt;/span&gt;&lt;/div&gt;&lt;div align=&quot;left&quot;&gt;&lt;span style=&quot;line-height: normal; line-height: normal;&quot;&gt;is_full_deletion&lt;/span&gt;&lt;/div&gt;&lt;div align=&quot;left&quot;&gt;&lt;span style=&quot;line-height: normal; line-height: normal;&quot;&gt;path_index&lt;/span&gt;&lt;/div&gt;&lt;div align=&quot;left&quot;&gt;&lt;span style=&quot;line-height: normal; line-height: normal;&quot;&gt;origin_table_name&lt;/span&gt;&lt;/div&gt;&lt;div align=&quot;left&quot;&gt;&lt;span style=&quot;line-height: normal; line-height: normal;&quot;&gt;origin_key_column&lt;/span&gt;&lt;/div&gt;&lt;div align=&quot;left&quot;&gt;&lt;span style=&quot;line-height: normal; line-height: normal;&quot;&gt;step_table_name&lt;/span&gt;&lt;/div&gt;&lt;div align=&quot;left&quot;&gt;&lt;span style=&quot;line-height: normal; line-height: normal;&quot;&gt;step_key_column&lt;/span&gt;&lt;/div&gt;&lt;div align=&quot;left&quot;&gt;&lt;span style=&quot;text-decoration: none; line-height: normal; line-height: normal;&quot;&gt;&amp;nbsp;&lt;/span&gt;&lt;/div&gt;&lt;div align=&quot;left&quot;&gt;&lt;/div&gt;&lt;div align=&quot;left&quot;&gt;&lt;/div&gt;&lt;/div&gt;" style="shape=rect;shadow=0;strokeWidth=2;fillColor=#FFFFFF;strokeColor=#990000;opacity=100.0;html=1;nl2Br=0;verticalAlign=top;align=left;spacingLeft=0.0;spacingRight=0;spacingTop=-5.0;spacingBottom=2;whiteSpace=wrap;gliffyId=291;" parent="a38BfnecuPuGl3UTYQXL-7" vertex="1">
          <mxGeometry y="44" width="190" height="144" as="geometry" />
        </mxCell>
        <mxCell id="a38BfnecuPuGl3UTYQXL-10" style="shape=rect;verticalAlign=top;align=left;fontSize=12;fontFamily=Helvetica;shadow=0;strokeWidth=2;fillColor=#FFFFFF;strokeColor=#990000;opacity=100.0;gliffyId=324;" parent="1" vertex="1">
          <mxGeometry x="1844" y="1900" width="190" height="140" as="geometry" />
        </mxCell>
        <mxCell id="a38BfnecuPuGl3UTYQXL-11" value="&lt;div style=&#39;width: 187.0px;height:auto;word-break: break-word;&#39;&gt;&lt;div align=&quot;center&quot;&gt;&lt;span style=&quot;font-family: Arial; font-size: 12px; line-height: 14px;&quot;&gt;DVPD_PIPELINE_LOAD_DELETION&lt;/span&gt;&lt;span style=&quot;line-height: normal; line-height: normal;&quot;&gt;_PARTITION_FIELD&lt;/span&gt;&lt;/div&gt;&lt;/div&gt;" style="shape=rect;shadow=0;strokeWidth=2;fillColor=#FFFFFF;strokeColor=#990000;opacity=100.0;html=1;nl2Br=0;verticalAlign=top;align=center;spacingLeft=6.0;spacingRight=6;spacingTop=1.0;spacingBottom=8;whiteSpace=wrap;gliffyId=325;" parent="a38BfnecuPuGl3UTYQXL-10" vertex="1">
          <mxGeometry width="190" height="44" as="geometry" />
        </mxCell>
        <mxCell id="a38BfnecuPuGl3UTYQXL-12" value="&lt;div style=&#39;width: 187.0px;height:auto;word-break: break-word;&#39;&gt;&lt;div align=&quot;left&quot;&gt;&lt;/div&gt;&lt;div align=&quot;left&quot;&gt;&lt;span style=&quot;line-height: normal; line-height: normal;&quot;&gt;pipeline_name(P)&lt;/span&gt;&lt;/div&gt;&lt;div align=&quot;left&quot;&gt;&lt;span style=&quot;line-height: normal; line-height: normal;&quot;&gt;table_name(P)&lt;/span&gt;&lt;/div&gt;&lt;div align=&quot;left&quot;&gt;&lt;span style=&quot;line-height: normal; line-height: normal;&quot;&gt;process_block&lt;/span&gt;&lt;/div&gt;&lt;div align=&quot;left&quot;&gt;&lt;span style=&quot;line-height: normal; line-height: normal;&quot;&gt;path index&lt;/span&gt;&lt;/div&gt;&lt;div align=&quot;left&quot;&gt;&lt;span style=&quot;line-height: normal; line-height: normal;&quot;&gt;partitioning_field_name&lt;/span&gt;&lt;/div&gt;&lt;div align=&quot;left&quot;&gt;&lt;span style=&quot;line-height: normal; line-height: normal;&quot;&gt;partitioning_column_name&lt;/span&gt;&lt;/div&gt;&lt;div align=&quot;left&quot;&gt;&lt;/div&gt;&lt;div align=&quot;left&quot;&gt;&lt;/div&gt;&lt;/div&gt;" style="shape=rect;shadow=0;strokeWidth=2;fillColor=#FFFFFF;strokeColor=#990000;opacity=100.0;html=1;nl2Br=0;verticalAlign=top;align=left;spacingLeft=0.0;spacingRight=0;spacingTop=-5.0;spacingBottom=2;whiteSpace=wrap;gliffyId=327;" parent="a38BfnecuPuGl3UTYQXL-10" vertex="1">
          <mxGeometry y="44" width="190" height="96" as="geometry" />
        </mxCell>
        <mxCell id="a38BfnecuPuGl3UTYQXL-16" style="shape=rect;verticalAlign=top;align=left;fontSize=12;fontFamily=Helvetica;shadow=1;strokeWidth=2;fillColor=#FFFFFF;strokeColor=#000000;opacity=100.0;gliffyId=293;" parent="1" vertex="1">
          <mxGeometry x="1620" y="200" width="190" height="104" as="geometry" />
        </mxCell>
        <mxCell id="a38BfnecuPuGl3UTYQXL-17" value="&lt;div style=&#39;width: 187.0px;height:auto;word-break: break-word;&#39;&gt;&lt;div align=&quot;center&quot;&gt;&lt;span style=&quot;font-family: Arial; font-size: 12px; line-height: 14px;&quot;&gt;DVPD_PIPELINE_LOAD_DELETION_TABLE&lt;/span&gt;&lt;span style=&quot;line-height: normal; line-height: normal;&quot;&gt;_(RAW)&lt;/span&gt;&lt;/div&gt;&lt;/div&gt;" style="shape=rect;shadow=1;strokeWidth=2;fillColor=#FFFFFF;strokeColor=#000000;opacity=100.0;html=1;nl2Br=0;verticalAlign=top;align=center;spacingLeft=6.0;spacingRight=6;spacingTop=1.0;spacingBottom=8;whiteSpace=wrap;gliffyId=294;" parent="a38BfnecuPuGl3UTYQXL-16" vertex="1">
          <mxGeometry width="190" height="44" as="geometry" />
        </mxCell>
        <mxCell id="a38BfnecuPuGl3UTYQXL-18" value="&lt;div style=&#39;width: 187.0px;height:auto;word-break: break-word;&#39;&gt;&lt;div align=&quot;left&quot;&gt;&lt;/div&gt;&lt;div align=&quot;left&quot;&gt;&lt;span style=&quot;line-height: normal; line-height: normal;&quot;&gt;pipeline_name(P)&lt;/span&gt;&lt;/div&gt;&lt;div align=&quot;left&quot;&gt;&lt;span style=&quot;line-height: normal; line-height: normal;&quot;&gt;rule_name&lt;/span&gt;&lt;/div&gt;&lt;div align=&quot;left&quot;&gt;&lt;span style=&quot;line-height: normal; line-height: normal;&quot;&gt;table_name&lt;/span&gt;&lt;/div&gt;&lt;/div&gt;" style="shape=rect;shadow=1;strokeWidth=2;fillColor=#FFFFFF;strokeColor=#000000;opacity=100.0;html=1;nl2Br=0;verticalAlign=top;align=left;spacingLeft=0.0;spacingRight=0;spacingTop=-5.0;spacingBottom=2;whiteSpace=wrap;gliffyId=296;" parent="a38BfnecuPuGl3UTYQXL-16" vertex="1">
          <mxGeometry y="44" width="190" height="60" as="geometry" />
        </mxCell>
        <mxCell id="a38BfnecuPuGl3UTYQXL-19" style="shape=rect;verticalAlign=top;align=left;fontSize=12;fontFamily=Helvetica;shadow=1;strokeWidth=2;fillColor=#FFFFFF;strokeColor=#000000;opacity=100.0;gliffyId=305;" parent="1" vertex="1">
          <mxGeometry x="1510" y="326" width="190" height="104" as="geometry" />
        </mxCell>
        <mxCell id="a38BfnecuPuGl3UTYQXL-20" value="&lt;div style=&#39;width: 187.0px;height:auto;word-break: break-word;&#39;&gt;&lt;div align=&quot;center&quot;&gt;&lt;span style=&quot;font-family: Arial; font-size: 12px; line-height: 14px;&quot;&gt;DVPD_PIPELINE_LOAD_DELETION_JOIN_GUIDE&lt;/span&gt;&lt;span style=&quot;line-height: normal; line-height: normal;&quot;&gt;_(RAW)&lt;/span&gt;&lt;/div&gt;&lt;/div&gt;" style="shape=rect;shadow=1;strokeWidth=2;fillColor=#FFFFFF;strokeColor=#000000;opacity=100.0;html=1;nl2Br=0;verticalAlign=top;align=center;spacingLeft=6.0;spacingRight=6;spacingTop=1.0;spacingBottom=8;whiteSpace=wrap;gliffyId=306;" parent="a38BfnecuPuGl3UTYQXL-19" vertex="1">
          <mxGeometry width="190" height="44" as="geometry" />
        </mxCell>
        <mxCell id="a38BfnecuPuGl3UTYQXL-21" value="&lt;div style=&#39;width: 187.0px;height:auto;word-break: break-word;&#39;&gt;&lt;div align=&quot;left&quot;&gt;&lt;/div&gt;&lt;div align=&quot;left&quot;&gt;&lt;span style=&quot;line-height: normal; line-height: normal;&quot;&gt;pipeline_name(P)&lt;/span&gt;&lt;/div&gt;&lt;div align=&quot;left&quot;&gt;&lt;span style=&quot;line-height: normal; line-height: normal;&quot;&gt;rule_name&lt;/span&gt;&lt;/div&gt;&lt;div align=&quot;left&quot;&gt;&lt;span style=&quot;line-height: normal; line-height: normal;&quot;&gt;table_name&lt;/span&gt;&lt;/div&gt;&lt;div align=&quot;left&quot;&gt;&lt;span style=&quot;line-height: normal; line-height: normal;&quot;&gt;position_index&lt;/span&gt;&lt;/div&gt;&lt;/div&gt;" style="shape=rect;shadow=1;strokeWidth=2;fillColor=#FFFFFF;strokeColor=#000000;opacity=100.0;html=1;nl2Br=0;verticalAlign=top;align=left;spacingLeft=0.0;spacingRight=0;spacingTop=-5.0;spacingBottom=2;whiteSpace=wrap;gliffyId=308;" parent="a38BfnecuPuGl3UTYQXL-19" vertex="1">
          <mxGeometry y="44" width="190" height="60" as="geometry" />
        </mxCell>
        <mxCell id="a38BfnecuPuGl3UTYQXL-25" style="shape=rect;verticalAlign=top;align=left;fontSize=12;fontFamily=Helvetica;shadow=1;strokeWidth=2;fillColor=#FFFFFF;strokeColor=#000000;opacity=100.0;gliffyId=230;" parent="1" vertex="1">
          <mxGeometry x="940" y="213" width="160" height="146" as="geometry" />
        </mxCell>
        <mxCell id="a38BfnecuPuGl3UTYQXL-26" value="&lt;div style=&quot;width: 187.0px;height:auto;word-break: break-word;&quot;&gt;&lt;div align=&quot;center&quot;&gt;&lt;span style=&quot;font-family: Arial; font-size: 12px; line-height: 14px;&quot;&gt;DVPD_PIPELINE_DV_ TABLE_&lt;/span&gt;&lt;span style=&quot;background-color: initial; line-height: normal;&quot;&gt;LINK_&lt;/span&gt;&lt;span style=&quot;background-color: initial; line-height: normal;&quot;&gt;PARENT_RAW&lt;/span&gt;&lt;/div&gt;&lt;/div&gt;" style="shape=rect;shadow=1;strokeWidth=2;fillColor=#FFFFFF;strokeColor=#000000;opacity=100.0;html=1;nl2Br=0;verticalAlign=top;align=center;spacingLeft=6.0;spacingRight=6;spacingTop=1.0;spacingBottom=8;whiteSpace=wrap;gliffyId=231;" parent="a38BfnecuPuGl3UTYQXL-25" vertex="1">
          <mxGeometry width="160" height="44" as="geometry" />
        </mxCell>
        <mxCell id="a38BfnecuPuGl3UTYQXL-27" value="&lt;div style=&quot;width: 187.0px;height:auto;word-break: break-word;&quot;&gt;&lt;div align=&quot;left&quot;&gt;&lt;/div&gt;&lt;div align=&quot;left&quot;&gt;&lt;span style=&quot;line-height: normal; line-height: normal;&quot;&gt;pipeline_name(P)&lt;/span&gt;&lt;/div&gt;&lt;div align=&quot;left&quot;&gt;&lt;span style=&quot;line-height: normal; line-height: normal;&quot;&gt;table_name(P)&lt;/span&gt;&lt;/div&gt;&lt;div align=&quot;left&quot;&gt;&lt;span style=&quot;text-decoration: none; line-height: normal; line-height: normal;&quot;&gt;parent_table_name&lt;/span&gt;&lt;/div&gt;&lt;div align=&quot;left&quot;&gt;&lt;span style=&quot;background-color: initial;&quot;&gt;relation_name&lt;/span&gt;&lt;br&gt;&lt;/div&gt;&lt;div align=&quot;left&quot;&gt;&lt;span style=&quot;line-height: normal; line-height: normal;&quot;&gt;link_parent_order&lt;/span&gt;&lt;/div&gt;&lt;/div&gt;" style="shape=rect;shadow=1;strokeWidth=2;fillColor=#FFFFFF;strokeColor=#000000;opacity=100.0;html=1;nl2Br=0;verticalAlign=top;align=left;spacingLeft=0.0;spacingRight=0;spacingTop=-5.0;spacingBottom=2;whiteSpace=wrap;gliffyId=233;" parent="a38BfnecuPuGl3UTYQXL-25" vertex="1">
          <mxGeometry y="44" width="160" height="102" as="geometry" />
        </mxCell>
        <mxCell id="a38BfnecuPuGl3UTYQXL-31" style="shape=rect;verticalAlign=top;align=left;fontSize=12;fontFamily=Helvetica;shadow=0;strokeWidth=2;fillColor=#FFFFFF;strokeColor=#000000;opacity=100.0;gliffyId=10;" parent="1" vertex="1">
          <mxGeometry x="220" y="522" width="200" height="117" as="geometry" />
        </mxCell>
        <mxCell id="a38BfnecuPuGl3UTYQXL-32" value="&lt;div style=&#39;width: 197.0px;height:auto;word-break: break-word;&#39;&gt;&lt;div align=&quot;center&quot;&gt;&lt;span style=&quot;font-family: Arial; font-size: 12px; line-height: 14px;&quot;&gt;DVPD_PIPELINE_FIELD&lt;/span&gt;&lt;/div&gt;&lt;div align=&quot;center&quot;&gt;&lt;span style=&quot;font-family: Arial; font-size: 12px; line-height: 14px;&quot;&gt;_TARGET_EXPANSION&lt;span style=&quot;text-decoration: none; line-height: normal;&quot;&gt;&lt;br&gt;&lt;/span&gt;&lt;/span&gt;&lt;/div&gt;&lt;/div&gt;" style="shape=rect;shadow=0;strokeWidth=2;fillColor=#FFFFFF;strokeColor=#000000;opacity=100.0;html=1;nl2Br=0;verticalAlign=top;align=center;spacingLeft=6.0;spacingRight=6;spacingTop=1.0;spacingBottom=8;whiteSpace=wrap;gliffyId=11;" parent="a38BfnecuPuGl3UTYQXL-31" vertex="1">
          <mxGeometry width="200" height="44" as="geometry" />
        </mxCell>
        <mxCell id="a38BfnecuPuGl3UTYQXL-33" value="&lt;div style=&#39;width: 197.0px;height:auto;word-break: break-word;&#39;&gt;&lt;div align=&quot;center&quot;&gt;&lt;span style=&quot;font-family: Arial; font-size: 12px; line-height: 14px;&quot;&gt;DVPD_PIPELINE_FIELD_RAW&lt;/span&gt;&lt;/div&gt;&lt;div align=&quot;center&quot;&gt;&lt;span style=&quot;font-family: Arial; font-size: 12px; line-height: 14px;&quot;&gt;with cleansed content and applied default value rules&lt;/span&gt;&lt;/div&gt;&lt;/div&gt;" style="shape=rect;shadow=0;strokeWidth=2;fillColor=#FFFFFF;strokeColor=#000000;opacity=100.0;html=1;nl2Br=0;verticalAlign=top;align=center;spacingLeft=0.0;spacingRight=0;spacingTop=-5.0;spacingBottom=2;whiteSpace=wrap;gliffyId=13;" parent="a38BfnecuPuGl3UTYQXL-31" vertex="1">
          <mxGeometry y="44" width="200" height="73" as="geometry" />
        </mxCell>
        <mxCell id="a38BfnecuPuGl3UTYQXL-34" style="shape=rect;verticalAlign=top;align=left;fontSize=12;fontFamily=Helvetica;shadow=0;strokeWidth=2;fillColor=#FFFFFF;strokeColor=#000000;opacity=100.0;gliffyId=280;" parent="1" vertex="1">
          <mxGeometry x="880" y="560" width="190" height="90" as="geometry" />
        </mxCell>
        <mxCell id="a38BfnecuPuGl3UTYQXL-35" value="&lt;div style=&#39;width: 187.0px;height:auto;word-break: break-word;&#39;&gt;&lt;div align=&quot;center&quot;&gt;&lt;span style=&quot;line-height: normal; line-height: normal;&quot;&gt;DVPD_PIPELINE_DV_TABLE_&lt;/span&gt;&lt;/div&gt;&lt;div align=&quot;center&quot;&gt;&lt;span style=&quot;line-height: normal; line-height: normal;&quot;&gt;LINK_PARENT&lt;/span&gt;&lt;/div&gt;&lt;/div&gt;" style="shape=rect;shadow=0;strokeWidth=2;fillColor=#FFFFFF;strokeColor=#000000;opacity=100.0;html=1;nl2Br=0;verticalAlign=top;align=center;spacingLeft=6.0;spacingRight=6;spacingTop=1.0;spacingBottom=8;whiteSpace=wrap;gliffyId=281;" parent="a38BfnecuPuGl3UTYQXL-34" vertex="1">
          <mxGeometry width="190" height="44" as="geometry" />
        </mxCell>
        <mxCell id="a38BfnecuPuGl3UTYQXL-36" value="&lt;div style=&#39;width: 187.0px;height:auto;word-break: break-word;&#39;&gt;&lt;div align=&quot;center&quot;&gt;&lt;span style=&quot;font-family: Arial; font-size: 12px; line-height: 14px;&quot;&gt;cleansed * from raw&lt;/span&gt;&lt;/div&gt;&lt;div align=&quot;center&quot;&gt;&lt;span style=&quot;font-family: Arial; font-size: 12px; line-height: 14px;&quot;&gt;hub_key_column_name&lt;/span&gt;&lt;/div&gt;&lt;/div&gt;" style="shape=rect;shadow=0;strokeWidth=2;fillColor=#FFFFFF;strokeColor=#000000;opacity=100.0;html=1;nl2Br=0;verticalAlign=top;align=center;spacingLeft=0.0;spacingRight=0;spacingTop=-5.0;spacingBottom=2;whiteSpace=wrap;gliffyId=283;" parent="a38BfnecuPuGl3UTYQXL-34" vertex="1">
          <mxGeometry y="44" width="190" height="46" as="geometry" />
        </mxCell>
        <mxCell id="a38BfnecuPuGl3UTYQXL-37" style="shape=rect;verticalAlign=top;align=left;fontSize=12;fontFamily=Helvetica;shadow=1;strokeWidth=2;fillColor=#FFFFFF;strokeColor=#000000;opacity=100.0;gliffyId=236;" parent="1" vertex="1">
          <mxGeometry x="230" y="207" width="180" height="180" as="geometry" />
        </mxCell>
        <mxCell id="a38BfnecuPuGl3UTYQXL-38" value="&lt;div style=&#39;width: 177.0px;height:auto;word-break: break-word;&#39;&gt;&lt;div align=&quot;center&quot;&gt;&lt;span style=&quot;font-family: Arial; font-size: 12px; line-height: 14px;&quot;&gt;DVPD_PIPELINE_FIELD_&lt;/span&gt;&lt;/div&gt;&lt;div align=&quot;center&quot;&gt;&lt;span style=&quot;font-family: Arial; font-size: 12px; line-height: 14px;&quot;&gt;TARGET_EXPANSION_RAW&lt;span style=&quot;text-decoration: none; line-height: normal;&quot;&gt;&lt;br&gt;&lt;/span&gt;&lt;/span&gt;&lt;/div&gt;&lt;/div&gt;" style="shape=rect;shadow=1;strokeWidth=2;fillColor=#FFFFFF;strokeColor=#000000;opacity=100.0;html=1;nl2Br=0;verticalAlign=top;align=center;spacingLeft=6.0;spacingRight=6;spacingTop=1.0;spacingBottom=8;whiteSpace=wrap;gliffyId=237;" parent="a38BfnecuPuGl3UTYQXL-37" vertex="1">
          <mxGeometry width="180" height="44" as="geometry" />
        </mxCell>
        <mxCell id="a38BfnecuPuGl3UTYQXL-39" value="&lt;div style=&#39;width: 177.0px;height:auto;word-break: break-word;&#39;&gt;&lt;div align=&quot;left&quot;&gt;&lt;span style=&quot;line-height: normal; line-height: normal;&quot;&gt;pipeline_name(P)&lt;/span&gt;&lt;/div&gt;&lt;div align=&quot;left&quot;&gt;&lt;span style=&quot;line-height: normal; line-height: normal;&quot;&gt;field_group (P)&lt;/span&gt;&lt;/div&gt;&lt;div align=&quot;left&quot;&gt;&lt;span style=&quot;line-height: normal; line-height: normal;&quot;&gt;field_name (P)&lt;/span&gt;&lt;/div&gt;&lt;div align=&quot;left&quot;&gt;&lt;span style=&quot;line-height: normal; line-height: normal;&quot;&gt;field_type&lt;/span&gt;&lt;/div&gt;&lt;div align=&quot;left&quot;&gt;&lt;span style=&quot;line-height: normal; line-height: normal;&quot;&gt;target_table&lt;/span&gt;&lt;/div&gt;&lt;div align=&quot;left&quot;&gt;&lt;span style=&quot;line-height: normal; line-height: normal;&quot;&gt;target_column_name&lt;/span&gt;&lt;/div&gt;&lt;div align=&quot;left&quot;&gt;&lt;span style=&quot;line-height: normal; line-height: normal;&quot;&gt;recursion_name&lt;/span&gt;&lt;/div&gt;&lt;div align=&quot;left&quot;&gt;&lt;span style=&quot;line-height: normal; line-height: normal;&quot;&gt;...&lt;/span&gt;&lt;/div&gt;&lt;/div&gt;" style="shape=rect;shadow=1;strokeWidth=2;fillColor=#FFFFFF;strokeColor=#000000;opacity=100.0;html=1;nl2Br=0;verticalAlign=top;align=left;spacingLeft=0.0;spacingRight=0;spacingTop=-5.0;spacingBottom=2;whiteSpace=wrap;gliffyId=239;" parent="a38BfnecuPuGl3UTYQXL-37" vertex="1">
          <mxGeometry y="44" width="180" height="136" as="geometry" />
        </mxCell>
        <mxCell id="a38BfnecuPuGl3UTYQXL-40" style="shape=rect;verticalAlign=top;align=left;fontSize=12;fontFamily=Helvetica;shadow=1;strokeWidth=2;fillColor=#FFFFFF;strokeColor=#000000;opacity=100.0;gliffyId=242;" parent="1" vertex="1">
          <mxGeometry y="207" width="180" height="180" as="geometry" />
        </mxCell>
        <mxCell id="a38BfnecuPuGl3UTYQXL-41" value="&lt;div style=&#39;width: 177.0px;height:auto;word-break: break-word;&#39;&gt;&lt;div align=&quot;center&quot;&gt;&lt;span style=&quot;font-family: Arial; font-size: 12px; line-height: 14px;&quot;&gt;DVPD_PIPELINE_FIELD_&lt;/span&gt;&lt;/div&gt;&lt;div align=&quot;center&quot;&gt;&lt;span style=&quot;font-family: Arial; font-size: 12px; line-height: 14px;&quot;&gt;PROPERTIES_(RAW)&lt;span style=&quot;text-decoration: none; line-height: normal;&quot;&gt;&lt;br&gt;&lt;/span&gt;&lt;/span&gt;&lt;/div&gt;&lt;/div&gt;" style="shape=rect;shadow=1;strokeWidth=2;fillColor=#FFFFFF;strokeColor=#000000;opacity=100.0;html=1;nl2Br=0;verticalAlign=top;align=center;spacingLeft=6.0;spacingRight=6;spacingTop=1.0;spacingBottom=8;whiteSpace=wrap;gliffyId=243;" parent="a38BfnecuPuGl3UTYQXL-40" vertex="1">
          <mxGeometry width="180" height="44" as="geometry" />
        </mxCell>
        <mxCell id="a38BfnecuPuGl3UTYQXL-42" value="&lt;div style=&#39;width: 177.0px;height:auto;word-break: break-word;&#39;&gt;&lt;div align=&quot;left&quot;&gt;&lt;span style=&quot;line-height: normal; line-height: normal;&quot;&gt;pipeline_name(P)&lt;/span&gt;&lt;/div&gt;&lt;div align=&quot;left&quot;&gt;&lt;span style=&quot;line-height: normal; line-height: normal;&quot;&gt;field_group (P)&lt;/span&gt;&lt;/div&gt;&lt;div align=&quot;left&quot;&gt;&lt;span style=&quot;line-height: normal; line-height: normal;&quot;&gt;field_name (P)&lt;/span&gt;&lt;/div&gt;&lt;div align=&quot;left&quot;&gt;&lt;span style=&quot;line-height: normal; line-height: normal;&quot;&gt;field_type&lt;/span&gt;&lt;/div&gt;&lt;div align=&quot;left&quot;&gt;&lt;span style=&quot;line-height: normal; line-height: normal;&quot;&gt;target_table&lt;/span&gt;&lt;/div&gt;&lt;div align=&quot;left&quot;&gt;&lt;span style=&quot;line-height: normal; line-height: normal;&quot;&gt;target_column_name&lt;/span&gt;&lt;/div&gt;&lt;div align=&quot;left&quot;&gt;&lt;span style=&quot;line-height: normal; line-height: normal;&quot;&gt;...&lt;/span&gt;&lt;/div&gt;&lt;/div&gt;" style="shape=rect;shadow=1;strokeWidth=2;fillColor=#FFFFFF;strokeColor=#000000;opacity=100.0;html=1;nl2Br=0;verticalAlign=top;align=left;spacingLeft=0.0;spacingRight=0;spacingTop=-5.0;spacingBottom=2;whiteSpace=wrap;gliffyId=245;" parent="a38BfnecuPuGl3UTYQXL-40" vertex="1">
          <mxGeometry y="44" width="180" height="136" as="geometry" />
        </mxCell>
        <mxCell id="a38BfnecuPuGl3UTYQXL-46" style="shape=rect;verticalAlign=top;align=left;fontSize=12;fontFamily=Helvetica;shadow=1;strokeWidth=2;fillColor=#FFFFFF;strokeColor=#000000;opacity=100.0;gliffyId=274;" parent="1" vertex="1">
          <mxGeometry x="-130" y="970" width="205" height="80" as="geometry" />
        </mxCell>
        <mxCell id="a38BfnecuPuGl3UTYQXL-47" value="&lt;div style=&quot;width: 202.0px;height:auto;word-break: break-word;&quot;&gt;&lt;div align=&quot;center&quot;&gt;&lt;span style=&quot;font-family: Arial; font-size: 12px; line-height: 0;&quot;&gt;&lt;span style=&quot;text-decoration: none; line-height: 14px;&quot;&gt;DVPD_PIPELINE_&lt;/span&gt;&lt;/span&gt;&lt;/div&gt;&lt;div align=&quot;center&quot;&gt;&lt;span style=&quot;font-family: Arial; font-size: 12px; line-height: 0;&quot;&gt;&lt;span style=&quot;text-decoration: none; line-height: 14px;&quot;&gt;PROPERTIES_RAW&lt;/span&gt;&lt;/span&gt;&lt;/div&gt;&lt;/div&gt;" style="shape=rect;shadow=1;strokeWidth=2;fillColor=#FFFFFF;strokeColor=#000000;opacity=100.0;html=1;nl2Br=0;verticalAlign=top;align=left;spacingLeft=6.0;spacingRight=6;spacingTop=1.0;spacingBottom=8;whiteSpace=wrap;gliffyId=275;" parent="a38BfnecuPuGl3UTYQXL-46" vertex="1">
          <mxGeometry width="205" height="40" as="geometry" />
        </mxCell>
        <mxCell id="a38BfnecuPuGl3UTYQXL-48" value="&lt;div style=&quot;width: 202.0px;height:auto;word-break: break-word;&quot;&gt;&lt;div align=&quot;left&quot;&gt;&lt;span style=&quot;text-decoration: none; line-height: normal; line-height: normal;&quot;&gt;&amp;nbsp;&lt;/span&gt;&lt;span style=&quot;line-height: normal; line-height: normal;&quot;&gt;pipeline_name(P)&lt;/span&gt;&lt;/div&gt;&lt;div align=&quot;left&quot;&gt;...&lt;/div&gt;&lt;div align=&quot;left&quot;&gt;&lt;/div&gt;&lt;div align=&quot;left&quot;&gt;&lt;/div&gt;&lt;/div&gt;" style="shape=rect;shadow=1;strokeWidth=2;fillColor=#FFFFFF;strokeColor=#000000;opacity=100.0;html=1;nl2Br=0;verticalAlign=top;align=left;spacingLeft=0.0;spacingRight=0;spacingTop=-5.0;spacingBottom=2;whiteSpace=wrap;gliffyId=277;" parent="a38BfnecuPuGl3UTYQXL-46" vertex="1">
          <mxGeometry y="40" width="205" height="40" as="geometry" />
        </mxCell>
        <mxCell id="a38BfnecuPuGl3UTYQXL-49" style="shape=filledEdge;strokeWidth=2;strokeColor=#000000;fillColor=none;startArrow=none;startFill=0;startSize=6;endArrow=open;endFill=0;endSize=10;rounded=1;gliffyId=15;edgeStyle=orthogonalEdgeStyle;" parent="1" source="a38BfnecuPuGl3UTYQXL-37" target="a38BfnecuPuGl3UTYQXL-31" edge="1">
          <mxGeometry width="100" height="100" relative="1" as="geometry">
            <Array as="points">
              <mxPoint x="320" y="387" />
              <mxPoint x="320" y="432" />
              <mxPoint x="320" y="477" />
              <mxPoint x="320" y="522" />
            </Array>
          </mxGeometry>
        </mxCell>
        <mxCell id="a38BfnecuPuGl3UTYQXL-50" style="shape=filledEdge;strokeWidth=2;strokeColor=#000000;fillColor=none;startArrow=none;startFill=0;startSize=6;endArrow=open;endFill=0;endSize=10;rounded=1;gliffyId=285;edgeStyle=orthogonalEdgeStyle;" parent="1" source="a38BfnecuPuGl3UTYQXL-25" target="a38BfnecuPuGl3UTYQXL-34" edge="1">
          <mxGeometry width="100" height="100" relative="1" as="geometry">
            <Array as="points">
              <mxPoint x="1013" y="359" />
              <mxPoint x="1013" y="459.5" />
              <mxPoint x="975" y="459.5" />
              <mxPoint x="975" y="560" />
            </Array>
          </mxGeometry>
        </mxCell>
        <mxCell id="a38BfnecuPuGl3UTYQXL-51" style="shape=filledEdge;strokeWidth=2;strokeColor=#000000;fillColor=none;startArrow=none;startFill=0;startSize=6;endArrow=open;endFill=0;endSize=10;rounded=1;gliffyId=156;edgeStyle=orthogonalEdgeStyle;entryX=0.5;entryY=0;entryDx=0;entryDy=0;" parent="1" source="a38BfnecuPuGl3UTYQXL-40" target="a38BfnecuPuGl3UTYQXL-44" edge="1">
          <mxGeometry width="100" height="100" relative="1" as="geometry">
            <Array as="points" />
            <mxPoint x="90.05882352941171" y="489.9999999999998" as="targetPoint" />
          </mxGeometry>
        </mxCell>
        <mxCell id="a38BfnecuPuGl3UTYQXL-52" style="shape=filledEdge;strokeWidth=2;strokeColor=#000000;fillColor=none;startArrow=none;startFill=0;startSize=6;endArrow=open;endFill=0;endSize=10;rounded=1;html=1;nl2Br=0;gliffyId=254;edgeStyle=orthogonalEdgeStyle;" parent="1" source="a38BfnecuPuGl3UTYQXL-40" target="a38BfnecuPuGl3UTYQXL-31" edge="1">
          <mxGeometry width="100" height="100" relative="1" as="geometry">
            <Array as="points">
              <mxPoint x="90" y="387" />
              <mxPoint x="90" y="454.5" />
              <mxPoint x="320" y="454.5" />
              <mxPoint x="320" y="522" />
            </Array>
          </mxGeometry>
        </mxCell>
        <mxCell id="a38BfnecuPuGl3UTYQXL-53" value="&lt;div style=&#39;width: 89.0469px;height:auto;word-break: break-word;&#39;&gt;&lt;div align=&quot;center&quot;&gt;&lt;span style=&quot;font-family: Arial; font-size: 12px; line-height: 0;&quot;&gt;&lt;span style=&quot;line-height: 14px;&quot; class=&quot;&quot;&gt;field_comment&lt;/span&gt;&lt;/span&gt;&lt;/div&gt;&lt;div align=&quot;center&quot;&gt;&lt;span style=&quot;font-family: Arial; font-size: 12px; line-height: 0;&quot;&gt;&lt;span style=&quot;line-height: 14px;&quot; class=&quot;&quot;&gt;field_type&lt;/span&gt;&lt;/span&gt;&lt;/div&gt;&lt;/div&gt;" style="text;html=1;nl2Br=0;labelBackgroundColor=#FFFFFF;html=1;nl2Br=0;verticalAlign=middle;align=center;spacingLeft=0.0;spacingRight=0;gliffyId=260;" parent="a38BfnecuPuGl3UTYQXL-52" vertex="1">
          <mxGeometry x="0.06067970224190411" relative="1" as="geometry">
            <mxPoint as="offset" />
          </mxGeometry>
        </mxCell>
        <mxCell id="a38BfnecuPuGl3UTYQXL-56" style="shape=filledEdge;strokeWidth=2;strokeColor=#000000;fillColor=none;startArrow=none;startFill=0;startSize=6;endArrow=open;endFill=0;endSize=10;rounded=1;html=1;nl2Br=0;gliffyId=173;edgeStyle=orthogonalEdgeStyle;" parent="1" source="a38BfnecuPuGl3UTYQXL-1" target="a38BfnecuPuGl3UTYQXL-134" edge="1">
          <mxGeometry width="100" height="100" relative="1" as="geometry">
            <Array as="points">
              <mxPoint x="515" y="540" />
              <mxPoint x="800" y="540" />
            </Array>
          </mxGeometry>
        </mxCell>
        <mxCell id="a38BfnecuPuGl3UTYQXL-57" value="&lt;div style=&#39;width: 58.3594px;height:auto;word-break: break-word;&#39;&gt;&lt;div align=&quot;center&quot;&gt;&lt;span style=&quot;font-family: Arial; font-size: 12px; line-height: 14px;&quot;&gt;table list&amp;nbsp;&lt;/span&gt;&lt;/div&gt;&lt;/div&gt;" style="text;html=1;nl2Br=0;labelBackgroundColor=#FFFFFF;html=1;nl2Br=0;verticalAlign=middle;align=center;spacingLeft=0.0;spacingRight=0;gliffyId=174;" parent="a38BfnecuPuGl3UTYQXL-56" vertex="1">
          <mxGeometry x="0.38818675563060157" relative="1" as="geometry">
            <mxPoint x="-45" y="-131" as="offset" />
          </mxGeometry>
        </mxCell>
        <mxCell id="a38BfnecuPuGl3UTYQXL-58" style="shape=filledEdge;strokeWidth=2;strokeColor=#000000;fillColor=none;startArrow=none;startFill=0;startSize=6;endArrow=open;endFill=0;endSize=10;rounded=1;html=1;nl2Br=0;gliffyId=286;edgeStyle=orthogonalEdgeStyle;" parent="1" source="a38BfnecuPuGl3UTYQXL-1" target="a38BfnecuPuGl3UTYQXL-34" edge="1">
          <mxGeometry width="100" height="100" relative="1" as="geometry">
            <Array as="points">
              <mxPoint x="515" y="401" />
              <mxPoint x="515" y="480.5" />
              <mxPoint x="975" y="480.5" />
              <mxPoint x="975" y="560" />
            </Array>
          </mxGeometry>
        </mxCell>
        <mxCell id="a38BfnecuPuGl3UTYQXL-59" value="&lt;div style=&#39;width: 95.0469px;height:auto;word-break: break-word;&#39;&gt;&lt;div align=&quot;center&quot;&gt;&lt;span style=&quot;font-family: Arial; font-size: 12px; line-height: 14px;&quot;&gt;hub key column&lt;/span&gt;&lt;/div&gt;&lt;/div&gt;" style="text;html=1;nl2Br=0;labelBackgroundColor=#FFFFFF;html=1;nl2Br=0;verticalAlign=middle;align=center;spacingLeft=0.0;spacingRight=0;gliffyId=287;" parent="a38BfnecuPuGl3UTYQXL-58" vertex="1">
          <mxGeometry x="0.46231016244870227" relative="1" as="geometry">
            <mxPoint as="offset" />
          </mxGeometry>
        </mxCell>
        <mxCell id="a38BfnecuPuGl3UTYQXL-60" style="shape=filledEdge;strokeWidth=2;strokeColor=#000000;fillColor=none;startArrow=none;startFill=0;startSize=6;endArrow=open;endFill=0;endSize=10;rounded=1;gliffyId=317;edgeStyle=orthogonalEdgeStyle;" parent="1" source="a38BfnecuPuGl3UTYQXL-16" target="a38BfnecuPuGl3UTYQXL-7" edge="1">
          <mxGeometry width="100" height="100" relative="1" as="geometry" />
        </mxCell>
        <mxCell id="a38BfnecuPuGl3UTYQXL-61" style="shape=filledEdge;strokeWidth=2;strokeColor=#000000;fillColor=none;startArrow=none;startFill=0;startSize=6;endArrow=open;endFill=0;endSize=10;rounded=1;gliffyId=319;edgeStyle=orthogonalEdgeStyle;" parent="1" source="a38BfnecuPuGl3UTYQXL-24" target="a38BfnecuPuGl3UTYQXL-7" edge="1">
          <mxGeometry width="100" height="100" relative="1" as="geometry">
            <mxPoint x="1810" y="457.0000000000002" as="sourcePoint" />
          </mxGeometry>
        </mxCell>
        <mxCell id="a38BfnecuPuGl3UTYQXL-62" style="shape=filledEdge;strokeWidth=2;strokeColor=#000000;fillColor=none;startArrow=none;startFill=0;startSize=6;endArrow=open;endFill=0;endSize=10;rounded=1;gliffyId=343;edgeStyle=orthogonalEdgeStyle;entryX=0.5;entryY=0;entryDx=0;entryDy=0;" parent="1" target="a38BfnecuPuGl3UTYQXL-11" edge="1">
          <mxGeometry width="100" height="100" relative="1" as="geometry">
            <mxPoint x="2035" y="1541.0000000000005" as="sourcePoint" />
          </mxGeometry>
        </mxCell>
        <mxCell id="a38BfnecuPuGl3UTYQXL-63" style="shape=filledEdge;strokeWidth=2;strokeColor=#000000;fillColor=none;startArrow=none;startFill=0;startSize=6;endArrow=open;endFill=0;endSize=10;rounded=1;gliffyId=321;edgeStyle=orthogonalEdgeStyle;" parent="1" source="a38BfnecuPuGl3UTYQXL-19" target="a38BfnecuPuGl3UTYQXL-7" edge="1">
          <mxGeometry width="100" height="100" relative="1" as="geometry" />
        </mxCell>
        <mxCell id="a38BfnecuPuGl3UTYQXL-64" style="shape=filledEdge;strokeWidth=2;strokeColor=#000000;fillColor=none;startArrow=none;startFill=0;startSize=6;endArrow=open;endFill=0;endSize=10;rounded=1;html=1;nl2Br=0;gliffyId=132;edgeStyle=orthogonalEdgeStyle;" parent="1" source="a38BfnecuPuGl3UTYQXL-105" target="a38BfnecuPuGl3UTYQXL-108" edge="1">
          <mxGeometry width="100" height="100" relative="1" as="geometry">
            <Array as="points">
              <mxPoint x="525" y="1120" />
              <mxPoint x="1155" y="1120" />
            </Array>
          </mxGeometry>
        </mxCell>
        <mxCell id="a38BfnecuPuGl3UTYQXL-65" value="&lt;div style=&#39;width: 134.859px;height:auto;word-break: break-word;&#39;&gt;&lt;div align=&quot;center&quot;&gt;&lt;span style=&quot;font-family: Arial; font-size: 12px; line-height: 0;&quot;&gt;&lt;span style=&quot;line-height: 14px;&quot;&gt;key, business_key and&amp;nbsp;&lt;/span&gt;&lt;/span&gt;&lt;/div&gt;&lt;div align=&quot;center&quot;&gt;&lt;span style=&quot;line-height: normal; line-height: normal;&quot;&gt;content columns&lt;/span&gt;&lt;/div&gt;&lt;/div&gt;" style="text;html=1;nl2Br=0;labelBackgroundColor=#FFFFFF;html=1;nl2Br=0;verticalAlign=middle;align=center;spacingLeft=0.0;spacingRight=0;gliffyId=149;" parent="a38BfnecuPuGl3UTYQXL-64" vertex="1">
          <mxGeometry x="0.39784404539471807" relative="1" as="geometry">
            <mxPoint as="offset" />
          </mxGeometry>
        </mxCell>
        <mxCell id="a38BfnecuPuGl3UTYQXL-66" style="shape=filledEdge;strokeWidth=2;strokeColor=#000000;fillColor=none;startArrow=none;startFill=0;startSize=6;endArrow=open;endFill=0;endSize=10;rounded=1;html=1;nl2Br=0;gliffyId=130;edgeStyle=orthogonalEdgeStyle;" parent="1" source="a38BfnecuPuGl3UTYQXL-34" target="a38BfnecuPuGl3UTYQXL-108" edge="1">
          <mxGeometry width="100" height="100" relative="1" as="geometry">
            <Array as="points">
              <mxPoint x="975" y="1090" />
              <mxPoint x="1155" y="1090" />
            </Array>
          </mxGeometry>
        </mxCell>
        <mxCell id="a38BfnecuPuGl3UTYQXL-67" value="&lt;div style=&#39;width: 101.7344px;height:auto;word-break: break-word;&#39;&gt;&lt;div align=&quot;center&quot;&gt;&lt;span style=&quot;font-family: Arial; font-size: 12px; line-height: 0;&quot;&gt;&lt;span style=&quot;line-height: 14px;&quot; class=&quot;&quot;&gt;link parent tables&lt;/span&gt;&lt;/span&gt;&lt;/div&gt;&lt;/div&gt;" style="text;html=1;nl2Br=0;labelBackgroundColor=#FFFFFF;html=1;nl2Br=0;verticalAlign=middle;align=center;spacingLeft=0.0;spacingRight=0;gliffyId=131;" parent="a38BfnecuPuGl3UTYQXL-66" vertex="1">
          <mxGeometry x="0.31939665682158647" relative="1" as="geometry">
            <mxPoint as="offset" />
          </mxGeometry>
        </mxCell>
        <mxCell id="a38BfnecuPuGl3UTYQXL-68" style="shape=filledEdge;strokeWidth=2;strokeColor=#000000;fillColor=none;startArrow=none;startFill=0;startSize=6;endArrow=open;endFill=0;endSize=10;rounded=1;html=1;nl2Br=0;gliffyId=311;edgeStyle=orthogonalEdgeStyle;" parent="1" source="a38BfnecuPuGl3UTYQXL-34" target="a38BfnecuPuGl3UTYQXL-7" edge="1">
          <mxGeometry width="100" height="100" relative="1" as="geometry">
            <Array as="points">
              <mxPoint x="975" y="680" />
              <mxPoint x="1749" y="680" />
            </Array>
          </mxGeometry>
        </mxCell>
        <mxCell id="a38BfnecuPuGl3UTYQXL-69" value="&lt;div style=&#39;width: 101.7344px;height:auto;word-break: break-word;&#39;&gt;&lt;div align=&quot;center&quot;&gt;&lt;span style=&quot;font-family: Arial; font-size: 12px; line-height: 0;&quot;&gt;&lt;span style=&quot;line-height: 14px;&quot; class=&quot;&quot;&gt;link parent tables&lt;/span&gt;&lt;/span&gt;&lt;/div&gt;&lt;/div&gt;" style="text;html=1;nl2Br=0;labelBackgroundColor=#FFFFFF;html=1;nl2Br=0;verticalAlign=middle;align=center;spacingLeft=0.0;spacingRight=0;gliffyId=312;" parent="a38BfnecuPuGl3UTYQXL-68" vertex="1">
          <mxGeometry x="-0.08173800271935361" relative="1" as="geometry">
            <mxPoint as="offset" />
          </mxGeometry>
        </mxCell>
        <mxCell id="a38BfnecuPuGl3UTYQXL-70" style="shape=filledEdge;strokeWidth=2;strokeColor=#000000;fillColor=none;startArrow=none;startFill=0;startSize=6;endArrow=open;endFill=0;endSize=10;rounded=1;html=1;nl2Br=0;gliffyId=170;edgeStyle=orthogonalEdgeStyle;" parent="1" source="a38BfnecuPuGl3UTYQXL-34" target="a38BfnecuPuGl3UTYQXL-134" edge="1">
          <mxGeometry width="100" height="100" relative="1" as="geometry">
            <Array as="points">
              <mxPoint x="975" y="650" />
              <mxPoint x="975" y="680" />
              <mxPoint x="800" y="680" />
              <mxPoint x="800" y="801" />
            </Array>
          </mxGeometry>
        </mxCell>
        <mxCell id="a38BfnecuPuGl3UTYQXL-71" value="&lt;div style=&#39;width: 138.391px;height:auto;word-break: break-word;&#39;&gt;&lt;div align=&quot;center&quot;&gt;&lt;span style=&quot;font-family: Arial; font-size: 12px; line-height: 0;&quot;&gt;&lt;span style=&quot;line-height: 14px;&quot;&gt;link parent tables&lt;/span&gt;&lt;/span&gt;&lt;/div&gt;&lt;div align=&quot;center&quot;&gt;&lt;span style=&quot;font-family: Arial; font-size: 12px; line-height: 0;&quot;&gt;&lt;span style=&quot;line-height: 14px;&quot;&gt;(inlc hierarchy relations)&lt;/span&gt;&lt;/span&gt;&lt;/div&gt;&lt;/div&gt;" style="text;html=1;nl2Br=0;labelBackgroundColor=#FFFFFF;html=1;nl2Br=0;verticalAlign=middle;align=center;spacingLeft=0.0;spacingRight=0;gliffyId=171;" parent="a38BfnecuPuGl3UTYQXL-70" vertex="1">
          <mxGeometry x="-0.24655682028689663" relative="1" as="geometry">
            <mxPoint x="45" as="offset" />
          </mxGeometry>
        </mxCell>
        <mxCell id="a38BfnecuPuGl3UTYQXL-72" style="shape=filledEdge;strokeWidth=2;strokeColor=#000000;fillColor=none;startArrow=none;startFill=0;startSize=6;endArrow=open;endFill=0;endSize=10;rounded=1;html=1;nl2Br=0;gliffyId=180;edgeStyle=orthogonalEdgeStyle;" parent="1" source="a38BfnecuPuGl3UTYQXL-134" target="a38BfnecuPuGl3UTYQXL-137" edge="1">
          <mxGeometry width="100" height="100" relative="1" as="geometry">
            <Array as="points">
              <mxPoint x="800" y="1090" />
              <mxPoint x="765" y="1090" />
            </Array>
          </mxGeometry>
        </mxCell>
        <mxCell id="a38BfnecuPuGl3UTYQXL-73" value="&lt;div style=&#39;width: 150.406px;height:auto;word-break: break-word;&#39;&gt;&lt;div align=&quot;center&quot;&gt;&lt;span style=&quot;font-family: Arial; font-size: 12px; line-height: 14px;&quot;&gt;pipielines ,process blocks&amp;nbsp;&lt;span style=&quot;text-decoration: none; line-height: normal;&quot;&gt;&lt;br&gt;&lt;/span&gt;&lt;/span&gt;&lt;/div&gt;&lt;div align=&quot;center&quot;&gt;&lt;span style=&quot;font-family: Arial; font-size: 12px; line-height: 14px;&quot;&gt;tables&lt;/span&gt;&lt;/div&gt;&lt;/div&gt;" style="text;html=1;nl2Br=0;labelBackgroundColor=#FFFFFF;html=1;nl2Br=0;verticalAlign=middle;align=center;spacingLeft=0.0;spacingRight=0;gliffyId=181;" parent="a38BfnecuPuGl3UTYQXL-72" vertex="1">
          <mxGeometry x="-0.1669820050570695" relative="1" as="geometry">
            <mxPoint x="25" y="-14" as="offset" />
          </mxGeometry>
        </mxCell>
        <mxCell id="a38BfnecuPuGl3UTYQXL-74" style="shape=filledEdge;strokeWidth=2;strokeColor=#000000;fillColor=none;startArrow=none;startFill=0;startSize=6;endArrow=open;endFill=0;endSize=10;rounded=1;html=1;nl2Br=0;gliffyId=182;edgeStyle=orthogonalEdgeStyle;" parent="1" source="a38BfnecuPuGl3UTYQXL-105" target="a38BfnecuPuGl3UTYQXL-137" edge="1">
          <mxGeometry width="100" height="100" relative="1" as="geometry">
            <Array as="points">
              <mxPoint x="525" y="1140" />
              <mxPoint x="765" y="1140" />
            </Array>
          </mxGeometry>
        </mxCell>
        <mxCell id="a38BfnecuPuGl3UTYQXL-75" value="&lt;div style=&#39;width: 71.7031px;height:auto;word-break: break-word;&#39;&gt;&lt;div align=&quot;center&quot;&gt;&lt;span style=&quot;font-family: Arial; font-size: 12px; line-height: 14px;&quot;&gt;dv columns&lt;span style=&quot;text-decoration: none;&quot; class=&quot; line-height: normal;&quot;&gt;&lt;br&gt;&lt;/span&gt;&lt;/span&gt;&lt;/div&gt;&lt;/div&gt;" style="text;html=1;nl2Br=0;labelBackgroundColor=#FFFFFF;html=1;nl2Br=0;verticalAlign=middle;align=center;spacingLeft=0.0;spacingRight=0;gliffyId=183;" parent="a38BfnecuPuGl3UTYQXL-74" vertex="1">
          <mxGeometry x="0.3334456249467175" relative="1" as="geometry">
            <mxPoint as="offset" />
          </mxGeometry>
        </mxCell>
        <mxCell id="a38BfnecuPuGl3UTYQXL-76" style="shape=filledEdge;strokeWidth=2;strokeColor=#000000;fillColor=none;startArrow=none;startFill=0;startSize=6;endArrow=open;endFill=0;endSize=10;rounded=1;html=1;nl2Br=0;gliffyId=184;edgeStyle=orthogonalEdgeStyle;exitX=0.5;exitY=1;exitDx=0;exitDy=0;" parent="1" source="5YA5uJwcRerIdLzBJXsX-6" target="a38BfnecuPuGl3UTYQXL-140" edge="1">
          <mxGeometry width="100" height="100" relative="1" as="geometry">
            <mxPoint x="760" y="1510" as="sourcePoint" />
          </mxGeometry>
        </mxCell>
        <mxCell id="a38BfnecuPuGl3UTYQXL-77" value="&lt;div style=&#39;width: 200.438px;height:auto;word-break: break-word;&#39;&gt;&lt;div align=&quot;center&quot;&gt;&lt;span style=&quot;font-family: Arial; font-size: 12px; line-height: 14px;&quot;&gt;distinct stage columns over pipeline&lt;span style=&quot;text-decoration: none; line-height: normal;&quot;&gt;&lt;br&gt;&lt;/span&gt;&lt;/span&gt;&lt;/div&gt;&lt;/div&gt;" style="text;html=1;nl2Br=0;labelBackgroundColor=#FFFFFF;html=1;nl2Br=0;verticalAlign=middle;align=center;spacingLeft=0.0;spacingRight=0;gliffyId=185;" parent="a38BfnecuPuGl3UTYQXL-76" vertex="1">
          <mxGeometry x="0.326086956521739" relative="1" as="geometry">
            <mxPoint y="5" as="offset" />
          </mxGeometry>
        </mxCell>
        <mxCell id="a38BfnecuPuGl3UTYQXL-78" value="&lt;div style=&quot;width: 147.0px;height:auto;word-break: break-word;&quot;&gt;&lt;div align=&quot;center&quot;&gt;&lt;span style=&quot;font-family: Arial; font-size: 12px; line-height: 0;&quot;&gt;&lt;span style=&quot;line-height: 14px;&quot; class=&quot;&quot;&gt;r_0_5_0&lt;/span&gt;&lt;/span&gt;&lt;/div&gt;&lt;/div&gt;" style="text;html=1;nl2Br=0;html=1;nl2Br=0;verticalAlign=middle;align=center;spacingLeft=0.0;spacingRight=0;whiteSpace=wrap;gliffyId=353;fontColor=#999999;" parent="1" vertex="1">
          <mxGeometry x="630" y="190" width="150" height="14" as="geometry" />
        </mxCell>
        <mxCell id="a38BfnecuPuGl3UTYQXL-79" style="shape=filledEdge;strokeWidth=2;strokeColor=#000000;fillColor=none;startArrow=none;startFill=0;startSize=6;endArrow=open;endFill=0;endSize=10;rounded=1;html=1;nl2Br=0;gliffyId=191;edgeStyle=orthogonalEdgeStyle;exitX=0.5;exitY=1;exitDx=0;exitDy=0;" parent="1" source="5YA5uJwcRerIdLzBJXsX-6" target="a38BfnecuPuGl3UTYQXL-111" edge="1">
          <mxGeometry width="100" height="100" relative="1" as="geometry">
            <mxPoint x="660" y="1500" as="sourcePoint" />
            <Array as="points">
              <mxPoint x="720" y="1660" />
              <mxPoint x="995" y="1660" />
            </Array>
          </mxGeometry>
        </mxCell>
        <mxCell id="a38BfnecuPuGl3UTYQXL-80" value="&lt;div style=&#39;width: 163.094px;height:auto;word-break: break-word;&#39;&gt;&lt;div align=&quot;center&quot;&gt;&lt;span style=&quot;font-family: Arial; font-size: 12px; line-height: 14px;&quot;&gt;field to dv column&amp;nbsp; mappings&lt;span style=&quot;text-decoration: none; line-height: normal;&quot;&gt;&lt;br&gt;&lt;/span&gt;&lt;/span&gt;&lt;/div&gt;&lt;div align=&quot;center&quot;&gt;&lt;span style=&quot;font-family: Arial; font-size: 12px; line-height: 14px;&quot;&gt;per pipeline&lt;/span&gt;&lt;/div&gt;&lt;/div&gt;" style="text;html=1;nl2Br=0;labelBackgroundColor=#FFFFFF;html=1;nl2Br=0;verticalAlign=middle;align=center;spacingLeft=0.0;spacingRight=0;gliffyId=192;" parent="a38BfnecuPuGl3UTYQXL-79" vertex="1">
          <mxGeometry x="-0.023455974071630137" relative="1" as="geometry">
            <mxPoint x="99" as="offset" />
          </mxGeometry>
        </mxCell>
        <mxCell id="a38BfnecuPuGl3UTYQXL-81" style="shape=filledEdge;strokeWidth=2;strokeColor=#000000;fillColor=none;startArrow=none;startFill=0;startSize=6;endArrow=open;endFill=0;endSize=10;rounded=1;html=1;nl2Br=0;gliffyId=313;edgeStyle=orthogonalEdgeStyle;exitX=0.5;exitY=1;exitDx=0;exitDy=0;" parent="1" source="5YA5uJwcRerIdLzBJXsX-6" target="a38BfnecuPuGl3UTYQXL-7" edge="1">
          <mxGeometry width="100" height="100" relative="1" as="geometry" />
        </mxCell>
        <mxCell id="a38BfnecuPuGl3UTYQXL-82" value="&lt;div style=&#39;width: 163.094px;height:auto;word-break: break-word;&#39;&gt;&lt;div align=&quot;center&quot;&gt;&lt;span style=&quot;font-family: Arial; font-size: 12px; line-height: 14px;&quot;&gt;field to dv column&amp;nbsp; mappings&lt;span style=&quot;text-decoration: none; line-height: normal;&quot;&gt;&lt;br&gt;&lt;/span&gt;&lt;/span&gt;&lt;/div&gt;&lt;div align=&quot;center&quot;&gt;&lt;span style=&quot;font-family: Arial; font-size: 12px; line-height: 14px;&quot;&gt;per pipeline&lt;/span&gt;&lt;/div&gt;&lt;/div&gt;" style="text;html=1;nl2Br=0;labelBackgroundColor=#FFFFFF;html=1;nl2Br=0;verticalAlign=middle;align=center;spacingLeft=0.0;spacingRight=0;gliffyId=314;" parent="a38BfnecuPuGl3UTYQXL-81" vertex="1">
          <mxGeometry x="0.5187736317527529" relative="1" as="geometry">
            <mxPoint as="offset" />
          </mxGeometry>
        </mxCell>
        <mxCell id="a38BfnecuPuGl3UTYQXL-83" style="shape=filledEdge;strokeWidth=2;strokeColor=#000000;fillColor=none;startArrow=none;startFill=0;startSize=6;endArrow=open;endFill=0;endSize=10;rounded=1;gliffyId=340;edgeStyle=orthogonalEdgeStyle;entryX=0.5;entryY=0;entryDx=0;entryDy=0;exitX=0.5;exitY=1;exitDx=0;exitDy=0;" parent="1" source="5YA5uJwcRerIdLzBJXsX-6" target="a38BfnecuPuGl3UTYQXL-11" edge="1">
          <mxGeometry width="100" height="100" relative="1" as="geometry">
            <Array as="points">
              <mxPoint x="720" y="1590" />
              <mxPoint x="1939" y="1590" />
            </Array>
          </mxGeometry>
        </mxCell>
        <mxCell id="a38BfnecuPuGl3UTYQXL-84" style="shape=filledEdge;strokeWidth=2;strokeColor=#000000;fillColor=none;startArrow=none;startFill=0;startSize=6;endArrow=open;endFill=0;endSize=10;rounded=1;gliffyId=342;edgeStyle=orthogonalEdgeStyle;entryX=0.5;entryY=0;entryDx=0;entryDy=0;" parent="1" source="a38BfnecuPuGl3UTYQXL-7" target="a38BfnecuPuGl3UTYQXL-11" edge="1">
          <mxGeometry width="100" height="100" relative="1" as="geometry">
            <mxPoint x="1600" y="1730" as="targetPoint" />
          </mxGeometry>
        </mxCell>
        <mxCell id="a38BfnecuPuGl3UTYQXL-85" style="shape=filledEdge;strokeWidth=2;strokeColor=#000000;fillColor=none;startArrow=none;startFill=0;startSize=6;endArrow=open;endFill=0;endSize=10;rounded=1;html=1;nl2Br=0;gliffyId=193;edgeStyle=orthogonalEdgeStyle;exitX=0.5;exitY=1;exitDx=0;exitDy=0;" parent="1" source="a38BfnecuPuGl3UTYQXL-110" target="a38BfnecuPuGl3UTYQXL-111" edge="1">
          <mxGeometry width="100" height="100" relative="1" as="geometry">
            <Array as="points">
              <mxPoint x="1095" y="1380" />
              <mxPoint x="995" y="1380" />
            </Array>
          </mxGeometry>
        </mxCell>
        <mxCell id="a38BfnecuPuGl3UTYQXL-86" value="&lt;div style=&#39;width: 105.7188px;height:auto;word-break: break-word;&#39;&gt;&lt;div align=&quot;center&quot;&gt;&lt;span style=&quot;font-family: Arial; font-size: 12px; line-height: 14px;&quot;&gt;mapping per&lt;span style=&quot;text-decoration: none; line-height: normal;&quot;&gt;&lt;br&gt;&lt;/span&gt;&lt;/span&gt;&lt;/div&gt;&lt;div align=&quot;center&quot;&gt;&lt;span style=&quot;font-family: Arial; font-size: 12px; line-height: 14px;&quot;&gt;hash in DV model&lt;/span&gt;&lt;/div&gt;&lt;/div&gt;" style="text;html=1;nl2Br=0;labelBackgroundColor=#FFFFFF;html=1;nl2Br=0;verticalAlign=middle;align=center;spacingLeft=0.0;spacingRight=0;gliffyId=194;" parent="a38BfnecuPuGl3UTYQXL-85" vertex="1">
          <mxGeometry x="-0.6510416666666667" relative="1" as="geometry">
            <mxPoint x="-40" y="312" as="offset" />
          </mxGeometry>
        </mxCell>
        <mxCell id="a38BfnecuPuGl3UTYQXL-87" style="shape=filledEdge;strokeWidth=2;strokeColor=#000000;fillColor=none;startArrow=none;startFill=0;startSize=6;endArrow=open;endFill=0;endSize=10;rounded=1;html=1;nl2Br=0;gliffyId=28;edgeStyle=orthogonalEdgeStyle;entryX=0.5;entryY=0;entryDx=0;entryDy=0;" parent="1" source="a38BfnecuPuGl3UTYQXL-1" target="a38BfnecuPuGl3UTYQXL-148" edge="1">
          <mxGeometry width="100" height="100" relative="1" as="geometry">
            <mxPoint x="410" y="850" as="targetPoint" />
          </mxGeometry>
        </mxCell>
        <mxCell id="a38BfnecuPuGl3UTYQXL-88" value="&lt;div style=&#39;width: 107.0625px;height:auto;word-break: break-word;&#39;&gt;&lt;div align=&quot;center&quot;&gt;&lt;span style=&quot;font-family: Arial; font-size: 12px; line-height: 0;&quot;&gt;&lt;span style=&quot;line-height: 14px;&quot;&gt;table names&amp;nbsp;&lt;/span&gt;&lt;/span&gt;&lt;/div&gt;&lt;div align=&quot;center&quot;&gt;&lt;span style=&quot;font-family: Arial; font-size: 12px; line-height: 0;&quot;&gt;&lt;span style=&quot;line-height: 14px;&quot;&gt;sat parent relation&lt;/span&gt;&lt;/span&gt;&lt;/div&gt;&lt;div align=&quot;center&quot;&gt;&lt;span style=&quot;font-family: Arial; font-size: 12px; line-height: 0;&quot;&gt;&lt;span style=&quot;line-height: 14px;&quot;&gt;diff hash columns&lt;/span&gt;&lt;/span&gt;&lt;/div&gt;&lt;div align=&quot;center&quot;&gt;&lt;span style=&quot;font-family: Arial; font-size: 12px; line-height: 0;&quot;&gt;&lt;span style=&quot;line-height: 14px;&quot;&gt;hash columns&lt;/span&gt;&lt;/span&gt;&lt;/div&gt;&lt;/div&gt;" style="text;html=1;nl2Br=0;labelBackgroundColor=#FFFFFF;html=1;nl2Br=0;verticalAlign=middle;align=center;spacingLeft=0.0;spacingRight=0;gliffyId=96;" parent="a38BfnecuPuGl3UTYQXL-87" vertex="1">
          <mxGeometry x="0.5748792270531402" relative="1" as="geometry">
            <mxPoint y="8" as="offset" />
          </mxGeometry>
        </mxCell>
        <mxCell id="a38BfnecuPuGl3UTYQXL-89" style="shape=filledEdge;strokeWidth=2;strokeColor=#000000;fillColor=none;startArrow=none;startFill=0;startSize=6;endArrow=open;endFill=0;endSize=10;rounded=1;html=1;nl2Br=0;gliffyId=266;edgeStyle=orthogonalEdgeStyle;entryX=0.5;entryY=0;entryDx=0;entryDy=0;" parent="1" source="a38BfnecuPuGl3UTYQXL-34" target="a38BfnecuPuGl3UTYQXL-148" edge="1">
          <mxGeometry width="100" height="100" relative="1" as="geometry">
            <Array as="points">
              <mxPoint x="975" y="750" />
              <mxPoint x="475" y="750" />
            </Array>
          </mxGeometry>
        </mxCell>
        <mxCell id="a38BfnecuPuGl3UTYQXL-90" value="&lt;div style=&#39;width: 109.0625px;height:auto;word-break: break-word;&#39;&gt;&lt;div align=&quot;center&quot;&gt;&lt;span style=&quot;font-family: Arial; font-size: 12px; line-height: 0;&quot;&gt;&lt;span style=&quot;line-height: 14px;&quot;&gt;link parent relation&lt;/span&gt;&lt;/span&gt;&lt;/div&gt;&lt;/div&gt;" style="text;html=1;nl2Br=0;labelBackgroundColor=#FFFFFF;html=1;nl2Br=0;verticalAlign=middle;align=center;spacingLeft=0.0;spacingRight=0;gliffyId=267;" parent="a38BfnecuPuGl3UTYQXL-89" vertex="1">
          <mxGeometry x="0.5196710811652681" relative="1" as="geometry">
            <mxPoint x="57" as="offset" />
          </mxGeometry>
        </mxCell>
        <mxCell id="a38BfnecuPuGl3UTYQXL-91" style="shape=filledEdge;strokeWidth=2;strokeColor=#000000;fillColor=none;startArrow=none;startFill=0;startSize=6;endArrow=open;endFill=0;endSize=10;rounded=1;html=1;nl2Br=0;gliffyId=134;edgeStyle=orthogonalEdgeStyle;" parent="1" source="a38BfnecuPuGl3UTYQXL-1" target="a38BfnecuPuGl3UTYQXL-108" edge="1">
          <mxGeometry width="100" height="100" relative="1" as="geometry">
            <Array as="points">
              <mxPoint x="515" y="520" />
              <mxPoint x="1155" y="520" />
            </Array>
          </mxGeometry>
        </mxCell>
        <mxCell id="a38BfnecuPuGl3UTYQXL-92" value="&lt;div style=&#39;width: 86.375px;height:auto;word-break: break-word;&#39;&gt;&lt;div align=&quot;center&quot;&gt;&lt;span style=&quot;font-family: Arial; font-size: 12px; line-height: 0;&quot;&gt;&lt;span style=&quot;line-height: 14px;&quot;&gt;link table keys&lt;/span&gt;&lt;/span&gt;&lt;/div&gt;&lt;/div&gt;" style="text;html=1;nl2Br=0;labelBackgroundColor=#FFFFFF;html=1;nl2Br=0;verticalAlign=middle;align=center;spacingLeft=0.0;spacingRight=0;gliffyId=135;" parent="a38BfnecuPuGl3UTYQXL-91" vertex="1">
          <mxGeometry x="0.7397674488028616" relative="1" as="geometry">
            <mxPoint as="offset" />
          </mxGeometry>
        </mxCell>
        <mxCell id="a38BfnecuPuGl3UTYQXL-93" style="shape=filledEdge;strokeWidth=2;strokeColor=#000000;fillColor=none;startArrow=none;startFill=0;startSize=6;endArrow=open;endFill=0;endSize=10;rounded=1;html=1;nl2Br=0;gliffyId=315;edgeStyle=orthogonalEdgeStyle;" parent="1" source="a38BfnecuPuGl3UTYQXL-1" target="a38BfnecuPuGl3UTYQXL-7" edge="1">
          <mxGeometry width="100" height="100" relative="1" as="geometry">
            <Array as="points">
              <mxPoint x="490" y="450" />
              <mxPoint x="1749" y="450" />
            </Array>
          </mxGeometry>
        </mxCell>
        <mxCell id="a38BfnecuPuGl3UTYQXL-94" value="&lt;div style=&#39;width: 102.3906px;height:auto;word-break: break-word;&#39;&gt;&lt;div align=&quot;center&quot;&gt;&lt;span style=&quot;font-family: Arial; font-size: 12px; line-height: 0;&quot;&gt;&lt;span style=&quot;line-height: 14px;&quot;&gt;parents and keys&lt;/span&gt;&lt;/span&gt;&lt;/div&gt;&lt;/div&gt;" style="text;html=1;nl2Br=0;labelBackgroundColor=#FFFFFF;html=1;nl2Br=0;verticalAlign=middle;align=center;spacingLeft=0.0;spacingRight=0;gliffyId=316;" parent="a38BfnecuPuGl3UTYQXL-93" vertex="1">
          <mxGeometry x="0.04069720980201885" relative="1" as="geometry">
            <mxPoint y="-20" as="offset" />
          </mxGeometry>
        </mxCell>
        <mxCell id="a38BfnecuPuGl3UTYQXL-95" style="shape=filledEdge;strokeWidth=2;strokeColor=#000000;fillColor=none;startArrow=none;startFill=0;startSize=6;endArrow=open;endFill=0;endSize=10;rounded=1;html=1;nl2Br=0;gliffyId=29;edgeStyle=orthogonalEdgeStyle;entryX=0.5;entryY=0;entryDx=0;entryDy=0;" parent="1" source="a38BfnecuPuGl3UTYQXL-31" target="a38BfnecuPuGl3UTYQXL-148" edge="1">
          <mxGeometry width="100" height="100" relative="1" as="geometry">
            <Array as="points">
              <mxPoint x="320" y="750" />
              <mxPoint x="475" y="750" />
            </Array>
          </mxGeometry>
        </mxCell>
        <mxCell id="a38BfnecuPuGl3UTYQXL-96" value="&lt;div style=&#39;width: 82.375px;height:auto;word-break: break-word;&#39;&gt;&lt;div align=&quot;center&quot;&gt;&lt;span style=&quot;font-family: Arial; font-size: 12px; line-height: 0;&quot;&gt;&lt;span style=&quot;line-height: 14px;&quot;&gt;data columns&lt;/span&gt;&lt;/span&gt;&lt;/div&gt;&lt;/div&gt;" style="text;html=1;nl2Br=0;labelBackgroundColor=#FFFFFF;html=1;nl2Br=0;verticalAlign=middle;align=center;spacingLeft=0.0;spacingRight=0;gliffyId=98;" parent="a38BfnecuPuGl3UTYQXL-95" vertex="1">
          <mxGeometry x="0.39501705080176674" relative="1" as="geometry">
            <mxPoint x="-16" y="-1" as="offset" />
          </mxGeometry>
        </mxCell>
        <mxCell id="a38BfnecuPuGl3UTYQXL-154" style="edgeStyle=orthogonalEdgeStyle;rounded=0;orthogonalLoop=1;jettySize=auto;html=1;exitX=0;exitY=0;exitDx=0;exitDy=0;" parent="a38BfnecuPuGl3UTYQXL-95" source="a38BfnecuPuGl3UTYQXL-96" target="a38BfnecuPuGl3UTYQXL-96" edge="1">
          <mxGeometry relative="1" as="geometry" />
        </mxCell>
        <mxCell id="a38BfnecuPuGl3UTYQXL-155" style="edgeStyle=orthogonalEdgeStyle;rounded=0;orthogonalLoop=1;jettySize=auto;html=1;exitX=0;exitY=0;exitDx=0;exitDy=0;" parent="a38BfnecuPuGl3UTYQXL-95" source="a38BfnecuPuGl3UTYQXL-96" target="a38BfnecuPuGl3UTYQXL-96" edge="1">
          <mxGeometry relative="1" as="geometry" />
        </mxCell>
        <mxCell id="a38BfnecuPuGl3UTYQXL-97" style="shape=filledEdge;strokeWidth=2;strokeColor=#000000;fillColor=none;startArrow=none;startFill=0;startSize=6;endArrow=open;endFill=0;endSize=10;rounded=1;html=1;nl2Br=0;gliffyId=255;edgeStyle=orthogonalEdgeStyle;" parent="1" source="a38BfnecuPuGl3UTYQXL-31" target="a38BfnecuPuGl3UTYQXL-137" edge="1">
          <mxGeometry width="100" height="100" relative="1" as="geometry">
            <Array as="points">
              <mxPoint x="320" y="1160" />
              <mxPoint x="765" y="1160" />
            </Array>
          </mxGeometry>
        </mxCell>
        <mxCell id="a38BfnecuPuGl3UTYQXL-98" value="&lt;div style=&#39;width: 39.0156px;height:auto;word-break: break-word;&#39;&gt;&lt;div align=&quot;center&quot;&gt;&lt;span style=&quot;font-family: Arial; font-size: 12px; line-height: 0;&quot;&gt;&lt;span style=&quot;line-height: 14px;&quot;&gt;fields&lt;/span&gt;&lt;/span&gt;&lt;/div&gt;&lt;/div&gt;" style="text;html=1;nl2Br=0;labelBackgroundColor=#FFFFFF;html=1;nl2Br=0;verticalAlign=middle;align=center;spacingLeft=0.0;spacingRight=0;gliffyId=256;" parent="a38BfnecuPuGl3UTYQXL-97" vertex="1">
          <mxGeometry x="0.7370996948095749" relative="1" as="geometry">
            <mxPoint as="offset" />
          </mxGeometry>
        </mxCell>
        <mxCell id="a38BfnecuPuGl3UTYQXL-99" style="shape=filledEdge;strokeWidth=2;strokeColor=#000000;fillColor=none;startArrow=none;startFill=0;startSize=6;endArrow=open;endFill=0;endSize=10;rounded=1;html=1;nl2Br=0;gliffyId=166;edgeStyle=orthogonalEdgeStyle;" parent="1" source="a38BfnecuPuGl3UTYQXL-31" target="a38BfnecuPuGl3UTYQXL-134" edge="1">
          <mxGeometry width="100" height="100" relative="1" as="geometry">
            <Array as="points">
              <mxPoint x="320" y="639" />
              <mxPoint x="320" y="670" />
              <mxPoint x="800" y="670" />
              <mxPoint x="800" y="801" />
            </Array>
          </mxGeometry>
        </mxCell>
        <mxCell id="a38BfnecuPuGl3UTYQXL-100" value="&lt;div style=&#39;width: 187.797px;height:auto;word-break: break-word;&#39;&gt;&lt;div align=&quot;center&quot;&gt;&lt;span style=&quot;font-family: Arial; font-size: 12px; line-height: 0;&quot;&gt;&lt;span style=&quot;line-height: 14px;&quot;&gt;field groups and hierarchy &lt;/span&gt;&lt;/span&gt;&lt;/div&gt;&lt;div align=&quot;center&quot;&gt;&lt;span style=&quot;font-family: Arial; font-size: 12px; line-height: 0;&quot;&gt;&lt;span style=&quot;line-height: 14px;&quot;&gt;delclarations&amp;nbsp;&lt;/span&gt;&lt;/span&gt;&lt;span style=&quot;line-height: normal; line-height: normal;&quot;&gt;used on fields&amp;nbsp;&lt;/span&gt;&lt;span style=&quot;line-height: normal; line-height: normal;&quot;&gt;when&lt;/span&gt;&lt;/div&gt;&lt;div align=&quot;center&quot;&gt;&lt;span style=&quot;line-height: normal; line-height: normal;&quot;&gt; mapped&amp;nbsp;&lt;/span&gt;&lt;span style=&quot;line-height: normal; line-height: normal;&quot;&gt;to target tables&lt;/span&gt;&lt;/div&gt;&lt;/div&gt;" style="text;html=1;nl2Br=0;labelBackgroundColor=#FFFFFF;html=1;nl2Br=0;verticalAlign=middle;align=center;spacingLeft=0.0;spacingRight=0;gliffyId=167;" parent="a38BfnecuPuGl3UTYQXL-99" vertex="1">
          <mxGeometry x="0.20213570694840022" relative="1" as="geometry">
            <mxPoint x="-94" y="-1" as="offset" />
          </mxGeometry>
        </mxCell>
        <mxCell id="a38BfnecuPuGl3UTYQXL-101" style="shape=filledEdge;strokeWidth=1;strokeColor=#999999;fillColor=none;startArrow=none;startFill=0;startSize=6;endArrow=open;endFill=0;endSize=10;rounded=1;html=1;nl2Br=0;gliffyId=35;edgeStyle=elbowEdgeStyle;exitX=0.5;exitY=1;exitDx=0;exitDy=0;elbow=vertical;" parent="1" source="cPbBcN6YKlQiejN258PK-10" target="a38BfnecuPuGl3UTYQXL-148" edge="1">
          <mxGeometry width="100" height="100" relative="1" as="geometry">
            <Array as="points">
              <mxPoint x="-220" y="810" />
            </Array>
          </mxGeometry>
        </mxCell>
        <mxCell id="a38BfnecuPuGl3UTYQXL-102" value="&lt;div style=&#39;width: 85.7031px;height:auto;word-break: break-word;&#39;&gt;&lt;div align=&quot;center&quot;&gt;&lt;span style=&quot;font-family: Arial; font-size: 12px; line-height: 0;&quot;&gt;&lt;span style=&quot;line-height: 14px;&quot; class=&quot;&quot;&gt;meta columns&lt;/span&gt;&lt;/span&gt;&lt;/div&gt;&lt;/div&gt;" style="text;html=1;nl2Br=0;labelBackgroundColor=#FFFFFF;html=1;nl2Br=0;verticalAlign=middle;align=center;spacingLeft=0.0;spacingRight=0;gliffyId=95;" parent="a38BfnecuPuGl3UTYQXL-101" vertex="1">
          <mxGeometry x="0.34787752350369017" relative="1" as="geometry">
            <mxPoint as="offset" />
          </mxGeometry>
        </mxCell>
        <mxCell id="a38BfnecuPuGl3UTYQXL-103" style="shape=filledEdge;strokeWidth=1;strokeColor=#999999;fillColor=none;startArrow=none;startFill=0;startSize=6;endArrow=open;endFill=0;endSize=10;rounded=1;html=1;nl2Br=0;gliffyId=147;edgeStyle=elbowEdgeStyle;exitX=0.5;exitY=1;exitDx=0;exitDy=0;elbow=vertical;" parent="1" source="cPbBcN6YKlQiejN258PK-10" target="a38BfnecuPuGl3UTYQXL-142" edge="1">
          <mxGeometry width="100" height="100" relative="1" as="geometry">
            <Array as="points">
              <mxPoint x="160" y="1800" />
              <mxPoint x="250" y="1630" />
            </Array>
            <mxPoint x="630" y="1640" as="targetPoint" />
          </mxGeometry>
        </mxCell>
        <mxCell id="a38BfnecuPuGl3UTYQXL-104" value="&lt;div style=&#39;width: 85.7031px;height:auto;word-break: break-word;&#39;&gt;&lt;div align=&quot;center&quot;&gt;&lt;span style=&quot;font-family: Arial; font-size: 12px; line-height: 0;&quot;&gt;&lt;span style=&quot;line-height: 14px;&quot; class=&quot;&quot;&gt;meta columns&lt;/span&gt;&lt;/span&gt;&lt;/div&gt;&lt;/div&gt;" style="text;html=1;nl2Br=0;labelBackgroundColor=#FFFFFF;html=1;nl2Br=0;verticalAlign=middle;align=center;spacingLeft=0.0;spacingRight=0;gliffyId=148;" parent="a38BfnecuPuGl3UTYQXL-103" vertex="1">
          <mxGeometry x="0.6979775582487013" relative="1" as="geometry">
            <mxPoint as="offset" />
          </mxGeometry>
        </mxCell>
        <mxCell id="a38BfnecuPuGl3UTYQXL-105" style="shape=rect;verticalAlign=top;align=left;fontSize=12;fontFamily=Helvetica;shadow=0;strokeWidth=2;fillColor=#d9ead3;strokeColor=#000000;opacity=100.0;gliffyId=23;" parent="1" vertex="1">
          <mxGeometry x="414" y="920" width="210" height="160" as="geometry" />
        </mxCell>
        <mxCell id="a38BfnecuPuGl3UTYQXL-106" value="&lt;div style=&#39;width: 207.0px;height:auto;word-break: break-word;&#39;&gt;&lt;div align=&quot;center&quot;&gt;&lt;span style=&quot;font-family: Arial; font-size: 12px; line-height: 14px;&quot;&gt;DVPD_PIPLINE_DV_COLUMN&lt;span style=&quot;text-decoration: none; line-height: normal;&quot;&gt;&lt;br&gt;&lt;/span&gt;&lt;/span&gt;&lt;/div&gt;&lt;/div&gt;" style="shape=rect;shadow=0;strokeWidth=2;fillColor=#d9ead3;strokeColor=#000000;opacity=100.0;html=1;nl2Br=0;verticalAlign=top;align=center;spacingLeft=6.0;spacingRight=6;spacingTop=1.0;spacingBottom=8;whiteSpace=wrap;gliffyId=24;" parent="a38BfnecuPuGl3UTYQXL-105" vertex="1">
          <mxGeometry width="210" height="30" as="geometry" />
        </mxCell>
        <mxCell id="a38BfnecuPuGl3UTYQXL-107" value="&lt;div style=&quot;width: 207.0px;height:auto;word-break: break-word;&quot;&gt;&lt;div align=&quot;left&quot;&gt;&lt;span style=&quot;font-family: Arial; font-size: 12px; font-weight: normal; text-decoration: none; line-height: 14px;&quot;&gt;(All columns of every table in the Data Vault model)&lt;/span&gt;&lt;/div&gt;&lt;div align=&quot;left&quot;&gt;&lt;span style=&quot;font-family: Arial; font-size: 12px; font-weight: normal; text-decoration: none; line-height: 14px;&quot;&gt;pipeline_name(P)&lt;/span&gt;&lt;/div&gt;&lt;div align=&quot;left&quot;&gt;&lt;span style=&quot;font-family: Arial; font-size: 12px; font-weight: normal; text-decoration: none; line-height: 14px;&quot;&gt;table_name (P)&lt;/span&gt;&lt;/div&gt;&lt;div align=&quot;left&quot;&gt;&lt;span style=&quot;font-family: Arial; font-size: 12px; font-weight: normal; text-decoration: none; line-height: 14px;&quot;&gt;column_block&lt;/span&gt;&lt;/div&gt;&lt;div align=&quot;left&quot;&gt;&lt;span style=&quot;font-family: Arial; font-size: 12px; font-weight: normal; text-decoration: none; line-height: 14px;&quot;&gt;dv_column_class&lt;/span&gt;&lt;/div&gt;&lt;div align=&quot;left&quot;&gt;&lt;span style=&quot;line-height: normal; line-height: normal;&quot;&gt;column_name&lt;/span&gt;&lt;/div&gt;&lt;div align=&quot;left&quot;&gt;&lt;span style=&quot;font-family: Arial; font-size: 12px; font-weight: normal; text-decoration: none; line-height: 14px;&quot;&gt;column_type&lt;/span&gt;&lt;/div&gt;&lt;/div&gt;" style="shape=rect;shadow=0;strokeWidth=2;fillColor=#d9ead3;strokeColor=#000000;opacity=100.0;html=1;nl2Br=0;verticalAlign=top;align=left;spacingLeft=0.0;spacingRight=0;spacingTop=-5.0;spacingBottom=2;whiteSpace=wrap;gliffyId=26;" parent="a38BfnecuPuGl3UTYQXL-105" vertex="1">
          <mxGeometry y="30" width="210" height="130" as="geometry" />
        </mxCell>
        <mxCell id="a38BfnecuPuGl3UTYQXL-108" style="shape=rect;verticalAlign=top;align=left;fontSize=12;fontFamily=Helvetica;shadow=0;strokeWidth=2;fillColor=#FFFFFF;strokeColor=#000000;opacity=100.0;gliffyId=125;" parent="1" vertex="1">
          <mxGeometry x="990" y="1220" width="210" height="146" as="geometry" />
        </mxCell>
        <mxCell id="a38BfnecuPuGl3UTYQXL-109" value="&lt;div style=&#39;width: 207.0px;height:auto;word-break: break-word;&#39;&gt;&lt;div align=&quot;left&quot;&gt;&lt;span style=&quot;font-family: Arial; font-size: 12px; line-height: 14px;&quot;&gt;DVPD_PIPELINE_DV_HASH_INPUT_COLUMN&lt;span style=&quot;text-decoration: none; line-height: normal;&quot;&gt;&lt;br&gt;&lt;/span&gt;&lt;/span&gt;&lt;/div&gt;&lt;/div&gt;" style="shape=rect;shadow=0;strokeWidth=2;fillColor=#FFFFFF;strokeColor=#000000;opacity=100.0;html=1;nl2Br=0;verticalAlign=top;align=left;spacingLeft=6.0;spacingRight=6;spacingTop=1.0;spacingBottom=8;whiteSpace=wrap;gliffyId=126;" parent="a38BfnecuPuGl3UTYQXL-108" vertex="1">
          <mxGeometry width="210" height="44" as="geometry" />
        </mxCell>
        <mxCell id="a38BfnecuPuGl3UTYQXL-110" value="&lt;div style=&#39;width: 207.0px;height:auto;word-break: break-word;&#39;&gt;&lt;div align=&quot;left&quot;&gt;&lt;span style=&quot;font-family: Arial; font-size: 12px; text-decoration: none; line-height: 0;&quot;&gt;&lt;span style=&quot;text-decoration: none; line-height: 14px;&quot;&gt;pipeline_name&lt;/span&gt;&lt;/span&gt;&lt;/div&gt;&lt;div align=&quot;left&quot;&gt;&lt;span style=&quot;font-family: Arial; font-size: 12px; text-decoration: none; line-height: 0;&quot;&gt;&lt;span style=&quot;text-decoration: none; line-height: 14px;&quot;&gt;table_name&lt;/span&gt;&lt;/span&gt;&lt;/div&gt;&lt;div align=&quot;left&quot;&gt;&lt;span style=&quot;font-family: Arial; font-size: 12px; text-decoration: none; line-height: 0;&quot;&gt;&lt;span style=&quot;text-decoration: none; line-height: 14px;&quot;&gt;key_column&lt;/span&gt;&lt;/span&gt;&lt;/div&gt;&lt;div align=&quot;left&quot;&gt;&lt;span style=&quot;font-family: Arial; font-size: 12px; text-decoration: none; line-height: 0;&quot;&gt;&lt;span style=&quot;text-decoration: none; line-height: 14px;&quot;&gt;content_table&lt;/span&gt;&lt;/span&gt;&lt;/div&gt;&lt;div align=&quot;left&quot;&gt;&lt;span style=&quot;font-family: Arial; font-size: 12px; text-decoration: none; line-height: 0;&quot;&gt;&lt;span style=&quot;text-decoration: none; line-height: 14px;&quot;&gt;content_column&lt;/span&gt;&lt;/span&gt;&lt;/div&gt;&lt;div align=&quot;left&quot;&gt;&lt;span style=&quot;font-family: Arial; font-size: 12px; text-decoration: none; line-height: 0;&quot;&gt;&lt;span style=&quot;text-decoration: none; line-height: 14px;&quot;&gt;content_recursion_name&lt;/span&gt;&lt;/span&gt;&lt;/div&gt;&lt;/div&gt;" style="shape=rect;shadow=0;strokeWidth=2;fillColor=#FFFFFF;strokeColor=#000000;opacity=100.0;html=1;nl2Br=0;verticalAlign=top;align=left;spacingLeft=0.0;spacingRight=0;spacingTop=-5.0;spacingBottom=2;whiteSpace=wrap;gliffyId=128;" parent="a38BfnecuPuGl3UTYQXL-108" vertex="1">
          <mxGeometry y="44" width="210" height="102" as="geometry" />
        </mxCell>
        <mxCell id="a38BfnecuPuGl3UTYQXL-111" style="shape=rect;verticalAlign=top;align=left;fontSize=12;fontFamily=Helvetica;shadow=0;strokeWidth=2;fillColor=#FFFFFF;strokeColor=#e69138;opacity=100.0;gliffyId=186;" parent="1" vertex="1">
          <mxGeometry x="890" y="1720" width="210" height="190" as="geometry" />
        </mxCell>
        <mxCell id="a38BfnecuPuGl3UTYQXL-112" value="&lt;div style=&#39;width: 207.0px;height:auto;word-break: break-word;&#39;&gt;&lt;div align=&quot;center&quot;&gt;&lt;span style=&quot;font-family: Arial; font-size: 12px; line-height: 14px;&quot;&gt;DVPD_PIPLINE_STAGE_&lt;/span&gt;&lt;/div&gt;&lt;div align=&quot;center&quot;&gt;&lt;span style=&quot;font-family: Arial; font-size: 12px; line-height: 14px;&quot;&gt;HASH_INPUT_FIELD&lt;span style=&quot;text-decoration: none; line-height: normal;&quot;&gt;&lt;br&gt;&lt;/span&gt;&lt;/span&gt;&lt;/div&gt;&lt;/div&gt;" style="shape=rect;shadow=0;strokeWidth=2;fillColor=#FFFFFF;strokeColor=#e69138;opacity=100.0;html=1;nl2Br=0;verticalAlign=top;align=center;spacingLeft=6.0;spacingRight=6;spacingTop=1.0;spacingBottom=8;whiteSpace=wrap;gliffyId=187;" parent="a38BfnecuPuGl3UTYQXL-111" vertex="1">
          <mxGeometry width="210" height="44" as="geometry" />
        </mxCell>
        <mxCell id="a38BfnecuPuGl3UTYQXL-113" value="&lt;div style=&#39;width: 207.0px;height:auto;word-break: break-word;&#39;&gt;&lt;div align=&quot;left&quot;&gt;&lt;/div&gt;&lt;div align=&quot;left&quot;&gt;&lt;span style=&quot;line-height: normal; line-height: normal;&quot;&gt;Pipieline_name&lt;/span&gt;&lt;/div&gt;&lt;div align=&quot;left&quot;&gt;&lt;span style=&quot;line-height: normal; line-height: normal;&quot;&gt;table_name (P)&lt;/span&gt;&lt;/div&gt;&lt;div align=&quot;left&quot;&gt;&lt;span style=&quot;font-family: Arial; font-size: 12px; font-weight: normal; text-decoration: none; line-height: 14px;&quot;&gt;stage_column_name of the hash (P)&lt;/span&gt;&lt;/div&gt;&lt;div align=&quot;left&quot;&gt;&lt;span style=&quot;font-family: Arial; font-size: 12px; font-weight: normal; text-decoration: none; line-height: 14px;&quot;&gt;field_name&lt;/span&gt;&lt;/div&gt;&lt;div align=&quot;left&quot;&gt;&lt;span style=&quot;font-family: Arial; font-size: 12px; font-weight: normal; text-decoration: none; line-height: 14px;&quot;&gt;prio_in_hash_key&lt;/span&gt;&lt;/div&gt;&lt;div align=&quot;left&quot;&gt;&lt;span style=&quot;font-family: Arial; font-size: 12px; font-weight: normal; text-decoration: none; line-height: 14px;&quot;&gt;prio_in_diff_hash&lt;/span&gt;&lt;/div&gt;&lt;div align=&quot;left&quot;&gt;&lt;span style=&quot;font-family: Arial; font-size: 12px; font-weight: normal; text-decoration: none; line-height: 14px;&quot;&gt;link_parent_order&lt;/span&gt;&lt;/div&gt;&lt;div align=&quot;left&quot;&gt;&lt;span style=&quot;font-family: Arial; font-size: 12px; font-weight: normal; text-decoration: none; line-height: 14px;&quot;&gt;recursion_parent_order&lt;/span&gt;&lt;/div&gt;&lt;/div&gt;" style="shape=rect;shadow=0;strokeWidth=2;fillColor=#FFFFFF;strokeColor=#e69138;opacity=100.0;html=1;nl2Br=0;verticalAlign=top;align=left;spacingLeft=0.0;spacingRight=0;spacingTop=-5.0;spacingBottom=2;whiteSpace=wrap;gliffyId=189;" parent="a38BfnecuPuGl3UTYQXL-111" vertex="1">
          <mxGeometry y="44" width="210" height="146" as="geometry" />
        </mxCell>
        <mxCell id="a38BfnecuPuGl3UTYQXL-117" style="shape=filledEdge;strokeWidth=1;strokeColor=#000000;fillColor=none;startArrow=none;startFill=0;startSize=6;endArrow=open;endFill=0;endSize=6;rounded=1;gliffyId=224;entryX=0.5;entryY=0.0;entryPerimeter=0;edgeStyle=orthogonalEdgeStyle;" parent="1" source="a38BfnecuPuGl3UTYQXL-30" target="a38BfnecuPuGl3UTYQXL-133" edge="1">
          <mxGeometry width="26" height="38" relative="1" as="geometry">
            <Array as="points" />
            <mxPoint x="535" y="85" as="sourcePoint" />
          </mxGeometry>
        </mxCell>
        <mxCell id="a38BfnecuPuGl3UTYQXL-118" style="shape=filledEdge;strokeWidth=1;strokeColor=#000000;fillColor=none;startArrow=open;startFill=0;startSize=6;endArrow=none;endFill=0;endSize=6;rounded=1;gliffyId=226;exitX=0.5421052575111389;exitY=0.0;exitPerimeter=0;entryX=0.5;entryY=1.0;entryPerimeter=0;edgeStyle=orthogonalEdgeStyle;" parent="1" source="a38BfnecuPuGl3UTYQXL-4" target="a38BfnecuPuGl3UTYQXL-133" edge="1">
          <mxGeometry width="199" height="48" relative="1" as="geometry">
            <Array as="points">
              <mxPoint x="1213" y="213" />
              <mxPoint x="1213" y="180" />
              <mxPoint x="535" y="180" />
              <mxPoint x="535" y="160" />
            </Array>
          </mxGeometry>
        </mxCell>
        <mxCell id="a38BfnecuPuGl3UTYQXL-119" style="shape=filledEdge;strokeWidth=1;strokeColor=#000000;fillColor=none;startArrow=open;startFill=0;startSize=6;endArrow=none;endFill=0;endSize=6;rounded=1;gliffyId=303;exitX=0.5;exitY=0.0;exitPerimeter=0;entryX=0.5;entryY=1.0;entryPerimeter=0;edgeStyle=orthogonalEdgeStyle;" parent="1" source="a38BfnecuPuGl3UTYQXL-16" target="a38BfnecuPuGl3UTYQXL-133" edge="1">
          <mxGeometry width="199" height="48" relative="1" as="geometry" />
        </mxCell>
        <mxCell id="a38BfnecuPuGl3UTYQXL-120" style="shape=filledEdge;strokeWidth=1;strokeColor=#000000;fillColor=none;startArrow=open;startFill=0;startSize=6;endArrow=none;endFill=0;endSize=6;rounded=1;gliffyId=304;exitX=0.5;exitY=0;entryX=0.5;entryY=1.0;entryPerimeter=0;edgeStyle=orthogonalEdgeStyle;exitDx=0;exitDy=0;" parent="1" source="a38BfnecuPuGl3UTYQXL-23" target="a38BfnecuPuGl3UTYQXL-133" edge="1">
          <mxGeometry width="199" height="48" relative="1" as="geometry">
            <Array as="points">
              <mxPoint x="1905" y="180" />
              <mxPoint x="535" y="180" />
            </Array>
            <mxPoint x="2035" y="310.0000000000002" as="sourcePoint" />
          </mxGeometry>
        </mxCell>
        <mxCell id="a38BfnecuPuGl3UTYQXL-121" style="shape=filledEdge;strokeWidth=1;strokeColor=#000000;fillColor=none;startArrow=open;startFill=0;startSize=6;endArrow=none;endFill=0;endSize=6;rounded=1;gliffyId=310;exitX=0.5;exitY=0.0;exitPerimeter=0;entryX=0.5;entryY=1.0;entryPerimeter=0;edgeStyle=orthogonalEdgeStyle;" parent="1" source="a38BfnecuPuGl3UTYQXL-19" target="a38BfnecuPuGl3UTYQXL-133" edge="1">
          <mxGeometry width="199" height="48" relative="1" as="geometry">
            <Array as="points">
              <mxPoint x="1605" y="180" />
              <mxPoint x="535" y="180" />
            </Array>
          </mxGeometry>
        </mxCell>
        <mxCell id="a38BfnecuPuGl3UTYQXL-123" style="shape=filledEdge;strokeWidth=1;strokeColor=#000000;fillColor=none;startArrow=open;startFill=0;startSize=6;endArrow=none;endFill=0;endSize=6;rounded=1;gliffyId=229;entryX=0.5;entryY=1.0;entryPerimeter=0;edgeStyle=orthogonalEdgeStyle;" parent="1" source="GYDrtTJPPANYYvAklQGL-4" target="a38BfnecuPuGl3UTYQXL-133" edge="1">
          <mxGeometry width="199" height="48" relative="1" as="geometry">
            <Array as="points">
              <mxPoint x="515" y="187" />
              <mxPoint x="535" y="187" />
            </Array>
          </mxGeometry>
        </mxCell>
        <mxCell id="a38BfnecuPuGl3UTYQXL-124" style="shape=filledEdge;strokeWidth=1;strokeColor=#000000;fillColor=none;startArrow=open;startFill=0;startSize=6;endArrow=none;endFill=0;endSize=6;rounded=1;gliffyId=235;entryX=0.5;entryY=1.0;entryPerimeter=0;edgeStyle=orthogonalEdgeStyle;exitX=0.5;exitY=0;exitDx=0;exitDy=0;" parent="1" source="a38BfnecuPuGl3UTYQXL-26" target="a38BfnecuPuGl3UTYQXL-133" edge="1">
          <mxGeometry width="199" height="48" relative="1" as="geometry">
            <Array as="points">
              <mxPoint x="1020" y="180" />
              <mxPoint x="535" y="180" />
            </Array>
            <mxPoint x="1020" y="200" as="sourcePoint" />
          </mxGeometry>
        </mxCell>
        <mxCell id="a38BfnecuPuGl3UTYQXL-125" style="shape=filledEdge;strokeWidth=1;strokeColor=#000000;fillColor=none;startArrow=open;startFill=0;startSize=6;endArrow=none;endFill=0;endSize=6;rounded=1;gliffyId=241;exitX=0.5;exitY=0.0;exitPerimeter=0;entryX=0.5;entryY=1.0;entryPerimeter=0;edgeStyle=orthogonalEdgeStyle;" parent="1" source="a38BfnecuPuGl3UTYQXL-37" target="a38BfnecuPuGl3UTYQXL-133" edge="1">
          <mxGeometry width="199" height="48" relative="1" as="geometry">
            <Array as="points">
              <mxPoint x="320" y="207" />
              <mxPoint x="320" y="183.5" />
              <mxPoint x="535" y="183.5" />
              <mxPoint x="535" y="160" />
            </Array>
          </mxGeometry>
        </mxCell>
        <mxCell id="a38BfnecuPuGl3UTYQXL-126" style="shape=filledEdge;strokeWidth=1;strokeColor=#000000;fillColor=none;startArrow=open;startFill=0;startSize=6;endArrow=none;endFill=0;endSize=6;rounded=1;gliffyId=247;exitX=0.5;exitY=0.0;exitPerimeter=0;entryX=0.5;entryY=1.0;entryPerimeter=0;edgeStyle=orthogonalEdgeStyle;" parent="1" source="a38BfnecuPuGl3UTYQXL-40" target="a38BfnecuPuGl3UTYQXL-133" edge="1">
          <mxGeometry width="199" height="48" relative="1" as="geometry">
            <Array as="points">
              <mxPoint x="90" y="207" />
              <mxPoint x="90" y="183.5" />
              <mxPoint x="535" y="183.5" />
              <mxPoint x="535" y="160" />
            </Array>
          </mxGeometry>
        </mxCell>
        <mxCell id="a38BfnecuPuGl3UTYQXL-127" style="shape=filledEdge;strokeWidth=1;strokeColor=#000000;fillColor=none;startArrow=open;startFill=0;startSize=6;endArrow=none;endFill=0;endSize=6;rounded=1;gliffyId=279;entryX=0.0;entryY=0.5;entryPerimeter=0;edgeStyle=orthogonalEdgeStyle;" parent="1" source="a38BfnecuPuGl3UTYQXL-47" target="a38BfnecuPuGl3UTYQXL-133" edge="1">
          <mxGeometry width="199" height="48" relative="1" as="geometry">
            <Array as="points">
              <mxPoint x="-20" y="140" />
            </Array>
          </mxGeometry>
        </mxCell>
        <mxCell id="a38BfnecuPuGl3UTYQXL-128" value="&lt;div style=&quot;width: 102.6px;height:auto;word-break: break-word;&quot;&gt;&lt;div align=&quot;center&quot;&gt;&lt;font face=&quot;Arial&quot;&gt;Used for DDL generation&lt;/font&gt;&lt;/div&gt;&lt;/div&gt;" style="shape=rect;shadow=0;strokeWidth=0;strokeColor=none;fillColor=#d9ead3;opacity=100.0;html=1;nl2Br=0;verticalAlign=middle;align=center;spacingLeft=2.2;spacingRight=0;whiteSpace=wrap;gliffyId=195;" parent="1" vertex="1">
          <mxGeometry x="820" y="10" width="110" height="50" as="geometry" />
        </mxCell>
        <mxCell id="a38BfnecuPuGl3UTYQXL-129" value="&lt;div style=&#39;width: 102.6px;height:auto;word-break: break-word;&#39;&gt;&lt;div align=&quot;center&quot;&gt;&lt;span style=&quot;font-family: Arial; font-size: 12px; text-decoration: none; line-height: 14px;&quot;&gt;Table&lt;/span&gt;&lt;/div&gt;&lt;/div&gt;" style="shape=rect;shadow=1;strokeWidth=0;strokeColor=none;fillColor=#ffffff;opacity=100.0;html=1;nl2Br=0;verticalAlign=middle;align=center;spacingLeft=2.2;spacingRight=0;whiteSpace=wrap;gliffyId=264;" parent="1" vertex="1">
          <mxGeometry x="690" y="10" width="110" height="50" as="geometry" />
        </mxCell>
        <mxCell id="a38BfnecuPuGl3UTYQXL-130" value="&lt;div style=&quot;width: 102.6px;height:auto;word-break: break-word;&quot;&gt;&lt;div align=&quot;center&quot;&gt;&lt;span style=&quot;font-family: Arial; font-size: 12px; text-decoration: none; line-height: 14px;&quot;&gt; Input for staging process&amp;nbsp;&lt;/span&gt;&lt;/div&gt;&lt;/div&gt;" style="shape=rect;shadow=0;strokeWidth=2;fillColor=#FFFFFF;strokeColor=#e69138;opacity=100.0;html=1;nl2Br=0;verticalAlign=middle;align=center;spacingLeft=2.2;spacingRight=0;whiteSpace=wrap;gliffyId=198;" parent="1" vertex="1">
          <mxGeometry x="955" y="10" width="110" height="50" as="geometry" />
        </mxCell>
        <mxCell id="a38BfnecuPuGl3UTYQXL-131" value="&lt;div style=&quot;width: 102.6px;height:auto;word-break: break-word;&quot;&gt;&lt;div align=&quot;center&quot;&gt;&lt;span style=&quot;font-family: Arial; font-size: 12px; text-decoration: none; line-height: 14px;&quot;&gt; Input for vault load process&lt;/span&gt;&lt;/div&gt;&lt;/div&gt;" style="shape=rect;shadow=0;strokeWidth=2;fillColor=#FFFFFF;strokeColor=#FF0000;opacity=100.0;html=1;nl2Br=0;verticalAlign=middle;align=center;spacingLeft=2.2;spacingRight=0;whiteSpace=wrap;gliffyId=200;" parent="1" vertex="1">
          <mxGeometry x="1090" y="10" width="110" height="50" as="geometry" />
        </mxCell>
        <mxCell id="a38BfnecuPuGl3UTYQXL-132" value="&lt;div style=&#39;width: 147.0px;height:auto;word-break: break-word;&#39;&gt;&lt;div align=&quot;center&quot;&gt;&lt;span style=&quot;font-family: Arial; font-size: 12px; line-height: 0;&quot;&gt;&lt;span style=&quot;line-height: 14px;&quot;&gt;release_0_5_0&lt;/span&gt;&lt;/span&gt;&lt;/div&gt;&lt;/div&gt;" style="text;html=1;nl2Br=0;html=1;nl2Br=0;verticalAlign=middle;align=center;spacingLeft=0.0;spacingRight=0;whiteSpace=wrap;gliffyId=202;" parent="1" vertex="1">
          <mxGeometry x="50" y="20" width="150" height="14" as="geometry" />
        </mxCell>
        <mxCell id="isfB_mdRMPxW0Svjtrjf-8" style="edgeStyle=orthogonalEdgeStyle;shape=filledEdge;rounded=1;orthogonalLoop=1;jettySize=auto;html=1;labelBackgroundColor=default;strokeColor=#000000;strokeWidth=1;fontFamily=Helvetica;fontSize=11;fontColor=default;startArrow=none;startFill=0;endArrow=open;endFill=0;startSize=6;endSize=10;fillColor=none;" parent="1" source="a38BfnecuPuGl3UTYQXL-133" target="isfB_mdRMPxW0Svjtrjf-2" edge="1">
          <mxGeometry relative="1" as="geometry">
            <Array as="points">
              <mxPoint x="-20" y="140" />
              <mxPoint x="-20" y="900" />
              <mxPoint x="203" y="900" />
            </Array>
          </mxGeometry>
        </mxCell>
        <mxCell id="a38BfnecuPuGl3UTYQXL-133" value="&lt;div style=&#39;width: 255.0px;height:auto;word-break: break-word;&#39;&gt;&lt;div align=&quot;center&quot;&gt;&lt;span style=&quot;font-family: Arial; font-size: 12px; text-decoration: none; line-height: 0;&quot;&gt;&lt;span style=&quot;text-decoration: none; line-height: 14px;&quot; class=&quot;&quot;&gt;DVPD_LOAD_PIPELINE_TO_RAW&lt;/span&gt;&lt;/span&gt;&lt;/div&gt;&lt;/div&gt;" style="shape=parallelogram;perimeter=parallelogramPerimeter;shadow=0;strokeWidth=2;fillColor=#FFFFFF;strokeColor=#949494;opacity=100.0;html=1;nl2Br=0;verticalAlign=middle;align=center;spacingLeft=6.0;spacingRight=0;whiteSpace=wrap;gliffyId=222;" parent="1" vertex="1">
          <mxGeometry x="400" y="120" width="270" height="40" as="geometry" />
        </mxCell>
        <mxCell id="a38BfnecuPuGl3UTYQXL-134" style="shape=rect;verticalAlign=top;align=left;fontSize=12;fontFamily=Helvetica;shadow=0;strokeWidth=2;fillColor=#FFFFFF;strokeColor=#000000;opacity=100.0;gliffyId=158;" parent="1" vertex="1">
          <mxGeometry x="690" y="900" width="220" height="146" as="geometry" />
        </mxCell>
        <mxCell id="a38BfnecuPuGl3UTYQXL-135" value="&lt;div style=&#39;width: 217.0px;height:auto;word-break: break-word;&#39;&gt;&lt;div align=&quot;center&quot;&gt;&lt;span style=&quot;font-family: Arial; font-size: 12px; line-height: 0;&quot;&gt;&lt;span style=&quot;text-decoration: none; line-height: 14px;&quot;&gt;DVPD_PIPELINE_PROCESS_PLAN&lt;/span&gt;&lt;/span&gt;&lt;/div&gt;&lt;/div&gt;" style="shape=rect;shadow=0;strokeWidth=2;fillColor=#FFFFFF;strokeColor=#000000;opacity=100.0;html=1;nl2Br=0;verticalAlign=top;align=center;spacingLeft=6.0;spacingRight=6;spacingTop=1.0;spacingBottom=8;whiteSpace=wrap;gliffyId=159;" parent="a38BfnecuPuGl3UTYQXL-134" vertex="1">
          <mxGeometry width="220" height="30" as="geometry" />
        </mxCell>
        <mxCell id="a38BfnecuPuGl3UTYQXL-136" value="&lt;div style=&#39;width: 217.0px;height:auto;word-break: break-word;&#39;&gt;&lt;div align=&quot;left&quot;&gt;&lt;span style=&quot;font-family: Arial; font-size: 12px; font-weight: normal; text-decoration: none; line-height: 14px;&quot;&gt;(Lists all&amp;nbsp; necessary process blocks for all tables and pipelines)&lt;/span&gt;&lt;/div&gt;&lt;div align=&quot;left&quot;&gt;&lt;span style=&quot;font-family: Arial; font-size: 12px; font-weight: normal; text-decoration: none; line-height: 14px;&quot;&gt;pipeline_name&lt;/span&gt;&lt;/div&gt;&lt;div align=&quot;left&quot;&gt;&lt;span style=&quot;font-family: Arial; font-size: 12px; font-weight: normal; text-decoration: none; line-height: 14px;&quot;&gt;process_block&lt;/span&gt;&lt;/div&gt;&lt;div align=&quot;left&quot;&gt;&lt;span style=&quot;font-family: Arial; font-size: 12px; font-weight: normal; text-decoration: none; line-height: 14px;&quot;&gt;table_name&lt;/span&gt;&lt;/div&gt;&lt;div align=&quot;left&quot;&gt;&lt;span style=&quot;font-family: Arial; font-size: 12px; font-weight: normal; text-decoration: none; line-height: 14px;&quot;&gt;stereotype&lt;/span&gt;&lt;/div&gt;&lt;div align=&quot;left&quot;&gt;&lt;/div&gt;&lt;div align=&quot;left&quot;&gt;&lt;span style=&quot;font-family: Arial; font-size: 12px; font-weight: normal; text-decoration: none; line-height: 14px;&quot;&gt;field_group&lt;/span&gt;&lt;/div&gt;&lt;div align=&quot;left&quot;&gt;&lt;span style=&quot;font-family: Arial; font-size: 12px; font-weight: normal; text-decoration: none; line-height: 14px;&quot;&gt;hierarchy_key_suffix&lt;/span&gt;&lt;/div&gt;&lt;/div&gt;" style="shape=rect;shadow=0;strokeWidth=2;fillColor=#FFFFFF;strokeColor=#000000;opacity=100.0;html=1;nl2Br=0;verticalAlign=top;align=left;spacingLeft=0.0;spacingRight=0;spacingTop=-5.0;spacingBottom=2;whiteSpace=wrap;gliffyId=161;" parent="a38BfnecuPuGl3UTYQXL-134" vertex="1">
          <mxGeometry y="30" width="220" height="116" as="geometry" />
        </mxCell>
        <mxCell id="a38BfnecuPuGl3UTYQXL-137" style="shape=rect;verticalAlign=top;align=left;fontSize=12;fontFamily=Helvetica;shadow=0;strokeWidth=2;fillColor=#FFFFFF;strokeColor=#000000;opacity=100.0;gliffyId=175;" parent="1" vertex="1">
          <mxGeometry x="480" y="1180" width="450" height="188" as="geometry" />
        </mxCell>
        <mxCell id="a38BfnecuPuGl3UTYQXL-138" value="&lt;div style=&quot;width: 327.0px;height:auto;word-break: break-word;&quot;&gt;&lt;div align=&quot;center&quot;&gt;&lt;span style=&quot;font-family: Arial; font-size: 12px; line-height: 14px;&quot;&gt;DVPD_PIPELINE_PROCESS_STAGE_&lt;/span&gt;&lt;/div&gt;&lt;div align=&quot;center&quot;&gt;&lt;span style=&quot;font-family: Arial; font-size: 12px; line-height: 14px;&quot;&gt;TO_DV_MODEL_MAPPING_BASE&lt;span style=&quot;text-decoration: none;&quot; class=&quot;line-height: normal;&quot;&gt;&lt;br&gt;&lt;/span&gt;&lt;/span&gt;&lt;/div&gt;&lt;/div&gt;" style="shape=rect;shadow=0;strokeWidth=2;fillColor=#FFFFFF;strokeColor=#000000;opacity=100.0;html=1;nl2Br=0;verticalAlign=top;align=center;spacingLeft=6.0;spacingRight=6;spacingTop=1.0;spacingBottom=8;whiteSpace=wrap;gliffyId=176;" parent="a38BfnecuPuGl3UTYQXL-137" vertex="1">
          <mxGeometry width="449.99999999999994" height="44" as="geometry" />
        </mxCell>
        <mxCell id="a38BfnecuPuGl3UTYQXL-139" value="&lt;div style=&#39;width: 327.0px;height:auto;word-break: break-word;&#39;&gt;&lt;div align=&quot;left&quot;&gt;&lt;span style=&quot;font-family: Arial; font-size: 12px; font-weight: normal; text-decoration: none; line-height: 14px;&quot;&gt;(Lists for every pipeline, table and Processblock the fields, stage and dv columns, that have to be transferred)&lt;/span&gt;&lt;/div&gt;&lt;div align=&quot;left&quot;&gt;&lt;/div&gt;&lt;div align=&quot;left&quot;&gt;&lt;span style=&quot;font-family: Arial; font-size: 12px; font-weight: normal; text-decoration: none; line-height: 14px;&quot;&gt;pipeline_name&lt;/span&gt;&lt;/div&gt;&lt;div align=&quot;left&quot;&gt;&lt;span style=&quot;font-family: Arial; font-size: 12px; font-weight: normal; text-decoration: none; line-height: 14px;&quot;&gt;process_block&lt;/span&gt;&lt;/div&gt;&lt;div align=&quot;left&quot;&gt;&lt;span style=&quot;font-family: Arial; font-size: 12px; font-weight: normal; text-decoration: none; line-height: 14px;&quot;&gt;table_name&lt;/span&gt;&lt;/div&gt;&lt;div align=&quot;left&quot;&gt;&lt;/div&gt;&lt;div align=&quot;left&quot;&gt;&lt;/div&gt;&lt;div align=&quot;left&quot;&gt;&lt;span style=&quot;font-family: Arial; font-size: 12px; font-weight: normal; text-decoration: none; line-height: 14px;&quot;&gt;stage_column_name&lt;/span&gt;&lt;/div&gt;&lt;div align=&quot;left&quot;&gt;&lt;span style=&quot;font-family: Arial; font-size: 12px; font-weight: normal; text-decoration: none; line-height: 14px;&quot;&gt;column_name&lt;/span&gt;&lt;/div&gt;&lt;div align=&quot;left&quot;&gt;&lt;span style=&quot;font-family: Arial; font-size: 12px; font-weight: normal; text-decoration: none; line-height: 14px;&quot;&gt;column_type&lt;/span&gt;&lt;/div&gt;&lt;div align=&quot;left&quot;&gt;&lt;span style=&quot;font-family: Arial; font-size: 12px; font-weight: normal; text-decoration: none; line-height: 14px;&quot;&gt;dv_column_class&lt;/span&gt;&lt;/div&gt;&lt;div align=&quot;left&quot;&gt;&lt;span style=&quot;font-family: Arial; font-size: 12px; font-weight: normal; text-decoration: none; line-height: 14px;&quot;&gt;&amp;nbsp;&lt;/span&gt;&lt;/div&gt;&lt;/div&gt;" style="shape=rect;shadow=0;strokeWidth=2;fillColor=#FFFFFF;strokeColor=#000000;opacity=100.0;html=1;nl2Br=0;verticalAlign=top;align=left;spacingLeft=0.0;spacingRight=0;spacingTop=-5.0;spacingBottom=2;whiteSpace=wrap;gliffyId=178;" parent="a38BfnecuPuGl3UTYQXL-137" vertex="1">
          <mxGeometry y="44" width="449.99999999999994" height="144" as="geometry" />
        </mxCell>
        <mxCell id="a38BfnecuPuGl3UTYQXL-140" style="shape=rect;verticalAlign=top;align=left;fontSize=12;fontFamily=Helvetica;shadow=0;strokeWidth=2;fillColor=#d9ead3;strokeColor=#e69138;opacity=100.0;gliffyId=81;" parent="1" vertex="1">
          <mxGeometry x="570" y="1720" width="300" height="200" as="geometry" />
        </mxCell>
        <mxCell id="a38BfnecuPuGl3UTYQXL-141" value="&lt;div style=&#39;width: 327.0px;height:auto;word-break: break-word;&#39;&gt;&lt;div align=&quot;center&quot;&gt;&lt;span style=&quot;font-family: Arial; font-size: 12px; line-height: 14px;&quot;&gt;DVPD_PIPELINE_STAGE_TABLE_COLUMN&lt;span style=&quot;text-decoration: none;&quot; class=&quot; line-height: normal;&quot;&gt;&lt;br&gt;&lt;/span&gt;&lt;/span&gt;&lt;/div&gt;&lt;/div&gt;" style="shape=rect;shadow=0;strokeWidth=2;fillColor=#d9ead3;strokeColor=#e69138;opacity=100.0;html=1;nl2Br=0;verticalAlign=top;align=center;spacingLeft=6.0;spacingRight=6;spacingTop=1.0;spacingBottom=8;whiteSpace=wrap;gliffyId=82;" parent="a38BfnecuPuGl3UTYQXL-140" vertex="1">
          <mxGeometry width="300" height="35.294117647058826" as="geometry" />
        </mxCell>
        <mxCell id="a38BfnecuPuGl3UTYQXL-142" value="&lt;div style=&quot;width: 327.0px;height:auto;word-break: break-word;&quot;&gt;&lt;div align=&quot;left&quot;&gt;&lt;span style=&quot;font-family: Arial; font-size: 12px; font-weight: normal; text-decoration: none; line-height: 14px;&quot;&gt;(all stage columns needed to process a pipeline)&lt;/span&gt;&lt;/div&gt;&lt;div align=&quot;left&quot;&gt;&lt;span style=&quot;font-family: Arial; font-size: 12px; font-weight: normal; text-decoration: none; line-height: 14px;&quot;&gt;pipeline_name&lt;/span&gt;&lt;/div&gt;&lt;div align=&quot;left&quot;&gt;&lt;span style=&quot;font-family: Arial; font-size: 12px; font-weight: normal; text-decoration: none; line-height: 14px;&quot;&gt;stage_column_name&lt;/span&gt;&lt;/div&gt;&lt;div align=&quot;left&quot;&gt;&lt;span style=&quot;font-family: Arial; font-size: 12px; font-weight: normal; text-decoration: none; line-height: 14px;&quot;&gt;column_type&lt;/span&gt;&lt;/div&gt;&lt;div align=&quot;left&quot;&gt;&lt;span style=&quot;font-family: Arial; font-size: 12px; font-weight: normal; text-decoration: none; line-height: 14px;&quot;&gt;field_name&lt;/span&gt;&lt;/div&gt;&lt;div align=&quot;left&quot;&gt;&lt;span style=&quot;font-family: Arial; font-size: 12px; font-weight: normal; text-decoration: none; line-height: 14px;&quot;&gt;field_type&lt;/span&gt;&lt;/div&gt;&lt;div align=&quot;left&quot;&gt;&lt;span style=&quot;font-family: Arial; font-size: 12px; font-weight: normal; text-decoration: none; line-height: 14px;&quot;&gt;is_meta&lt;/span&gt;&lt;/div&gt;&lt;div align=&quot;left&quot;&gt;&lt;span style=&quot;font-family: Arial; font-size: 12px; font-weight: normal; text-decoration: none; line-height: 14px;&quot;&gt;is_nullable&lt;/span&gt;&lt;/div&gt;&lt;div align=&quot;left&quot;&gt;&lt;span style=&quot;font-family: Arial; font-size: 12px; font-weight: normal; text-decoration: none; line-height: 14px;&quot;&gt;column_block&lt;/span&gt;&lt;/div&gt;&lt;div align=&quot;left&quot;&gt;&lt;span style=&quot;font-family: Arial; font-size: 12px; font-weight: normal; text-decoration: none; line-height: 14px;&quot;&gt;min_target_table&lt;/span&gt;&lt;/div&gt;&lt;div align=&quot;left&quot;&gt;&lt;span style=&quot;font-family: Arial; font-size: 12px; font-weight: normal; text-decoration: none; line-height: 14px;&quot;&gt;min_column_name&lt;/span&gt;&lt;/div&gt;&lt;/div&gt;" style="shape=rect;shadow=0;strokeWidth=2;fillColor=#d9ead3;strokeColor=#e69138;opacity=100.0;html=1;nl2Br=0;verticalAlign=top;align=left;spacingLeft=0.0;spacingRight=0;spacingTop=-5.0;spacingBottom=2;whiteSpace=wrap;gliffyId=84;" parent="a38BfnecuPuGl3UTYQXL-140" vertex="1">
          <mxGeometry y="35.294117647058826" width="300" height="164.7058823529412" as="geometry" />
        </mxCell>
        <mxCell id="a38BfnecuPuGl3UTYQXL-144" style="shape=rect;verticalAlign=top;align=left;fontSize=12;fontFamily=Helvetica;shadow=1;strokeWidth=2;fillColor=#FFFFFF;strokeColor=#000000;opacity=100.0;gliffyId=348;spacingLeft=2.2;spacingRight=0;" parent="1" vertex="1">
          <mxGeometry x="590" y="210" width="160" height="202" as="geometry" />
        </mxCell>
        <mxCell id="a38BfnecuPuGl3UTYQXL-145" value="&lt;div style=&quot;width: 157.0px;height:auto;word-break: break-word;&quot;&gt;&lt;div align=&quot;center&quot;&gt;&lt;span style=&quot;font-family: Arial; font-size: 12px; line-height: 14px;&quot;&gt;&lt;span style=&quot;background-color: initial; font-family: Helvetica;&quot;&gt;XENC&lt;/span&gt;_PIPELINE_&lt;/span&gt;&lt;/div&gt;&lt;div align=&quot;center&quot;&gt;&lt;span style=&quot;font-family: Arial; font-size: 12px; line-height: 14px;&quot;&gt;DV_&lt;/span&gt;&lt;span style=&quot;line-height: normal; line-height: normal;&quot;&gt;TABLE_&lt;/span&gt;&lt;/div&gt;&lt;div align=&quot;center&quot;&gt;&lt;span style=&quot;line-height: normal; line-height: normal;&quot;&gt;PROPERTIES_RAW&lt;/span&gt;&lt;/div&gt;&lt;/div&gt;" style="shape=rect;shadow=1;strokeWidth=2;fillColor=#FFFFFF;strokeColor=#000000;opacity=100.0;html=1;nl2Br=0;verticalAlign=top;align=left;spacingLeft=2.2;spacingRight=0;spacingTop=1.0;spacingBottom=8;whiteSpace=wrap;gliffyId=349;" parent="a38BfnecuPuGl3UTYQXL-144" vertex="1">
          <mxGeometry width="160" height="60" as="geometry" />
        </mxCell>
        <mxCell id="a38BfnecuPuGl3UTYQXL-146" value="&lt;div style=&quot;width: 157.0px;height:auto;word-break: break-word;&quot;&gt;&lt;div align=&quot;left&quot;&gt;&lt;/div&gt;&lt;div align=&quot;left&quot;&gt;&lt;span style=&quot;line-height: normal; line-height: normal;&quot;&gt;pipeline_name(P)&lt;/span&gt;&lt;/div&gt;&lt;div align=&quot;left&quot;&gt;&lt;span style=&quot;line-height: normal; line-height: normal;&quot;&gt;schema_name&lt;/span&gt;&lt;/div&gt;&lt;div align=&quot;left&quot;&gt;&lt;span style=&quot;line-height: normal; line-height: normal;&quot;&gt;table_name(P)&lt;/span&gt;&lt;/div&gt;&lt;div align=&quot;left&quot;&gt;&lt;span style=&quot;line-height: normal; line-height: normal;&quot;&gt;encyrption_key_table_name&lt;/span&gt;&lt;/div&gt;&lt;div align=&quot;left&quot;&gt;&lt;span style=&quot;line-height: normal; line-height: normal;&quot;&gt;encryption_key_name&lt;/span&gt;&lt;/div&gt;&lt;div align=&quot;left&quot;&gt;&lt;span style=&quot;line-height: normal; line-height: normal;&quot;&gt;encryption_key_index_name&lt;/span&gt;&lt;/div&gt;&lt;div align=&quot;left&quot;&gt;&lt;span style=&quot;line-height: normal; line-height: normal;&quot;&gt;content_hash_column_name&lt;/span&gt;&lt;/div&gt;&lt;div align=&quot;left&quot;&gt;&lt;span style=&quot;line-height: normal; line-height: normal;&quot;&gt;content_salted_hash_column_name&lt;/span&gt;&lt;/div&gt;&lt;/div&gt;" style="shape=rect;shadow=1;strokeWidth=2;fillColor=#FFFFFF;strokeColor=#000000;opacity=100.0;html=1;nl2Br=0;verticalAlign=top;align=left;spacingLeft=2.2;spacingRight=0;spacingTop=-5.0;spacingBottom=2;whiteSpace=wrap;gliffyId=351;" parent="a38BfnecuPuGl3UTYQXL-144" vertex="1">
          <mxGeometry y="60" width="160" height="142" as="geometry" />
        </mxCell>
        <mxCell id="a38BfnecuPuGl3UTYQXL-159" style="edgeStyle=orthogonalEdgeStyle;shape=filledEdge;rounded=1;orthogonalLoop=1;jettySize=auto;html=1;labelBackgroundColor=default;fontFamily=Helvetica;fontSize=11;fontColor=default;startArrow=none;startFill=0;endArrow=open;endFill=0;startSize=6;endSize=10;strokeColor=#000000;strokeWidth=2;fillColor=none;" parent="1" source="a38BfnecuPuGl3UTYQXL-148" target="a38BfnecuPuGl3UTYQXL-106" edge="1">
          <mxGeometry relative="1" as="geometry" />
        </mxCell>
        <mxCell id="a38BfnecuPuGl3UTYQXL-148" value="&lt;div style=&quot;width: 207.0px;height:auto;word-break: break-word;&quot;&gt;&lt;div align=&quot;center&quot;&gt;&lt;span style=&quot;font-family: Arial; font-size: 12px; line-height: 14px;&quot;&gt;DVPD_PIPLINE_DV_&lt;/span&gt;&lt;/div&gt;&lt;div align=&quot;center&quot;&gt;&lt;span style=&quot;font-family: Arial; font-size: 12px; line-height: 14px;&quot;&gt;COLUMN_CORE&lt;span style=&quot;text-decoration: none; line-height: normal;&quot;&gt;&lt;br&gt;&lt;/span&gt;&lt;/span&gt;&lt;/div&gt;&lt;/div&gt;" style="shape=rect;shadow=0;strokeWidth=2;fillColor=#FFFFFF;strokeColor=#000000;opacity=100.0;html=1;nl2Br=0;verticalAlign=top;align=center;spacingLeft=6.0;spacingRight=6;spacingTop=1.0;spacingBottom=8;whiteSpace=wrap;gliffyId=24;" parent="1" vertex="1">
          <mxGeometry x="370" y="780" width="210" height="40" as="geometry" />
        </mxCell>
        <mxCell id="a38BfnecuPuGl3UTYQXL-160" style="edgeStyle=orthogonalEdgeStyle;shape=filledEdge;rounded=1;orthogonalLoop=1;jettySize=auto;html=1;labelBackgroundColor=default;fontFamily=Helvetica;fontSize=11;fontColor=default;startArrow=none;startFill=0;endArrow=open;endFill=0;startSize=6;endSize=10;strokeColor=#000000;strokeWidth=2;fillColor=none;" parent="1" source="a38BfnecuPuGl3UTYQXL-157" edge="1">
          <mxGeometry relative="1" as="geometry">
            <mxPoint x="520" y="920" as="targetPoint" />
          </mxGeometry>
        </mxCell>
        <mxCell id="a38BfnecuPuGl3UTYQXL-157" value="&lt;div style=&quot;width: 207.0px;height:auto;word-break: break-word;&quot;&gt;&lt;div align=&quot;center&quot;&gt;&lt;span style=&quot;font-family: Arial; font-size: 12px; line-height: 14px;&quot;&gt;XENC_PIPLINE_DV_&lt;/span&gt;&lt;/div&gt;&lt;div align=&quot;center&quot;&gt;&lt;span style=&quot;font-family: Arial; font-size: 12px; line-height: 14px;&quot;&gt;COLUMN&lt;span style=&quot;text-decoration: none; line-height: normal;&quot;&gt;&lt;br&gt;&lt;/span&gt;&lt;/span&gt;&lt;/div&gt;&lt;/div&gt;" style="shape=rect;shadow=0;strokeWidth=2;fillColor=#FFFFFF;strokeColor=#000000;opacity=100.0;html=1;nl2Br=0;verticalAlign=top;align=center;spacingLeft=6.0;spacingRight=6;spacingTop=1.0;spacingBottom=8;whiteSpace=wrap;gliffyId=24;" parent="1" vertex="1">
          <mxGeometry x="575" y="840" width="170" height="40" as="geometry" />
        </mxCell>
        <mxCell id="a38BfnecuPuGl3UTYQXL-162" value="&lt;div style=&quot;width: 147.0px;height:auto;word-break: break-word;&quot;&gt;&lt;div align=&quot;center&quot;&gt;&lt;span style=&quot;font-family: Arial; font-size: 12px; line-height: 0;&quot;&gt;&lt;span style=&quot;line-height: 14px;&quot; class=&quot;&quot;&gt;r_0_5_0&lt;/span&gt;&lt;/span&gt;&lt;/div&gt;&lt;/div&gt;" style="text;html=1;nl2Br=0;html=1;nl2Br=0;verticalAlign=middle;align=center;spacingLeft=0.0;spacingRight=0;whiteSpace=wrap;gliffyId=353;fontColor=#999999;" parent="1" vertex="1">
          <mxGeometry x="630" y="826" width="150" height="14" as="geometry" />
        </mxCell>
        <mxCell id="GYDrtTJPPANYYvAklQGL-1" style="shape=filledEdge;strokeWidth=1;strokeColor=#000000;fillColor=none;startArrow=open;startFill=0;startSize=6;endArrow=none;endFill=0;endSize=6;rounded=1;gliffyId=229;entryX=0.5;entryY=1;edgeStyle=orthogonalEdgeStyle;entryDx=0;entryDy=0;exitX=0.5;exitY=0;exitDx=0;exitDy=0;" parent="1" source="a38BfnecuPuGl3UTYQXL-145" target="a38BfnecuPuGl3UTYQXL-133" edge="1">
          <mxGeometry width="199" height="48" relative="1" as="geometry">
            <Array as="points">
              <mxPoint x="670" y="180" />
              <mxPoint x="535" y="180" />
            </Array>
            <mxPoint x="670" y="270" as="sourcePoint" />
            <mxPoint x="545" y="170" as="targetPoint" />
          </mxGeometry>
        </mxCell>
        <mxCell id="GYDrtTJPPANYYvAklQGL-2" style="edgeStyle=orthogonalEdgeStyle;shape=filledEdge;rounded=1;orthogonalLoop=1;jettySize=auto;html=1;labelBackgroundColor=default;fontFamily=Helvetica;fontSize=11;fontColor=default;startArrow=none;startFill=0;endArrow=open;endFill=0;startSize=6;endSize=10;strokeColor=#000000;strokeWidth=2;fillColor=none;entryX=0.344;entryY=-0.042;entryDx=0;entryDy=0;entryPerimeter=0;exitX=0.5;exitY=1;exitDx=0;exitDy=0;" parent="1" source="a38BfnecuPuGl3UTYQXL-3" target="GYDrtTJPPANYYvAklQGL-3" edge="1">
          <mxGeometry relative="1" as="geometry">
            <mxPoint x="570" y="460" as="targetPoint" />
            <Array as="points">
              <mxPoint x="490" y="550" />
              <mxPoint x="640" y="550" />
            </Array>
          </mxGeometry>
        </mxCell>
        <mxCell id="GYDrtTJPPANYYvAklQGL-4" value="&lt;div style=&quot;width: 137.0px;height:auto;word-break: break-word;&quot;&gt;&lt;div align=&quot;center&quot;&gt;&lt;span style=&quot;font-family: Arial; font-size: 12px; line-height: 14px;&quot;&gt;DVPD_PIPELINE_&lt;/span&gt;&lt;/div&gt;&lt;div align=&quot;center&quot;&gt;&lt;span style=&quot;font-family: Arial; font-size: 12px; line-height: 14px;&quot;&gt;DV_&lt;/span&gt;&lt;span style=&quot;line-height: normal; line-height: normal;&quot;&gt;TABLE_RAW&lt;/span&gt;&lt;/div&gt;&lt;/div&gt;" style="shape=rect;shadow=1;strokeWidth=2;fillColor=#FFFFFF;strokeColor=#000000;opacity=100.0;html=1;nl2Br=0;verticalAlign=top;align=center;spacingLeft=6.0;spacingRight=6;spacingTop=1.0;spacingBottom=8;whiteSpace=wrap;gliffyId=207;" parent="1" vertex="1">
          <mxGeometry x="420" y="207" width="140" height="44" as="geometry" />
        </mxCell>
        <mxCell id="a38BfnecuPuGl3UTYQXL-1" style="shape=rect;verticalAlign=top;align=left;fontSize=12;fontFamily=Helvetica;shadow=0;strokeWidth=2;fillColor=#FFFFFF;strokeColor=#990000;opacity=100.0;gliffyId=206;" parent="1" vertex="1">
          <mxGeometry x="420" y="240" width="140" height="198" as="geometry" />
        </mxCell>
        <mxCell id="a38BfnecuPuGl3UTYQXL-2" value="&lt;div style=&quot;width: 137.0px;height:auto;word-break: break-word;&quot;&gt;&lt;div align=&quot;center&quot;&gt;&lt;span style=&quot;font-family: Arial; font-size: 12px; line-height: 14px;&quot;&gt;DVPD_PIPELINE_&lt;/span&gt;&lt;/div&gt;&lt;div align=&quot;center&quot;&gt;&lt;span style=&quot;font-family: Arial; font-size: 12px; line-height: 14px;&quot;&gt;DV_&lt;/span&gt;&lt;span style=&quot;line-height: normal; line-height: normal;&quot;&gt;TABLE&lt;/span&gt;&lt;/div&gt;&lt;/div&gt;" style="shape=rect;shadow=0;strokeWidth=2;fillColor=#FFFFFF;strokeColor=#FF0000;opacity=100.0;html=1;nl2Br=0;verticalAlign=middle;align=center;spacingLeft=2.2;spacingRight=0;spacingTop=1.0;spacingBottom=8;whiteSpace=wrap;gliffyId=207;" parent="a38BfnecuPuGl3UTYQXL-1" vertex="1">
          <mxGeometry width="140" height="46.34042553191489" as="geometry" />
        </mxCell>
        <mxCell id="a38BfnecuPuGl3UTYQXL-3" value="&lt;div style=&quot;width: 137.0px;height:auto;word-break: break-word;&quot;&gt;&lt;div align=&quot;left&quot;&gt;&lt;/div&gt;&lt;div align=&quot;left&quot;&gt;&lt;span style=&quot;line-height: normal; line-height: normal;&quot;&gt;pipeline_name(P)&lt;/span&gt;&lt;/div&gt;&lt;div align=&quot;left&quot;&gt;&lt;span style=&quot;line-height: normal; line-height: normal;&quot;&gt;schema_name&lt;/span&gt;&lt;/div&gt;&lt;div align=&quot;left&quot;&gt;&lt;span style=&quot;line-height: normal; line-height: normal;&quot;&gt;table_name(P)&lt;/span&gt;&lt;/div&gt;&lt;div align=&quot;left&quot;&gt;&lt;span style=&quot;line-height: normal; line-height: normal;&quot;&gt;stereotype&lt;/span&gt;&lt;/div&gt;&lt;div align=&quot;left&quot;&gt;&lt;span style=&quot;line-height: normal; line-height: normal;&quot;&gt;hub_key_column_name&lt;/span&gt;&lt;/div&gt;&lt;div align=&quot;left&quot;&gt;&lt;span style=&quot;line-height: normal; line-height: normal;&quot;&gt;link_key_column_name&lt;/span&gt;&lt;/div&gt;&lt;div align=&quot;left&quot;&gt;&lt;span style=&quot;line-height: normal; line-height: normal;&quot;&gt;diff_hash_colmn_name&lt;/span&gt;&lt;/div&gt;&lt;div align=&quot;left&quot;&gt;&lt;span style=&quot;line-height: normal; line-height: normal;&quot;&gt;satellite_parent_table&lt;/span&gt;&lt;/div&gt;&lt;div align=&quot;left&quot;&gt;&lt;span style=&quot;line-height: normal; line-height: normal;&quot;&gt;tracked_relation_name&lt;/span&gt;&lt;/div&gt;&lt;/div&gt;" style="shape=rect;shadow=0;strokeWidth=2;fillColor=#FFFFFF;strokeColor=#FF0000;opacity=100.0;html=1;nl2Br=0;verticalAlign=middle;align=center;spacingLeft=2.2;spacingRight=0;spacingTop=-5.0;spacingBottom=2;whiteSpace=wrap;gliffyId=209;" parent="a38BfnecuPuGl3UTYQXL-1" vertex="1">
          <mxGeometry y="46.34042553191489" width="140" height="151.65957446808508" as="geometry" />
        </mxCell>
        <mxCell id="GYDrtTJPPANYYvAklQGL-5" value="&lt;div style=&quot;width: 147.0px;height:auto;word-break: break-word;&quot;&gt;&lt;div align=&quot;center&quot;&gt;&lt;span style=&quot;font-family: Arial; font-size: 12px; line-height: 0;&quot;&gt;&lt;span style=&quot;line-height: 14px;&quot; class=&quot;&quot;&gt;r_0_5_0&lt;/span&gt;&lt;/span&gt;&lt;/div&gt;&lt;/div&gt;" style="text;html=1;nl2Br=0;html=1;nl2Br=0;verticalAlign=middle;align=center;spacingLeft=0.0;spacingRight=0;whiteSpace=wrap;gliffyId=353;fontColor=#999999;" parent="1" vertex="1">
          <mxGeometry x="450" y="766" width="150" height="14" as="geometry" />
        </mxCell>
        <mxCell id="MkYY_aAxvu7mnhfNtS-Y-4" style="edgeStyle=orthogonalEdgeStyle;shape=filledEdge;rounded=1;orthogonalLoop=1;jettySize=auto;html=1;labelBackgroundColor=default;fontFamily=Helvetica;fontSize=11;fontColor=default;startArrow=none;startFill=0;endArrow=open;endFill=0;startSize=6;endSize=10;strokeColor=#000000;strokeWidth=2;fillColor=none;" parent="1" source="GYDrtTJPPANYYvAklQGL-3" target="a38BfnecuPuGl3UTYQXL-157" edge="1">
          <mxGeometry relative="1" as="geometry" />
        </mxCell>
        <mxCell id="NLIvMI8WizPxzlTy_N_h-7" style="edgeStyle=elbowEdgeStyle;shape=connector;rounded=1;orthogonalLoop=1;jettySize=auto;elbow=vertical;html=1;entryX=0.5;entryY=0;entryDx=0;entryDy=0;labelBackgroundColor=default;fontFamily=Helvetica;fontSize=11;fontColor=default;startArrow=none;startFill=0;endArrow=open;endFill=0;startSize=6;endSize=10;strokeColor=#000000;strokeWidth=2;fillColor=none;" parent="1" source="GYDrtTJPPANYYvAklQGL-3" target="NLIvMI8WizPxzlTy_N_h-2" edge="1">
          <mxGeometry relative="1" as="geometry">
            <Array as="points">
              <mxPoint x="990" y="720" />
            </Array>
          </mxGeometry>
        </mxCell>
        <mxCell id="GYDrtTJPPANYYvAklQGL-3" value="&lt;div style=&quot;width: 157.0px;height:auto;word-break: break-word;&quot;&gt;&lt;div align=&quot;center&quot;&gt;&lt;span style=&quot;font-family: Arial; font-size: 12px; line-height: 14px;&quot;&gt;&lt;span style=&quot;background-color: initial; font-family: Helvetica;&quot;&gt;XENC&lt;/span&gt;_PIPELINE_&lt;/span&gt;&lt;/div&gt;&lt;div align=&quot;center&quot;&gt;&lt;span style=&quot;font-family: Arial; font-size: 12px; line-height: 14px;&quot;&gt;DV_&lt;/span&gt;&lt;span style=&quot;line-height: normal; line-height: normal;&quot;&gt;TABLE_&lt;/span&gt;&lt;/div&gt;&lt;div align=&quot;center&quot;&gt;&lt;span style=&quot;line-height: normal; line-height: normal;&quot;&gt;PROPERTIES&lt;/span&gt;&lt;/div&gt;&lt;div align=&quot;center&quot;&gt;&lt;span style=&quot;line-height: normal; line-height: normal;&quot;&gt;(cleansed, defaults, relevant)&lt;/span&gt;&lt;/div&gt;&lt;/div&gt;" style="shape=rect;shadow=0;strokeWidth=2;fillColor=#FFFFFF;strokeColor=#e69138;opacity=100.0;html=1;nl2Br=0;verticalAlign=middle;align=center;spacingLeft=2.2;spacingRight=0;spacingTop=1.0;spacingBottom=8;whiteSpace=wrap;gliffyId=349;" parent="1" vertex="1">
          <mxGeometry x="585" y="566.25" width="160" height="77.5" as="geometry" />
        </mxCell>
        <mxCell id="MkYY_aAxvu7mnhfNtS-Y-2" style="edgeStyle=orthogonalEdgeStyle;shape=filledEdge;rounded=1;orthogonalLoop=1;jettySize=auto;html=1;entryX=0.5;entryY=0;entryDx=0;entryDy=0;labelBackgroundColor=default;fontFamily=Helvetica;fontSize=11;fontColor=default;startArrow=none;startFill=0;endArrow=open;endFill=0;startSize=6;endSize=10;strokeColor=#000000;strokeWidth=2;fillColor=none;" parent="1" source="a38BfnecuPuGl3UTYQXL-146" target="GYDrtTJPPANYYvAklQGL-3" edge="1">
          <mxGeometry relative="1" as="geometry" />
        </mxCell>
        <mxCell id="MkYY_aAxvu7mnhfNtS-Y-3" style="edgeStyle=orthogonalEdgeStyle;shape=filledEdge;rounded=1;orthogonalLoop=1;jettySize=auto;html=1;labelBackgroundColor=default;fontFamily=Helvetica;fontSize=11;fontColor=default;startArrow=none;startFill=0;endArrow=open;endFill=0;startSize=6;endSize=10;strokeColor=#000000;strokeWidth=2;fillColor=none;entryX=0;entryY=0.5;entryDx=0;entryDy=0;exitX=1;exitY=0.25;exitDx=0;exitDy=0;" parent="1" source="a38BfnecuPuGl3UTYQXL-33" target="GYDrtTJPPANYYvAklQGL-3" edge="1">
          <mxGeometry relative="1" as="geometry">
            <mxPoint x="650.04" y="579.98" as="targetPoint" />
            <mxPoint x="500" y="448" as="sourcePoint" />
          </mxGeometry>
        </mxCell>
        <mxCell id="5YA5uJwcRerIdLzBJXsX-8" style="edgeStyle=orthogonalEdgeStyle;shape=filledEdge;rounded=1;orthogonalLoop=1;jettySize=auto;html=1;labelBackgroundColor=default;fontFamily=Helvetica;fontSize=11;fontColor=default;startArrow=none;startFill=0;endArrow=open;endFill=0;startSize=6;endSize=10;strokeColor=#000000;strokeWidth=2;fillColor=none;" parent="1" source="5YA5uJwcRerIdLzBJXsX-2" target="5YA5uJwcRerIdLzBJXsX-6" edge="1">
          <mxGeometry relative="1" as="geometry" />
        </mxCell>
        <mxCell id="5YA5uJwcRerIdLzBJXsX-2" value="&lt;div style=&quot;width: 327.0px;height:auto;word-break: break-word;&quot;&gt;&lt;div align=&quot;center&quot;&gt;&lt;span style=&quot;font-family: Arial; font-size: 12px; line-height: 14px;&quot;&gt;DVPD_PIPELINE_PROCESS_STAGE_&lt;/span&gt;&lt;/div&gt;&lt;div align=&quot;center&quot;&gt;&lt;span style=&quot;font-family: Arial; font-size: 12px; line-height: 14px;&quot;&gt;TO_DV_MODEL_MAPPING_CORE&lt;span style=&quot;text-decoration: none;&quot; class=&quot;line-height: normal;&quot;&gt;&lt;br&gt;&lt;/span&gt;&lt;/span&gt;&lt;/div&gt;&lt;/div&gt;" style="shape=rect;shadow=0;strokeWidth=2;fillColor=#FFFFFF;strokeColor=#000000;opacity=100.0;html=1;nl2Br=0;verticalAlign=top;align=center;spacingLeft=6.0;spacingRight=6;spacingTop=1.0;spacingBottom=8;whiteSpace=wrap;gliffyId=176;" parent="1" vertex="1">
          <mxGeometry x="395" y="1414" width="260" height="44" as="geometry" />
        </mxCell>
        <mxCell id="5YA5uJwcRerIdLzBJXsX-6" value="&lt;div style=&quot;width: 327.0px;height:auto;word-break: break-word;&quot;&gt;&lt;div align=&quot;center&quot;&gt;&lt;span style=&quot;font-family: Arial; font-size: 12px; line-height: 14px;&quot;&gt;DVPD_PIPELINE_PROCESS_STAGE_&lt;/span&gt;&lt;/div&gt;&lt;div align=&quot;center&quot;&gt;&lt;span style=&quot;font-family: Arial; font-size: 12px; line-height: 14px;&quot;&gt;TO_DV_MODEL_MAPPING&lt;span style=&quot;text-decoration: none;&quot; class=&quot;line-height: normal;&quot;&gt;&lt;br&gt;&lt;/span&gt;&lt;/span&gt;&lt;/div&gt;&lt;/div&gt;" style="shape=rect;shadow=0;strokeWidth=2;fillColor=#FFFFFF;strokeColor=#FF0000;opacity=100.0;html=1;nl2Br=0;verticalAlign=middle;align=center;spacingLeft=2.2;spacingRight=0;spacingTop=1.0;spacingBottom=8;whiteSpace=wrap;gliffyId=176;" parent="1" vertex="1">
          <mxGeometry x="590" y="1510" width="260" height="44" as="geometry" />
        </mxCell>
        <mxCell id="5YA5uJwcRerIdLzBJXsX-9" style="edgeStyle=orthogonalEdgeStyle;shape=filledEdge;rounded=1;orthogonalLoop=1;jettySize=auto;html=1;labelBackgroundColor=default;fontFamily=Helvetica;fontSize=11;fontColor=default;startArrow=none;startFill=0;endArrow=open;endFill=0;startSize=6;endSize=10;strokeColor=#000000;strokeWidth=2;fillColor=none;" parent="1" source="5YA5uJwcRerIdLzBJXsX-7" target="5YA5uJwcRerIdLzBJXsX-6" edge="1">
          <mxGeometry relative="1" as="geometry" />
        </mxCell>
        <mxCell id="5YA5uJwcRerIdLzBJXsX-7" value="&lt;div style=&quot;width: 327.0px;height:auto;word-break: break-word;&quot;&gt;&lt;div align=&quot;center&quot;&gt;&lt;span style=&quot;font-family: Arial; font-size: 12px; line-height: 14px;&quot;&gt;XENC_PIPELINE_PROCESS_STAGE_&lt;/span&gt;&lt;/div&gt;&lt;div align=&quot;center&quot;&gt;&lt;span style=&quot;font-family: Arial; font-size: 12px; line-height: 14px;&quot;&gt;TO_DV_MODEL_MAPPING_ADDITION&lt;span style=&quot;text-decoration: none;&quot; class=&quot;line-height: normal;&quot;&gt;&lt;br&gt;&lt;/span&gt;&lt;/span&gt;&lt;/div&gt;&lt;/div&gt;" style="shape=rect;shadow=0;strokeWidth=2;fillColor=#FFFFFF;strokeColor=#000000;opacity=100.0;html=1;nl2Br=0;verticalAlign=top;align=center;spacingLeft=6.0;spacingRight=6;spacingTop=1.0;spacingBottom=8;whiteSpace=wrap;gliffyId=176;" parent="1" vertex="1">
          <mxGeometry x="670" y="1414" width="260" height="44" as="geometry" />
        </mxCell>
        <mxCell id="5YA5uJwcRerIdLzBJXsX-10" style="shape=filledEdge;strokeWidth=1;strokeColor=#999999;fillColor=none;startArrow=none;startFill=0;startSize=6;endArrow=open;endFill=0;endSize=10;rounded=1;html=1;nl2Br=0;gliffyId=35;edgeStyle=orthogonalEdgeStyle;exitX=0.5;exitY=1;exitDx=0;exitDy=0;" parent="1" source="cPbBcN6YKlQiejN258PK-10" target="a38BfnecuPuGl3UTYQXL-157" edge="1">
          <mxGeometry width="100" height="100" relative="1" as="geometry">
            <mxPoint x="105" y="738" as="sourcePoint" />
            <mxPoint x="380" y="820" as="targetPoint" />
            <Array as="points">
              <mxPoint x="-190" y="870" />
            </Array>
          </mxGeometry>
        </mxCell>
        <mxCell id="5YA5uJwcRerIdLzBJXsX-11" value="&lt;div style=&#39;width: 85.7031px;height:auto;word-break: break-word;&#39;&gt;&lt;div align=&quot;center&quot;&gt;&lt;span style=&quot;font-family: Arial; font-size: 12px; line-height: 0;&quot;&gt;&lt;span style=&quot;line-height: 14px;&quot; class=&quot;&quot;&gt;meta columns&lt;/span&gt;&lt;/span&gt;&lt;/div&gt;&lt;/div&gt;" style="text;html=1;nl2Br=0;labelBackgroundColor=#FFFFFF;html=1;nl2Br=0;verticalAlign=middle;align=center;spacingLeft=0.0;spacingRight=0;gliffyId=95;" parent="5YA5uJwcRerIdLzBJXsX-10" vertex="1">
          <mxGeometry x="0.34787752350369017" relative="1" as="geometry">
            <mxPoint x="-129" as="offset" />
          </mxGeometry>
        </mxCell>
        <mxCell id="37KwecqmPpCkhN_84nmb-1" style="edgeStyle=orthogonalEdgeStyle;shape=filledEdge;rounded=1;orthogonalLoop=1;jettySize=auto;html=1;labelBackgroundColor=default;fontFamily=Helvetica;fontSize=11;fontColor=default;startArrow=none;startFill=0;endArrow=open;endFill=0;startSize=6;endSize=10;strokeColor=#000000;strokeWidth=2;fillColor=none;" parent="1" source="a38BfnecuPuGl3UTYQXL-139" target="5YA5uJwcRerIdLzBJXsX-2" edge="1">
          <mxGeometry relative="1" as="geometry" />
        </mxCell>
        <mxCell id="37KwecqmPpCkhN_84nmb-2" style="edgeStyle=orthogonalEdgeStyle;shape=filledEdge;rounded=1;orthogonalLoop=1;jettySize=auto;html=1;labelBackgroundColor=default;fontFamily=Helvetica;fontSize=11;fontColor=default;startArrow=none;startFill=0;endArrow=open;endFill=0;startSize=6;endSize=10;strokeColor=#000000;strokeWidth=2;fillColor=none;" parent="1" source="a38BfnecuPuGl3UTYQXL-139" target="5YA5uJwcRerIdLzBJXsX-7" edge="1">
          <mxGeometry relative="1" as="geometry" />
        </mxCell>
        <mxCell id="37KwecqmPpCkhN_84nmb-8" style="edgeStyle=orthogonalEdgeStyle;shape=filledEdge;rounded=1;orthogonalLoop=1;jettySize=auto;html=1;entryX=0.5;entryY=0;entryDx=0;entryDy=0;labelBackgroundColor=default;fontFamily=Helvetica;fontSize=11;fontColor=default;startArrow=none;startFill=0;endArrow=open;endFill=0;startSize=6;endSize=10;strokeColor=#000000;strokeWidth=2;fillColor=none;" parent="1" source="37KwecqmPpCkhN_84nmb-3" target="37KwecqmPpCkhN_84nmb-6" edge="1">
          <mxGeometry relative="1" as="geometry" />
        </mxCell>
        <mxCell id="37KwecqmPpCkhN_84nmb-3" value="&lt;div style=&quot;width: 327.0px;height:auto;word-break: break-word;&quot;&gt;&lt;div align=&quot;center&quot;&gt;&lt;span style=&quot;font-family: Arial; font-size: 12px; line-height: 14px;&quot;&gt;XENC_PIPELINE_PROCESS_STAGE_&lt;/span&gt;&lt;/div&gt;&lt;div align=&quot;center&quot;&gt;&lt;span style=&quot;font-family: Arial; font-size: 12px; line-height: 14px;&quot;&gt;TO_ENC_MODEL_MAPPING&lt;span style=&quot;text-decoration: none;&quot; class=&quot;line-height: normal;&quot;&gt;&lt;br&gt;&lt;/span&gt;&lt;/span&gt;&lt;/div&gt;&lt;/div&gt;" style="shape=rect;shadow=0;strokeWidth=2;fillColor=#FFFFFF;strokeColor=#000000;opacity=100.0;html=1;nl2Br=0;verticalAlign=top;align=center;spacingLeft=6.0;spacingRight=6;spacingTop=1.0;spacingBottom=8;whiteSpace=wrap;gliffyId=176;" parent="1" vertex="1">
          <mxGeometry x="1020" y="1520" width="260" height="44" as="geometry" />
        </mxCell>
        <mxCell id="37KwecqmPpCkhN_84nmb-4" style="edgeStyle=elbowEdgeStyle;shape=filledEdge;rounded=1;orthogonalLoop=1;jettySize=auto;html=1;entryX=0.5;entryY=0;entryDx=0;entryDy=0;labelBackgroundColor=default;fontFamily=Helvetica;fontSize=11;fontColor=default;startArrow=none;startFill=0;endArrow=open;endFill=0;startSize=6;endSize=10;strokeColor=#000000;strokeWidth=2;fillColor=none;elbow=vertical;exitX=0.5;exitY=1;exitDx=0;exitDy=0;" parent="1" source="a38BfnecuPuGl3UTYQXL-139" target="37KwecqmPpCkhN_84nmb-3" edge="1">
          <mxGeometry relative="1" as="geometry">
            <Array as="points">
              <mxPoint x="930" y="1390" />
            </Array>
          </mxGeometry>
        </mxCell>
        <mxCell id="37KwecqmPpCkhN_84nmb-5" style="shape=rect;verticalAlign=top;align=left;fontSize=12;fontFamily=Helvetica;shadow=0;strokeWidth=2;fillColor=#d9ead3;strokeColor=#e69138;opacity=100.0;gliffyId=81;" parent="1" vertex="1">
          <mxGeometry x="1000" y="2010" width="300" height="170" as="geometry" />
        </mxCell>
        <mxCell id="37KwecqmPpCkhN_84nmb-6" value="&lt;div style=&quot;width: 327.0px;height:auto;word-break: break-word;&quot;&gt;&lt;div align=&quot;center&quot;&gt;&lt;span style=&quot;font-family: Arial; font-size: 12px; line-height: 14px;&quot;&gt;XENC_PIPELINE_STAGE_TABLE_COLUMN&lt;span style=&quot;text-decoration: none;&quot; class=&quot;line-height: normal;&quot;&gt;&lt;br&gt;&lt;/span&gt;&lt;/span&gt;&lt;/div&gt;&lt;/div&gt;" style="shape=rect;shadow=0;strokeWidth=2;fillColor=#d9ead3;strokeColor=#e69138;opacity=100.0;html=1;nl2Br=0;verticalAlign=top;align=center;spacingLeft=6.0;spacingRight=6;spacingTop=1.0;spacingBottom=8;whiteSpace=wrap;gliffyId=82;" parent="37KwecqmPpCkhN_84nmb-5" vertex="1">
          <mxGeometry width="300" height="30" as="geometry" />
        </mxCell>
        <mxCell id="37KwecqmPpCkhN_84nmb-7" value="&lt;div style=&#39;width: 327.0px;height:auto;word-break: break-word;&#39;&gt;&lt;div align=&quot;left&quot;&gt;&lt;span style=&quot;font-family: Arial; font-size: 12px; font-weight: normal; text-decoration: none; line-height: 14px;&quot;&gt;(all stage columns needed to process a pipeline)&lt;/span&gt;&lt;/div&gt;&lt;div align=&quot;left&quot;&gt;&lt;span style=&quot;font-family: Arial; font-size: 12px; font-weight: normal; text-decoration: none; line-height: 14px;&quot;&gt;pipeline_name&lt;/span&gt;&lt;/div&gt;&lt;div align=&quot;left&quot;&gt;&lt;span style=&quot;font-family: Arial; font-size: 12px; font-weight: normal; text-decoration: none; line-height: 14px;&quot;&gt;stage_column_name&lt;/span&gt;&lt;/div&gt;&lt;div align=&quot;left&quot;&gt;&lt;span style=&quot;font-family: Arial; font-size: 12px; font-weight: normal; text-decoration: none; line-height: 14px;&quot;&gt;stage_column_type&lt;/span&gt;&lt;/div&gt;&lt;div align=&quot;left&quot;&gt;&lt;span style=&quot;font-family: Arial; font-size: 12px; font-weight: normal; text-decoration: none; line-height: 14px;&quot;&gt;field_name&lt;/span&gt;&lt;/div&gt;&lt;div align=&quot;left&quot;&gt;&lt;span style=&quot;font-family: Arial; font-size: 12px; font-weight: normal; text-decoration: none; line-height: 14px;&quot;&gt;field_type&lt;/span&gt;&lt;/div&gt;&lt;/div&gt;" style="shape=rect;shadow=0;strokeWidth=2;fillColor=#d9ead3;strokeColor=#e69138;opacity=100.0;html=1;nl2Br=0;verticalAlign=top;align=left;spacingLeft=0.0;spacingRight=0;spacingTop=-5.0;spacingBottom=2;whiteSpace=wrap;gliffyId=84;" parent="37KwecqmPpCkhN_84nmb-5" vertex="1">
          <mxGeometry y="30" width="300" height="140" as="geometry" />
        </mxCell>
        <mxCell id="NLIvMI8WizPxzlTy_N_h-1" style="shape=rect;verticalAlign=top;align=left;fontSize=12;fontFamily=Helvetica;shadow=0;strokeWidth=2;fillColor=#FFFFFF;strokeColor=#e69138;opacity=100.0;gliffyId=186;" parent="1" vertex="1">
          <mxGeometry x="1220" y="1720" width="210" height="190" as="geometry" />
        </mxCell>
        <mxCell id="NLIvMI8WizPxzlTy_N_h-2" value="&lt;div style=&quot;width: 207.0px;height:auto;word-break: break-word;&quot;&gt;&lt;div align=&quot;center&quot;&gt;&lt;font face=&quot;Arial&quot;&gt;XENC_PIPELINE_PROCESS_FIELD_TO_ENCRYPTION_KEY_MAPPING&lt;/font&gt;&lt;br&gt;&lt;/div&gt;&lt;/div&gt;" style="shape=rect;shadow=0;strokeWidth=2;fillColor=#FFFFFF;strokeColor=#e69138;opacity=100.0;html=1;nl2Br=0;verticalAlign=top;align=center;spacingLeft=6.0;spacingRight=6;spacingTop=1.0;spacingBottom=8;whiteSpace=wrap;gliffyId=187;" parent="NLIvMI8WizPxzlTy_N_h-1" vertex="1">
          <mxGeometry width="210" height="44" as="geometry" />
        </mxCell>
        <mxCell id="NLIvMI8WizPxzlTy_N_h-3" value="&lt;div style=&quot;width: 207.0px;height:auto;word-break: break-word;&quot;&gt;&lt;div align=&quot;left&quot;&gt;&lt;/div&gt;&lt;div align=&quot;left&quot;&gt;&lt;span style=&quot;line-height: normal; line-height: normal;&quot;&gt;Pipieline_name&lt;/span&gt;&lt;/div&gt;&lt;div align=&quot;left&quot;&gt;&lt;span style=&quot;line-height: normal; line-height: normal;&quot;&gt;process:block&lt;/span&gt;&lt;/div&gt;&lt;div align=&quot;left&quot;&gt;&lt;span style=&quot;line-height: normal; line-height: normal;&quot;&gt;field_name&amp;nbsp;&lt;/span&gt;&lt;/div&gt;&lt;div align=&quot;left&quot;&gt;&lt;span style=&quot;line-height: normal; line-height: normal;&quot;&gt;content_stage_column_name&lt;/span&gt;&lt;/div&gt;&lt;div align=&quot;left&quot;&gt;content_table_name&lt;/div&gt;&lt;div align=&quot;left&quot;&gt;content_column_name&lt;/div&gt;&lt;div align=&quot;left&quot;&gt;encryption_key_table_name&lt;/div&gt;&lt;div align=&quot;left&quot;&gt;encryption_key_stage_column_name&lt;/div&gt;&lt;div align=&quot;left&quot;&gt;stage_map_rank&lt;/div&gt;&lt;div align=&quot;left&quot;&gt;&lt;br&gt;&lt;/div&gt;&lt;/div&gt;" style="shape=rect;shadow=0;strokeWidth=2;fillColor=#FFFFFF;strokeColor=#e69138;opacity=100.0;html=1;nl2Br=0;verticalAlign=top;align=left;spacingLeft=0.0;spacingRight=0;spacingTop=-5.0;spacingBottom=2;whiteSpace=wrap;gliffyId=189;" parent="NLIvMI8WizPxzlTy_N_h-1" vertex="1">
          <mxGeometry y="44" width="210" height="146" as="geometry" />
        </mxCell>
        <mxCell id="a38BfnecuPuGl3UTYQXL-23" value="&lt;div style=&#39;width: 187.0px;height:auto;word-break: break-word;&#39;&gt;&lt;div align=&quot;center&quot;&gt;&lt;span style=&quot;font-family: Arial; font-size: 12px; line-height: 14px;&quot;&gt;DVPD_PIPELINE_LOAD_&lt;/span&gt;&lt;/div&gt;&lt;div align=&quot;center&quot;&gt;&lt;span style=&quot;font-family: Arial; font-size: 12px; line-height: 14px;&quot;&gt;DELETION_PARTITION_&lt;/span&gt;&lt;/div&gt;&lt;div align=&quot;center&quot;&gt;&lt;span style=&quot;font-family: Arial; font-size: 12px; line-height: 14px;&quot;&gt;FIELD&lt;/span&gt;&lt;span style=&quot;line-height: normal; line-height: normal;&quot;&gt;_(RAW)&lt;/span&gt;&lt;/div&gt;&lt;/div&gt;" style="shape=rect;shadow=1;strokeWidth=2;fillColor=#FFFFFF;strokeColor=#000000;opacity=100.0;html=1;nl2Br=0;verticalAlign=top;align=center;spacingLeft=6.0;spacingRight=6;spacingTop=1.0;spacingBottom=8;whiteSpace=wrap;gliffyId=299;" parent="1" vertex="1">
          <mxGeometry x="1810" y="310" width="190" height="58" as="geometry" />
        </mxCell>
        <mxCell id="a38BfnecuPuGl3UTYQXL-24" value="&lt;div style=&#39;width: 187.0px;height:auto;word-break: break-word;&#39;&gt;&lt;div align=&quot;left&quot;&gt;&lt;/div&gt;&lt;div align=&quot;left&quot;&gt;&lt;span style=&quot;line-height: normal; line-height: normal;&quot;&gt;pipeline_name(P)&lt;/span&gt;&lt;/div&gt;&lt;div align=&quot;left&quot;&gt;&lt;span style=&quot;line-height: normal; line-height: normal;&quot;&gt;rule_name&lt;/span&gt;&lt;/div&gt;&lt;div align=&quot;left&quot;&gt;&lt;span style=&quot;text-decoration: none; line-height: normal; line-height: normal;&quot;&gt;field_name&lt;/span&gt;&lt;/div&gt;&lt;/div&gt;" style="shape=rect;shadow=1;strokeWidth=2;fillColor=#FFFFFF;strokeColor=#000000;opacity=100.0;html=1;nl2Br=0;verticalAlign=top;align=left;spacingLeft=0.0;spacingRight=0;spacingTop=-5.0;spacingBottom=2;whiteSpace=wrap;gliffyId=301;" parent="1" vertex="1">
          <mxGeometry x="1810" y="368" width="190" height="60" as="geometry" />
        </mxCell>
        <mxCell id="a38BfnecuPuGl3UTYQXL-143" value="&lt;div style=&quot;width: 443.0px;height:auto;word-break: break-word;&quot;&gt;&lt;div align=&quot;center&quot;&gt;&lt;span style=&quot;font-family: Arial; font-size: 72px; text-decoration: none; color: #999999; line-height: 0;&quot;&gt;&lt;span style=&quot;text-decoration: none; line-height: 80px;&quot;&gt;Final concept pending&lt;/span&gt;&lt;/span&gt;&lt;/div&gt;&lt;/div&gt;" style="shape=rect;shadow=0;strokeWidth=2;fillColor=#d9d9d9;strokeColor=#434343;opacity=66.0;dashed=1;fixDash=1;dashPattern=8.0 2.0;html=1;nl2Br=0;verticalAlign=middle;align=center;spacingLeft=2.0;spacingRight=0;whiteSpace=wrap;gliffyId=344;" parent="1" vertex="1">
          <mxGeometry x="1490" y="190" width="610" height="2030" as="geometry" />
        </mxCell>
        <mxCell id="NLIvMI8WizPxzlTy_N_h-4" style="edgeStyle=elbowEdgeStyle;rounded=1;orthogonalLoop=1;jettySize=auto;html=1;endArrow=open;strokeColor=#000000;startArrow=none;startFill=0;endFill=0;startSize=6;endSize=10;strokeWidth=2;fillColor=none;elbow=vertical;" parent="1" source="a38BfnecuPuGl3UTYQXL-139" target="NLIvMI8WizPxzlTy_N_h-2" edge="1">
          <mxGeometry relative="1" as="geometry">
            <Array as="points">
              <mxPoint x="1000" y="1390" />
            </Array>
          </mxGeometry>
        </mxCell>
        <mxCell id="NLIvMI8WizPxzlTy_N_h-5" value="" style="group" parent="1" connectable="0" vertex="1">
          <mxGeometry y="500" width="180" height="135" as="geometry" />
        </mxCell>
        <mxCell id="a38BfnecuPuGl3UTYQXL-44" value="&lt;div style=&quot;width: 177.0px;height:auto;word-break: break-word;&quot;&gt;&lt;div align=&quot;center&quot;&gt;&lt;span style=&quot;font-family: Arial; font-size: 12px; line-height: 0;&quot;&gt;&lt;span style=&quot;text-decoration: none; line-height: 14px;&quot;&gt;DVPD_PIPELINE_FIELD_ PROPERTIES&lt;/span&gt;&lt;/span&gt;&lt;/div&gt;&lt;/div&gt;" style="shape=rect;shadow=0;strokeWidth=2;fillColor=#FFFFFF;strokeColor=#e69138;opacity=100.0;html=1;nl2Br=0;verticalAlign=top;align=center;spacingLeft=6.0;spacingRight=6;spacingTop=1.0;spacingBottom=8;whiteSpace=wrap;gliffyId=152;" parent="NLIvMI8WizPxzlTy_N_h-5" vertex="1">
          <mxGeometry width="180" height="44" as="geometry" />
        </mxCell>
        <mxCell id="a38BfnecuPuGl3UTYQXL-45" value="&lt;div style=&#39;width: 177.0px;height:auto;word-break: break-word;&#39;&gt;&lt;div align=&quot;left&quot;&gt;&lt;span style=&quot;line-height: normal; line-height: normal;&quot;&gt;(List of all source fields)&lt;/span&gt;&lt;/div&gt;&lt;div align=&quot;left&quot;&gt;&lt;span style=&quot;line-height: normal; line-height: normal;&quot;&gt;pipeline_name(P)&lt;/span&gt;&lt;/div&gt;&lt;div align=&quot;left&quot;&gt;&lt;span style=&quot;line-height: normal; line-height: normal;&quot;&gt;field_name (P)&lt;/span&gt;&lt;/div&gt;&lt;div align=&quot;left&quot;&gt;&lt;span style=&quot;line-height: normal; line-height: normal;&quot;&gt;field_type&lt;/span&gt;&lt;/div&gt;&lt;div align=&quot;left&quot;&gt;&lt;span style=&quot;line-height: normal; line-height: normal;&quot;&gt;&quot;parsing properties&quot;&lt;/span&gt;&lt;/div&gt;&lt;div align=&quot;left&quot;&gt;&lt;span style=&quot;line-height: normal; line-height: normal;&quot;&gt;&quot;consistency properties&quot;&lt;/span&gt;&lt;/div&gt;&lt;div align=&quot;left&quot;&gt;&lt;/div&gt;&lt;/div&gt;" style="shape=rect;shadow=0;strokeWidth=2;fillColor=#FFFFFF;strokeColor=#e69138;opacity=100.0;html=1;nl2Br=0;verticalAlign=top;align=left;spacingLeft=0.0;spacingRight=0;spacingTop=-5.0;spacingBottom=2;whiteSpace=wrap;gliffyId=154;" parent="NLIvMI8WizPxzlTy_N_h-5" vertex="1">
          <mxGeometry y="44" width="180" height="91" as="geometry" />
        </mxCell>
        <mxCell id="NLIvMI8WizPxzlTy_N_h-6" style="edgeStyle=elbowEdgeStyle;rounded=1;orthogonalLoop=1;jettySize=auto;elbow=vertical;html=1;endArrow=open;strokeColor=#000000;strokeWidth=2;fillColor=none;startArrow=none;startFill=0;startSize=6;endFill=0;endSize=10;" parent="1" source="a38BfnecuPuGl3UTYQXL-45" target="NLIvMI8WizPxzlTy_N_h-2" edge="1">
          <mxGeometry relative="1" as="geometry">
            <Array as="points">
              <mxPoint x="700" y="660" />
            </Array>
          </mxGeometry>
        </mxCell>
        <mxCell id="NLIvMI8WizPxzlTy_N_h-8" style="edgeStyle=orthogonalEdgeStyle;shape=filledEdge;rounded=1;orthogonalLoop=1;jettySize=auto;html=1;entryX=0.5;entryY=0;entryDx=0;entryDy=0;labelBackgroundColor=default;fontFamily=Helvetica;fontSize=11;fontColor=default;startArrow=none;startFill=0;endArrow=open;endFill=0;startSize=6;endSize=10;strokeColor=#000000;strokeWidth=2;fillColor=none;exitX=0.5;exitY=1;exitDx=0;exitDy=0;" parent="1" source="37KwecqmPpCkhN_84nmb-3" target="NLIvMI8WizPxzlTy_N_h-2" edge="1">
          <mxGeometry relative="1" as="geometry">
            <mxPoint x="1159.9999999999995" y="1564.0000000000005" as="sourcePoint" />
            <mxPoint x="1159.9999999999995" y="2020" as="targetPoint" />
            <Array as="points">
              <mxPoint x="1150" y="1660" />
              <mxPoint x="1325" y="1660" />
            </Array>
          </mxGeometry>
        </mxCell>
        <mxCell id="5KnmBSyKW2PSDnxZ-HjJ-1" style="edgeStyle=orthogonalEdgeStyle;shape=filledEdge;rounded=1;orthogonalLoop=1;jettySize=auto;html=1;entryX=1;entryY=0.5;entryDx=0;entryDy=0;labelBackgroundColor=default;fontFamily=Helvetica;fontSize=11;fontColor=default;startArrow=none;startFill=0;endArrow=open;endFill=0;startSize=6;endSize=10;strokeColor=#000000;strokeWidth=2;fillColor=none;exitX=0.5;exitY=1;exitDx=0;exitDy=0;" parent="1" source="NLIvMI8WizPxzlTy_N_h-3" target="5YA5uJwcRerIdLzBJXsX-7" edge="1">
          <mxGeometry relative="1" as="geometry">
            <mxPoint x="1160" y="1574" as="sourcePoint" />
            <mxPoint x="1335" y="1730" as="targetPoint" />
            <Array as="points">
              <mxPoint x="1325" y="1930" />
              <mxPoint x="1460" y="1930" />
              <mxPoint x="1460" y="1436" />
            </Array>
          </mxGeometry>
        </mxCell>
        <mxCell id="cPbBcN6YKlQiejN258PK-1" style="shape=rect;verticalAlign=top;align=left;fontSize=12;fontFamily=Helvetica;shadow=1;strokeWidth=2;fillColor=#FFFFFF;strokeColor=#949494;opacity=100.0;gliffyId=5;" parent="1" vertex="1">
          <mxGeometry x="-215" y="20" width="170" height="75" as="geometry" />
        </mxCell>
        <mxCell id="cPbBcN6YKlQiejN258PK-2" value="&lt;div style=&quot;width: 167.0px;height:auto;word-break: break-word;&quot;&gt;&lt;div align=&quot;center&quot;&gt;&lt;span style=&quot;font-family: Arial; font-size: 12px; line-height: 14px;&quot;&gt;dvpd_json_storage&lt;span style=&quot;text-decoration: none;&quot; class=&quot;line-height: normal;&quot;&gt;&lt;br&gt;&lt;/span&gt;&lt;/span&gt;&lt;/div&gt;&lt;/div&gt;" style="shape=rect;shadow=1;strokeWidth=2;fillColor=#FFFFFF;strokeColor=#949494;opacity=100.0;html=1;nl2Br=0;verticalAlign=top;align=center;spacingLeft=6.0;spacingRight=6;spacingTop=1.0;spacingBottom=8;whiteSpace=wrap;gliffyId=6;" parent="cPbBcN6YKlQiejN258PK-1" vertex="1">
          <mxGeometry width="170" height="30" as="geometry" />
        </mxCell>
        <mxCell id="cPbBcN6YKlQiejN258PK-3" value="&lt;div style=&quot;width: 167.0px;height:auto;word-break: break-word;&quot;&gt;&lt;div align=&quot;left&quot;&gt;&lt;span style=&quot;font-family: Arial; font-size: 12px; font-weight: normal; text-decoration: none; line-height: 14px;&quot; class=&quot;&quot;&gt;object_class&lt;/span&gt;&lt;/div&gt;&lt;div align=&quot;left&quot;&gt;&lt;span style=&quot;font-family: Arial; font-size: 12px; font-weight: normal; text-decoration: none; line-height: 14px;&quot; class=&quot;&quot;&gt;object_name&lt;/span&gt;&lt;/div&gt;&lt;div align=&quot;left&quot;&gt;&lt;span style=&quot;font-family: Arial; font-size: 12px; font-weight: normal; text-decoration: none; line-height: 14px;&quot; class=&quot;&quot;&gt;object_json&lt;/span&gt;&lt;/div&gt;&lt;/div&gt;" style="shape=rect;shadow=1;strokeWidth=2;fillColor=#FFFFFF;strokeColor=#949494;opacity=100.0;html=1;nl2Br=0;verticalAlign=top;align=left;spacingLeft=0.0;spacingRight=0;spacingTop=-5.0;spacingBottom=2;whiteSpace=wrap;gliffyId=8;" parent="cPbBcN6YKlQiejN258PK-1" vertex="1">
          <mxGeometry y="30" width="170" height="45" as="geometry" />
        </mxCell>
        <mxCell id="cPbBcN6YKlQiejN258PK-4" value="&lt;div style=&quot;width: 255.0px;height:auto;word-break: break-word;&quot;&gt;&lt;div align=&quot;center&quot;&gt;&lt;span style=&quot;font-family: Arial; font-size: 12px; text-decoration: none; line-height: 0;&quot;&gt;&lt;span style=&quot;text-decoration: none; line-height: 14px;&quot; class=&quot;&quot;&gt;DVPD_LOAD_&lt;/span&gt;&lt;/span&gt;&lt;/div&gt;&lt;div align=&quot;center&quot;&gt;&lt;span style=&quot;font-family: Arial; font-size: 12px; text-decoration: none; line-height: 0;&quot;&gt;&lt;span style=&quot;text-decoration: none; line-height: 14px;&quot; class=&quot;&quot;&gt;MODEL_PROFILE()&lt;/span&gt;&lt;/span&gt;&lt;/div&gt;&lt;/div&gt;" style="shape=parallelogram;perimeter=parallelogramPerimeter;shadow=0;strokeWidth=2;fillColor=#FFFFFF;strokeColor=#949494;opacity=100.0;html=1;nl2Br=0;verticalAlign=middle;align=center;spacingLeft=6.0;spacingRight=0;whiteSpace=wrap;gliffyId=222;" parent="1" vertex="1">
          <mxGeometry x="-220" y="124" width="180" height="40" as="geometry" />
        </mxCell>
        <mxCell id="cPbBcN6YKlQiejN258PK-5" style="shape=rect;verticalAlign=top;align=left;fontSize=12;fontFamily=Helvetica;shadow=1;strokeWidth=2;fillColor=#FFFFFF;strokeColor=#000000;opacity=100.0;gliffyId=242;" parent="1" vertex="1">
          <mxGeometry x="-220" y="210" width="180" height="110" as="geometry" />
        </mxCell>
        <mxCell id="cPbBcN6YKlQiejN258PK-6" value="&lt;div style=&quot;width: 177.0px;height:auto;word-break: break-word;&quot;&gt;&lt;div align=&quot;center&quot;&gt;&lt;span style=&quot;font-family: Arial; font-size: 12px; line-height: 14px;&quot;&gt;DVPD_MODEL_PROFILE&lt;/span&gt;&lt;/div&gt;&lt;/div&gt;" style="shape=rect;shadow=1;strokeWidth=2;fillColor=#FFFFFF;strokeColor=#000000;opacity=100.0;html=1;nl2Br=0;verticalAlign=top;align=center;spacingLeft=6.0;spacingRight=6;spacingTop=1.0;spacingBottom=8;whiteSpace=wrap;gliffyId=243;" parent="cPbBcN6YKlQiejN258PK-5" vertex="1">
          <mxGeometry width="180" height="26.888888888888893" as="geometry" />
        </mxCell>
        <mxCell id="cPbBcN6YKlQiejN258PK-7" value="&lt;div style=&quot;width: 177.0px;height:auto;word-break: break-word;&quot;&gt;&lt;div align=&quot;left&quot;&gt;&lt;span style=&quot;line-height: normal; line-height: normal;&quot;&gt;profile_name&lt;/span&gt;&lt;/div&gt;&lt;div align=&quot;left&quot;&gt;&lt;span style=&quot;line-height: normal; line-height: normal;&quot;&gt;property_name&lt;/span&gt;&lt;/div&gt;&lt;div align=&quot;left&quot;&gt;property_value&lt;/div&gt;&lt;/div&gt;" style="shape=rect;shadow=1;strokeWidth=2;fillColor=#FFFFFF;strokeColor=#000000;opacity=100.0;html=1;nl2Br=0;verticalAlign=top;align=left;spacingLeft=0.0;spacingRight=0;spacingTop=-5.0;spacingBottom=2;whiteSpace=wrap;gliffyId=245;" parent="cPbBcN6YKlQiejN258PK-5" vertex="1">
          <mxGeometry y="26.888888888888893" width="180" height="83.11111111111111" as="geometry" />
        </mxCell>
        <mxCell id="cPbBcN6YKlQiejN258PK-11" value="" style="group" parent="1" connectable="0" vertex="1">
          <mxGeometry x="-260" y="410" width="140" height="120" as="geometry" />
        </mxCell>
        <mxCell id="cPbBcN6YKlQiejN258PK-9" value="&lt;div style=&quot;width: 187.0px;height:auto;word-break: break-word;&quot;&gt;&lt;div align=&quot;center&quot;&gt;&lt;span style=&quot;font-family: Arial; font-size: 12px; line-height: 14px;&quot;&gt;dvpd_model_profile_&lt;/span&gt;&lt;/div&gt;&lt;div align=&quot;center&quot;&gt;&lt;span style=&quot;font-family: Arial; font-size: 12px; line-height: 14px;&quot;&gt;meta_column_lookup&lt;span style=&quot;text-decoration: none;&quot; class=&quot;line-height: normal;&quot;&gt;&lt;br&gt;&lt;/span&gt;&lt;/span&gt;&lt;/div&gt;&lt;/div&gt;" style="shape=rect;shadow=0;strokeWidth=2;fillColor=#FFFFFF;strokeColor=#000000;opacity=100.0;html=1;nl2Br=0;verticalAlign=top;align=center;spacingLeft=6.0;spacingRight=6;spacingTop=1.0;spacingBottom=8;whiteSpace=wrap;gliffyId=31;" parent="cPbBcN6YKlQiejN258PK-11" vertex="1">
          <mxGeometry width="140" height="40.44943820224719" as="geometry" />
        </mxCell>
        <mxCell id="cPbBcN6YKlQiejN258PK-10" value="&lt;div style=&quot;width: 187.0px;height:auto;word-break: break-word;&quot;&gt;&lt;div align=&quot;left&quot;&gt;&lt;span style=&quot;font-family: Arial; font-size: 12px; font-weight: normal; text-decoration: none; line-height: 14px;&quot; class=&quot;&quot;&gt;profile_name&lt;/span&gt;&lt;/div&gt;&lt;div align=&quot;left&quot;&gt;&lt;span style=&quot;font-family: Arial; font-size: 12px; font-weight: normal; text-decoration: none; line-height: 14px;&quot; class=&quot;&quot;&gt;stereotype&lt;/span&gt;&lt;/div&gt;&lt;div align=&quot;left&quot;&gt;&lt;span style=&quot;font-family: Arial; font-size: 12px; font-weight: normal; text-decoration: none; line-height: 14px;&quot; class=&quot;&quot;&gt;meta_column_name&lt;/span&gt;&lt;/div&gt;&lt;div align=&quot;left&quot;&gt;&lt;span style=&quot;font-family: Arial; font-size: 12px; font-weight: normal; text-decoration: none; line-height: 14px;&quot; class=&quot;&quot;&gt;meta_column_type&lt;/span&gt;&lt;/div&gt;&lt;/div&gt;" style="shape=rect;shadow=0;strokeWidth=2;fillColor=#FFFFFF;strokeColor=#000000;opacity=100.0;html=1;nl2Br=0;verticalAlign=top;align=left;spacingLeft=0.0;spacingRight=0;spacingTop=-5.0;spacingBottom=2;whiteSpace=wrap;gliffyId=33;" parent="cPbBcN6YKlQiejN258PK-11" vertex="1">
          <mxGeometry y="40.45" width="140" height="59.55" as="geometry" />
        </mxCell>
        <mxCell id="cPbBcN6YKlQiejN258PK-12" style="shape=filledEdge;strokeWidth=1;strokeColor=#000000;fillColor=none;startArrow=open;startFill=0;startSize=6;endArrow=none;endFill=0;endSize=6;rounded=1;gliffyId=247;exitX=0.5;exitY=0;entryX=0.5;entryY=1;edgeStyle=orthogonalEdgeStyle;exitDx=0;exitDy=0;entryDx=0;entryDy=0;" parent="1" source="cPbBcN6YKlQiejN258PK-6" target="cPbBcN6YKlQiejN258PK-4" edge="1">
          <mxGeometry width="199" height="48" relative="1" as="geometry">
            <mxPoint x="100" y="217" as="sourcePoint" />
            <mxPoint x="545" y="170" as="targetPoint" />
          </mxGeometry>
        </mxCell>
        <mxCell id="cPbBcN6YKlQiejN258PK-13" style="shape=filledEdge;strokeWidth=1;strokeColor=#000000;fillColor=none;startArrow=open;startFill=0;startSize=6;endArrow=none;endFill=0;endSize=6;rounded=1;gliffyId=247;edgeStyle=orthogonalEdgeStyle;" parent="1" source="cPbBcN6YKlQiejN258PK-4" target="cPbBcN6YKlQiejN258PK-3" edge="1">
          <mxGeometry width="199" height="48" relative="1" as="geometry">
            <mxPoint x="-120" y="200" as="sourcePoint" />
            <mxPoint x="-120" y="174" as="targetPoint" />
          </mxGeometry>
        </mxCell>
        <mxCell id="cPbBcN6YKlQiejN258PK-14" style="shape=filledEdge;strokeWidth=2;strokeColor=#000000;fillColor=none;startArrow=none;startFill=0;startSize=6;endArrow=open;endFill=0;endSize=10;rounded=1;gliffyId=156;edgeStyle=orthogonalEdgeStyle;" parent="1" source="cPbBcN6YKlQiejN258PK-7" target="cPbBcN6YKlQiejN258PK-9" edge="1">
          <mxGeometry width="100" height="100" relative="1" as="geometry">
            <Array as="points" />
            <mxPoint x="-70" y="426" as="targetPoint" />
            <mxPoint x="-70" y="313" as="sourcePoint" />
          </mxGeometry>
        </mxCell>
        <mxCell id="cPbBcN6YKlQiejN258PK-16" style="edgeStyle=elbowEdgeStyle;rounded=1;orthogonalLoop=1;jettySize=auto;elbow=vertical;html=1;endArrow=open;strokeColor=#000000;strokeWidth=2;fillColor=none;startArrow=none;startFill=0;startSize=6;endFill=0;endSize=10;" parent="1" source="a38BfnecuPuGl3UTYQXL-116" target="cPbBcN6YKlQiejN258PK-9" edge="1">
          <mxGeometry relative="1" as="geometry" />
        </mxCell>
        <mxCell id="cPbBcN6YKlQiejN258PK-17" style="shape=filledEdge;strokeWidth=1;strokeColor=#999999;fillColor=none;startArrow=none;startFill=0;startSize=6;endArrow=open;endFill=0;endSize=10;rounded=1;html=1;nl2Br=0;gliffyId=35;edgeStyle=elbowEdgeStyle;exitX=0.75;exitY=1;exitDx=0;exitDy=0;elbow=vertical;entryX=0;entryY=0.25;entryDx=0;entryDy=0;" parent="1" source="cPbBcN6YKlQiejN258PK-7" target="a38BfnecuPuGl3UTYQXL-148" edge="1">
          <mxGeometry width="100" height="100" relative="1" as="geometry">
            <Array as="points">
              <mxPoint x="150" y="790" />
            </Array>
            <mxPoint x="-215" y="469" as="sourcePoint" />
            <mxPoint x="380" y="810" as="targetPoint" />
          </mxGeometry>
        </mxCell>
        <mxCell id="cPbBcN6YKlQiejN258PK-18" value="&lt;div style=&quot;width: 85.7031px;height:auto;word-break: break-word;&quot;&gt;&lt;div align=&quot;center&quot;&gt;&lt;font face=&quot;Arial&quot;&gt;column types&lt;/font&gt;&lt;/div&gt;&lt;/div&gt;" style="text;html=1;nl2Br=0;labelBackgroundColor=#FFFFFF;html=1;nl2Br=0;verticalAlign=middle;align=center;spacingLeft=0.0;spacingRight=0;gliffyId=95;" parent="cPbBcN6YKlQiejN258PK-17" vertex="1">
          <mxGeometry x="0.34787752350369017" relative="1" as="geometry">
            <mxPoint x="121" as="offset" />
          </mxGeometry>
        </mxCell>
        <mxCell id="cPbBcN6YKlQiejN258PK-20" style="shape=filledEdge;strokeWidth=1;strokeColor=#999999;fillColor=none;startArrow=none;startFill=0;startSize=6;endArrow=open;endFill=0;endSize=10;rounded=1;html=1;nl2Br=0;gliffyId=35;edgeStyle=elbowEdgeStyle;exitX=0.75;exitY=1;exitDx=0;exitDy=0;elbow=vertical;" parent="1" source="cPbBcN6YKlQiejN258PK-7" target="a38BfnecuPuGl3UTYQXL-157" edge="1">
          <mxGeometry width="100" height="100" relative="1" as="geometry">
            <Array as="points">
              <mxPoint x="300" y="850" />
            </Array>
            <mxPoint x="-75" y="300" as="sourcePoint" />
            <mxPoint x="380" y="800" as="targetPoint" />
          </mxGeometry>
        </mxCell>
        <mxCell id="cPbBcN6YKlQiejN258PK-21" value="&lt;div style=&quot;width: 85.7031px;height:auto;word-break: break-word;&quot;&gt;&lt;div align=&quot;center&quot;&gt;&lt;font face=&quot;Arial&quot;&gt;column types&lt;/font&gt;&lt;/div&gt;&lt;/div&gt;" style="text;html=1;nl2Br=0;labelBackgroundColor=#FFFFFF;html=1;nl2Br=0;verticalAlign=middle;align=center;spacingLeft=0.0;spacingRight=0;gliffyId=95;" parent="cPbBcN6YKlQiejN258PK-20" vertex="1">
          <mxGeometry x="0.34787752350369017" relative="1" as="geometry">
            <mxPoint x="-4" as="offset" />
          </mxGeometry>
        </mxCell>
        <mxCell id="cPbBcN6YKlQiejN258PK-22" style="shape=filledEdge;strokeWidth=1;strokeColor=#999999;fillColor=none;startArrow=none;startFill=0;startSize=6;endArrow=open;endFill=0;endSize=10;rounded=1;html=1;nl2Br=0;gliffyId=147;edgeStyle=elbowEdgeStyle;exitX=0.5;exitY=1;exitDx=0;exitDy=0;elbow=vertical;" parent="1" source="cPbBcN6YKlQiejN258PK-10" target="37KwecqmPpCkhN_84nmb-7" edge="1">
          <mxGeometry width="100" height="100" relative="1" as="geometry">
            <Array as="points">
              <mxPoint x="470" y="2050" />
            </Array>
            <mxPoint x="610" y="2040" as="targetPoint" />
            <mxPoint x="-215" y="469" as="sourcePoint" />
          </mxGeometry>
        </mxCell>
        <mxCell id="cPbBcN6YKlQiejN258PK-23" value="&lt;div style=&#39;width: 85.7031px;height:auto;word-break: break-word;&#39;&gt;&lt;div align=&quot;center&quot;&gt;&lt;span style=&quot;font-family: Arial; font-size: 12px; line-height: 0;&quot;&gt;&lt;span style=&quot;line-height: 14px;&quot; class=&quot;&quot;&gt;meta columns&lt;/span&gt;&lt;/span&gt;&lt;/div&gt;&lt;/div&gt;" style="text;html=1;nl2Br=0;labelBackgroundColor=#FFFFFF;html=1;nl2Br=0;verticalAlign=middle;align=center;spacingLeft=0.0;spacingRight=0;gliffyId=148;" parent="cPbBcN6YKlQiejN258PK-22" vertex="1">
          <mxGeometry x="0.6979775582487013" relative="1" as="geometry">
            <mxPoint as="offset" />
          </mxGeometry>
        </mxCell>
        <mxCell id="cPbBcN6YKlQiejN258PK-24" value="" style="group;strokeColor=none;" parent="1" connectable="0" vertex="1">
          <mxGeometry x="-370" y="208" width="130" height="110" as="geometry" />
        </mxCell>
        <mxCell id="a38BfnecuPuGl3UTYQXL-115" value="&lt;div style=&quot;width: 187.0px;height:auto;word-break: break-word;&quot;&gt;&lt;div align=&quot;center&quot;&gt;&lt;span style=&quot;font-family: Arial; font-size: 12px; line-height: 14px;&quot;&gt;dvpd_meta_&lt;/span&gt;&lt;/div&gt;&lt;div align=&quot;center&quot;&gt;&lt;span style=&quot;font-family: Arial; font-size: 12px; line-height: 14px;&quot;&gt;column_lookup&lt;span style=&quot;text-decoration: none;&quot; class=&quot;line-height: normal;&quot;&gt;&lt;br&gt;&lt;/span&gt;&lt;/span&gt;&lt;/div&gt;&lt;/div&gt;" style="shape=rect;shadow=1;strokeWidth=2;fillColor=#FFFFFF;strokeColor=#949494;opacity=100.0;html=1;nl2Br=0;verticalAlign=top;align=center;spacingLeft=6.0;spacingRight=6;spacingTop=1.0;spacingBottom=8;whiteSpace=wrap;gliffyId=31;" parent="cPbBcN6YKlQiejN258PK-24" vertex="1">
          <mxGeometry width="130" height="37.078651685393254" as="geometry" />
        </mxCell>
        <mxCell id="a38BfnecuPuGl3UTYQXL-116" value="&lt;div style=&#39;width: 187.0px;height:auto;word-break: break-word;&#39;&gt;&lt;div align=&quot;left&quot;&gt;&lt;span style=&quot;font-family: Arial; font-size: 12px; font-weight: normal; text-decoration: none; line-height: 14px;&quot; class=&quot;&quot;&gt;stereotype&lt;/span&gt;&lt;/div&gt;&lt;div align=&quot;left&quot;&gt;&lt;span style=&quot;font-family: Arial; font-size: 12px; font-weight: normal; text-decoration: none; line-height: 14px;&quot; class=&quot;&quot;&gt;meta_column_name&lt;/span&gt;&lt;/div&gt;&lt;div align=&quot;left&quot;&gt;&lt;span style=&quot;font-family: Arial; font-size: 12px; font-weight: normal; text-decoration: none; line-height: 14px;&quot; class=&quot;&quot;&gt;meta_column_type&lt;/span&gt;&lt;/div&gt;&lt;/div&gt;" style="shape=rect;shadow=1;strokeWidth=2;fillColor=#FFFFFF;strokeColor=#949494;opacity=100.0;html=1;nl2Br=0;verticalAlign=top;align=left;spacingLeft=0.0;spacingRight=0;spacingTop=-5.0;spacingBottom=2;whiteSpace=wrap;gliffyId=33;" parent="cPbBcN6YKlQiejN258PK-24" vertex="1">
          <mxGeometry y="37.078651685393254" width="130" height="72.92134831460673" as="geometry" />
        </mxCell>
        <mxCell id="cPbBcN6YKlQiejN258PK-25" value="&lt;div style=&quot;width: 102.6px;height:auto;word-break: break-word;&quot;&gt;&lt;div align=&quot;center&quot;&gt;&lt;span style=&quot;font-family: Arial; font-size: 12px; text-decoration: none; line-height: 14px;&quot;&gt;Helper objects in PostgreSQL implementation&lt;/span&gt;&lt;/div&gt;&lt;/div&gt;" style="shape=rect;shadow=0;strokeWidth=2;fillColor=#FFFFFF;strokeColor=#949494;opacity=100.0;html=1;nl2Br=0;verticalAlign=middle;align=center;spacingLeft=2.2;spacingRight=0;whiteSpace=wrap;gliffyId=198;" parent="1" vertex="1">
          <mxGeometry x="1220" y="10" width="110" height="50" as="geometry" />
        </mxCell>
        <mxCell id="cPbBcN6YKlQiejN258PK-26" value="" style="group" parent="1" connectable="0" vertex="1">
          <mxGeometry x="460" y="10" width="150" height="75" as="geometry" />
        </mxCell>
        <mxCell id="a38BfnecuPuGl3UTYQXL-29" value="&lt;div style=&#39;width: 167.0px;height:auto;word-break: break-word;&#39;&gt;&lt;div align=&quot;center&quot;&gt;&lt;span style=&quot;font-family: Arial; font-size: 12px; line-height: 14px;&quot;&gt;dvpd_dictionary&lt;span style=&quot;text-decoration: none;&quot; class=&quot; line-height: normal;&quot;&gt;&lt;br&gt;&lt;/span&gt;&lt;/span&gt;&lt;/div&gt;&lt;/div&gt;" style="shape=rect;shadow=1;strokeWidth=2;fillColor=#FFFFFF;strokeColor=#949494;opacity=100.0;html=1;nl2Br=0;verticalAlign=top;align=center;spacingLeft=6.0;spacingRight=6;spacingTop=1.0;spacingBottom=8;whiteSpace=wrap;gliffyId=6;" parent="cPbBcN6YKlQiejN258PK-26" vertex="1">
          <mxGeometry width="150" height="30" as="geometry" />
        </mxCell>
        <mxCell id="a38BfnecuPuGl3UTYQXL-30" value="&lt;div style=&#39;width: 167.0px;height:auto;word-break: break-word;&#39;&gt;&lt;div align=&quot;left&quot;&gt;&lt;span style=&quot;font-family: Arial; font-size: 12px; font-weight: normal; text-decoration: none; line-height: 14px;&quot; class=&quot;&quot;&gt;pipeline_name&lt;/span&gt;&lt;/div&gt;&lt;div align=&quot;left&quot;&gt;&lt;span style=&quot;font-family: Arial; font-size: 12px; font-weight: normal; text-decoration: none; line-height: 14px;&quot; class=&quot;&quot;&gt;json&lt;/span&gt;&lt;/div&gt;&lt;/div&gt;" style="shape=rect;shadow=1;strokeWidth=2;fillColor=#FFFFFF;strokeColor=#949494;opacity=100.0;html=1;nl2Br=0;verticalAlign=top;align=left;spacingLeft=0.0;spacingRight=0;spacingTop=-5.0;spacingBottom=2;whiteSpace=wrap;gliffyId=8;" parent="cPbBcN6YKlQiejN258PK-26" vertex="1">
          <mxGeometry y="30" width="150" height="45" as="geometry" />
        </mxCell>
        <mxCell id="CVDMiw8rUvfA-kAMbhth-1" value="" style="group;strokeColor=none;" parent="1" connectable="0" vertex="1">
          <mxGeometry x="60" y="1630" width="240" height="110" as="geometry" />
        </mxCell>
        <mxCell id="CVDMiw8rUvfA-kAMbhth-2" value="&lt;div style=&quot;width: 187.0px;height:auto;word-break: break-word;&quot;&gt;&lt;div align=&quot;center&quot;&gt;&lt;span style=&quot;font-family: Arial; font-size: 12px; line-height: 14px;&quot;&gt;dvpd_stage&lt;/span&gt;&lt;/div&gt;&lt;div align=&quot;center&quot;&gt;&lt;span style=&quot;font-family: Arial; font-size: 12px; line-height: 14px;&quot;&gt;column_block_configuration&lt;span style=&quot;text-decoration: none;&quot; class=&quot;line-height: normal;&quot;&gt;&lt;br&gt;&lt;/span&gt;&lt;/span&gt;&lt;/div&gt;&lt;/div&gt;" style="shape=rect;shadow=1;strokeWidth=2;fillColor=#FFFFFF;strokeColor=#949494;opacity=100.0;html=1;nl2Br=0;verticalAlign=top;align=center;spacingLeft=6.0;spacingRight=6;spacingTop=1.0;spacingBottom=8;whiteSpace=wrap;gliffyId=31;" parent="CVDMiw8rUvfA-kAMbhth-1" vertex="1">
          <mxGeometry width="240" height="37.078651685393254" as="geometry" />
        </mxCell>
        <mxCell id="CVDMiw8rUvfA-kAMbhth-3" value="&lt;div style=&quot;width: 187.0px;height:auto;word-break: break-word;&quot;&gt;&lt;div align=&quot;left&quot;&gt;&lt;font face=&quot;Arial&quot;&gt;dv_column_class&lt;/font&gt;&lt;/div&gt;&lt;div align=&quot;left&quot;&gt;&lt;font face=&quot;Arial&quot;&gt;sterotype&lt;/font&gt;&lt;/div&gt;&lt;div align=&quot;left&quot;&gt;&lt;font face=&quot;Arial&quot;&gt;stage_column_block&lt;/font&gt;&lt;/div&gt;&lt;/div&gt;" style="shape=rect;shadow=1;strokeWidth=2;fillColor=#FFFFFF;strokeColor=#949494;opacity=100.0;html=1;nl2Br=0;verticalAlign=top;align=left;spacingLeft=0.0;spacingRight=0;spacingTop=-5.0;spacingBottom=2;whiteSpace=wrap;gliffyId=33;" parent="CVDMiw8rUvfA-kAMbhth-1" vertex="1">
          <mxGeometry y="37.078651685393254" width="240" height="72.92134831460673" as="geometry" />
        </mxCell>
        <mxCell id="CVDMiw8rUvfA-kAMbhth-4" style="edgeStyle=orthogonalEdgeStyle;shape=filledEdge;rounded=1;orthogonalLoop=1;jettySize=auto;html=1;entryX=0;entryY=0.25;entryDx=0;entryDy=0;labelBackgroundColor=default;strokeColor=#999999;strokeWidth=1;fontFamily=Helvetica;fontSize=11;fontColor=default;startArrow=none;startFill=0;endArrow=open;endFill=0;startSize=6;endSize=10;fillColor=none;" parent="1" source="CVDMiw8rUvfA-kAMbhth-3" target="a38BfnecuPuGl3UTYQXL-142" edge="1">
          <mxGeometry relative="1" as="geometry">
            <Array as="points">
              <mxPoint x="235" y="1785" />
            </Array>
          </mxGeometry>
        </mxCell>
        <mxCell id="xWJ_gbW6RZvfibRAOKZM-2" style="shape=rect;verticalAlign=top;align=left;fontSize=12;fontFamily=Helvetica;shadow=0;strokeWidth=2;fillColor=#FFFFFF;strokeColor=#e69138;opacity=100.0;gliffyId=274;" parent="1" vertex="1">
          <mxGeometry x="-130" y="1130" width="205" height="150" as="geometry" />
        </mxCell>
        <mxCell id="xWJ_gbW6RZvfibRAOKZM-3" value="&lt;div style=&quot;width: 202.0px;height:auto;word-break: break-word;&quot;&gt;&lt;div align=&quot;center&quot;&gt;&lt;span style=&quot;font-family: Arial; font-size: 12px; line-height: 0;&quot;&gt;&lt;span style=&quot;text-decoration: none; line-height: 14px;&quot;&gt;DVPD_PIPELINE_&lt;/span&gt;&lt;/span&gt;&lt;/div&gt;&lt;div align=&quot;center&quot;&gt;&lt;span style=&quot;font-family: Arial; font-size: 12px; line-height: 0;&quot;&gt;&lt;span style=&quot;text-decoration: none; line-height: 14px;&quot;&gt;PROPERTIES&lt;/span&gt;&lt;/span&gt;&lt;/div&gt;&lt;/div&gt;" style="shape=rect;shadow=0;strokeWidth=2;fillColor=#FFFFFF;strokeColor=#e69138;opacity=100.0;html=1;nl2Br=0;verticalAlign=top;align=center;spacingLeft=6.0;spacingRight=6;spacingTop=1.0;spacingBottom=8;whiteSpace=wrap;gliffyId=275;" parent="xWJ_gbW6RZvfibRAOKZM-2" vertex="1">
          <mxGeometry width="205" height="55" as="geometry" />
        </mxCell>
        <mxCell id="xWJ_gbW6RZvfibRAOKZM-4" value="&lt;div style=&quot;width: 202.0px;height:auto;word-break: break-word;&quot;&gt;&lt;div align=&quot;left&quot;&gt;&lt;span style=&quot;text-decoration: none; line-height: normal; line-height: normal;&quot;&gt;&amp;nbsp;&lt;/span&gt;&lt;span style=&quot;line-height: normal; line-height: normal;&quot;&gt;pipeline_name(P)&lt;/span&gt;&lt;/div&gt;&lt;div align=&quot;left&quot;&gt;&lt;span style=&quot;line-height: normal; line-height: normal;&quot;&gt;pipeline_revision_tag&lt;/span&gt;&lt;/div&gt;&lt;div align=&quot;left&quot;&gt;&lt;span style=&quot;line-height: normal; line-height: normal;&quot;&gt;record_source_name_expression&lt;/span&gt;&lt;/div&gt;&lt;div align=&quot;left&quot;&gt;&lt;span style=&quot;line-height: normal; line-height: normal;&quot;&gt;fetch_module_name&lt;/span&gt;&lt;/div&gt;&lt;div align=&quot;left&quot;&gt;&lt;span style=&quot;line-height: normal; line-height: normal;&quot;&gt;...&lt;/span&gt;&lt;/div&gt;&lt;div align=&quot;left&quot;&gt;&lt;/div&gt;&lt;div align=&quot;left&quot;&gt;&lt;/div&gt;&lt;/div&gt;" style="shape=rect;shadow=0;strokeWidth=2;fillColor=#FFFFFF;strokeColor=#e69138;opacity=100.0;html=1;nl2Br=0;verticalAlign=top;align=left;spacingLeft=0.0;spacingRight=0;spacingTop=-5.0;spacingBottom=2;whiteSpace=wrap;gliffyId=277;" parent="xWJ_gbW6RZvfibRAOKZM-2" vertex="1">
          <mxGeometry y="55" width="205" height="95" as="geometry" />
        </mxCell>
        <mxCell id="xWJ_gbW6RZvfibRAOKZM-5" style="edgeStyle=orthogonalEdgeStyle;shape=filledEdge;rounded=1;orthogonalLoop=1;jettySize=auto;html=1;labelBackgroundColor=default;strokeColor=#000000;strokeWidth=2;fontFamily=Helvetica;fontSize=11;fontColor=default;startArrow=none;startFill=0;endArrow=open;endFill=0;startSize=6;endSize=10;fillColor=none;" parent="1" source="a38BfnecuPuGl3UTYQXL-48" target="xWJ_gbW6RZvfibRAOKZM-3" edge="1">
          <mxGeometry relative="1" as="geometry" />
        </mxCell>
        <mxCell id="xWJ_gbW6RZvfibRAOKZM-6" style="shape=rect;verticalAlign=top;align=left;fontSize=12;fontFamily=Helvetica;shadow=0;strokeWidth=2;fillColor=#FFFFFF;strokeColor=#990000;opacity=100.0;gliffyId=211;" parent="1" vertex="1">
          <mxGeometry x="1110" y="340" width="190" height="100" as="geometry" />
        </mxCell>
        <mxCell id="xWJ_gbW6RZvfibRAOKZM-7" value="&lt;div style=&quot;width: 187.0px;height:auto;word-break: break-word;&quot;&gt;&lt;div align=&quot;center&quot;&gt;&lt;span style=&quot;font-family: Arial; font-size: 12px; line-height: 14px;&quot;&gt;DVPD_PIPELINE_DV_TABLE&lt;/span&gt;&lt;span style=&quot;line-height: normal; line-height: normal;&quot;&gt;_DRIVING_KEY&lt;/span&gt;&lt;/div&gt;&lt;/div&gt;" style="shape=rect;shadow=0;strokeWidth=2;fillColor=#FFFFFF;strokeColor=#FF0000;opacity=100.0;html=1;nl2Br=0;verticalAlign=middle;align=center;spacingLeft=2.2;spacingRight=0;spacingTop=1.0;spacingBottom=8;whiteSpace=wrap;gliffyId=212;" parent="xWJ_gbW6RZvfibRAOKZM-6" vertex="1">
          <mxGeometry width="190" height="44" as="geometry" />
        </mxCell>
        <mxCell id="xWJ_gbW6RZvfibRAOKZM-8" value="&lt;div style=&#39;width: 187.0px;height:auto;word-break: break-word;&#39;&gt;&lt;div align=&quot;left&quot;&gt;&lt;/div&gt;&lt;div align=&quot;left&quot;&gt;&lt;span style=&quot;line-height: normal; line-height: normal;&quot;&gt;pipeline_name(P)&lt;/span&gt;&lt;/div&gt;&lt;div align=&quot;left&quot;&gt;&lt;span style=&quot;line-height: normal; line-height: normal;&quot;&gt;table_name(P)&lt;/span&gt;&lt;/div&gt;&lt;div align=&quot;left&quot;&gt;&lt;span style=&quot;line-height: normal; line-height: normal;&quot;&gt;driving_key&lt;/span&gt;&lt;/div&gt;&lt;/div&gt;" style="shape=rect;shadow=0;strokeWidth=2;fillColor=#FFFFFF;strokeColor=#FF0000;opacity=100.0;html=1;nl2Br=0;verticalAlign=middle;align=center;spacingLeft=2.2;spacingRight=0;spacingTop=-5.0;spacingBottom=2;whiteSpace=wrap;gliffyId=214;" parent="xWJ_gbW6RZvfibRAOKZM-6" vertex="1">
          <mxGeometry y="44" width="190" height="56" as="geometry" />
        </mxCell>
        <mxCell id="xWJ_gbW6RZvfibRAOKZM-9" style="edgeStyle=orthogonalEdgeStyle;shape=filledEdge;rounded=1;orthogonalLoop=1;jettySize=auto;html=1;labelBackgroundColor=default;strokeColor=#000000;strokeWidth=2;fontFamily=Helvetica;fontSize=11;fontColor=default;startArrow=none;startFill=0;endArrow=open;endFill=0;startSize=6;endSize=10;fillColor=none;" parent="1" source="a38BfnecuPuGl3UTYQXL-6" target="xWJ_gbW6RZvfibRAOKZM-7" edge="1">
          <mxGeometry relative="1" as="geometry" />
        </mxCell>
        <mxCell id="isfB_mdRMPxW0Svjtrjf-1" style="shape=rect;verticalAlign=top;align=left;fontSize=12;fontFamily=Helvetica;shadow=1;strokeWidth=2;fillColor=#FFFFFF;strokeColor=#000000;opacity=100.0;gliffyId=274;" parent="1" vertex="1">
          <mxGeometry x="100" y="970" width="205" height="80" as="geometry" />
        </mxCell>
        <mxCell id="isfB_mdRMPxW0Svjtrjf-2" value="&lt;div style=&quot;width: 202.0px;height:auto;word-break: break-word;&quot;&gt;&lt;div align=&quot;center&quot;&gt;&lt;span style=&quot;font-family: Arial; font-size: 12px; line-height: 0;&quot;&gt;&lt;span style=&quot;text-decoration: none; line-height: 14px;&quot;&gt;DVPD_PIPELINE_&lt;/span&gt;&lt;/span&gt;&lt;/div&gt;&lt;div align=&quot;center&quot;&gt;&lt;span style=&quot;font-family: Arial; font-size: 12px; line-height: 0;&quot;&gt;&lt;span style=&quot;text-decoration: none; line-height: 14px;&quot;&gt;STAGE_PROPERTIES_RAW&lt;/span&gt;&lt;/span&gt;&lt;/div&gt;&lt;/div&gt;" style="shape=rect;shadow=1;strokeWidth=2;fillColor=#FFFFFF;strokeColor=#000000;opacity=100.0;html=1;nl2Br=0;verticalAlign=top;align=left;spacingLeft=6.0;spacingRight=6;spacingTop=1.0;spacingBottom=8;whiteSpace=wrap;gliffyId=275;" parent="isfB_mdRMPxW0Svjtrjf-1" vertex="1">
          <mxGeometry width="205" height="40" as="geometry" />
        </mxCell>
        <mxCell id="isfB_mdRMPxW0Svjtrjf-3" value="&lt;div style=&quot;width: 202.0px;height:auto;word-break: break-word;&quot;&gt;&lt;div align=&quot;left&quot;&gt;&lt;span style=&quot;text-decoration: none; line-height: normal; line-height: normal;&quot;&gt;&amp;nbsp;&lt;/span&gt;&lt;span style=&quot;line-height: normal; line-height: normal;&quot;&gt;pipeline_name(P)&lt;/span&gt;&lt;/div&gt;&lt;div align=&quot;left&quot;&gt;...&lt;/div&gt;&lt;div align=&quot;left&quot;&gt;&lt;/div&gt;&lt;div align=&quot;left&quot;&gt;&lt;/div&gt;&lt;/div&gt;" style="shape=rect;shadow=1;strokeWidth=2;fillColor=#FFFFFF;strokeColor=#000000;opacity=100.0;html=1;nl2Br=0;verticalAlign=top;align=left;spacingLeft=0.0;spacingRight=0;spacingTop=-5.0;spacingBottom=2;whiteSpace=wrap;gliffyId=277;" parent="isfB_mdRMPxW0Svjtrjf-1" vertex="1">
          <mxGeometry y="40" width="205" height="40" as="geometry" />
        </mxCell>
        <mxCell id="isfB_mdRMPxW0Svjtrjf-4" style="shape=rect;verticalAlign=top;align=left;fontSize=12;fontFamily=Helvetica;shadow=0;strokeWidth=2;fillColor=#D9EAD3;strokeColor=#e69138;opacity=100.0;gliffyId=274;" parent="1" vertex="1">
          <mxGeometry x="100" y="1130" width="205" height="150" as="geometry" />
        </mxCell>
        <mxCell id="isfB_mdRMPxW0Svjtrjf-5" value="&lt;div style=&quot;width: 202.0px;height:auto;word-break: break-word;&quot;&gt;&lt;div align=&quot;center&quot;&gt;&lt;span style=&quot;font-family: Arial; font-size: 12px; line-height: 0;&quot;&gt;&lt;span style=&quot;text-decoration: none; line-height: 14px;&quot;&gt;DVPD_PIPELINE_&lt;/span&gt;&lt;/span&gt;&lt;/div&gt;&lt;div align=&quot;center&quot;&gt;&lt;span style=&quot;font-family: Arial; font-size: 12px; line-height: 0;&quot;&gt;&lt;span style=&quot;text-decoration: none; line-height: 14px;&quot;&gt;STAGE_PROPERTIES&lt;/span&gt;&lt;/span&gt;&lt;/div&gt;&lt;/div&gt;" style="shape=rect;shadow=0;strokeWidth=2;fillColor=#D9EAD3;strokeColor=#e69138;opacity=100.0;html=1;nl2Br=0;verticalAlign=top;align=center;spacingLeft=6.0;spacingRight=6;spacingTop=1.0;spacingBottom=8;whiteSpace=wrap;gliffyId=275;" parent="isfB_mdRMPxW0Svjtrjf-4" vertex="1">
          <mxGeometry width="205" height="55" as="geometry" />
        </mxCell>
        <mxCell id="isfB_mdRMPxW0Svjtrjf-6" value="&lt;div style=&quot;width: 202.0px;height:auto;word-break: break-word;&quot;&gt;&lt;div align=&quot;left&quot;&gt;&lt;span style=&quot;line-height: normal; line-height: normal;&quot;&gt;pipeline_name(P)&lt;/span&gt;&lt;/div&gt;&lt;div align=&quot;left&quot;&gt;&lt;span style=&quot;background-color: initial;&quot;&gt;storage_component(P)&lt;/span&gt;&lt;/div&gt;&lt;div align=&quot;left&quot;&gt;&lt;span style=&quot;background-color: initial;&quot;&gt;stage_schema&lt;/span&gt;&lt;/div&gt;&lt;div align=&quot;left&quot;&gt;&lt;span style=&quot;background-color: initial;&quot;&gt;stage_table_name&lt;/span&gt;&lt;br&gt;&lt;/div&gt;&lt;div align=&quot;left&quot;&gt;&lt;/div&gt;&lt;div align=&quot;left&quot;&gt;&lt;/div&gt;&lt;/div&gt;" style="shape=rect;shadow=0;strokeWidth=2;fillColor=#D9EAD3;strokeColor=#e69138;opacity=100.0;html=1;nl2Br=0;verticalAlign=top;align=left;spacingLeft=0.0;spacingRight=0;spacingTop=-5.0;spacingBottom=2;whiteSpace=wrap;gliffyId=277;" parent="isfB_mdRMPxW0Svjtrjf-4" vertex="1">
          <mxGeometry y="55" width="205" height="95" as="geometry" />
        </mxCell>
        <mxCell id="isfB_mdRMPxW0Svjtrjf-7" style="edgeStyle=orthogonalEdgeStyle;shape=filledEdge;rounded=1;orthogonalLoop=1;jettySize=auto;html=1;entryX=0.5;entryY=0;entryDx=0;entryDy=0;labelBackgroundColor=default;strokeColor=#000000;strokeWidth=2;fontFamily=Helvetica;fontSize=11;fontColor=default;startArrow=none;startFill=0;endArrow=open;endFill=0;startSize=6;endSize=10;fillColor=none;" parent="1" source="isfB_mdRMPxW0Svjtrjf-3" target="isfB_mdRMPxW0Svjtrjf-5" edge="1">
          <mxGeometry relative="1" as="geometry" />
        </mxCell>
      </root>
    </mxGraphModel>
  </diagram>
</mxfile>
